<?xml version="1.0" encoding="UTF-8" standalone="no"?>
<!DOCTYPE svg PUBLIC "-//W3C//DTD SVG 1.1//EN" "http://www.w3.org/Graphics/SVG/1.1/DTD/svg11.dtd">
<svg width="16" height="12" viewBox="0 0 16 12" version="1.1" xmlns="http://www.w3.org/2000/svg" xmlns:xlink="http://www.w3.org/1999/xlink" xml:space="preserve" xmlns:serif="http://www.serif.com/" style="fill-rule:evenodd;clip-rule:evenodd;stroke-linejoin:round;stroke-miterlimit:2;">
    <g transform="matrix(1,0,0,1,-105,-3)">
        <path d="M109.814,3.038C111.025,3.038 112.307,3.537 113.346,3.929C114.349,4.287 115.251,4.606 116.011,4.606C117.017,4.606 117.572,4.037 117.744,3L121,3C120.93,6.177 119.025,7.856 116.324,7.856C115.008,7.856 113.693,7.429 112.515,7.037C111.58,6.68 110.679,6.392 109.952,6.392C109.02,6.392 108.394,6.999 108.29,8.001L105,8.001C105.07,4.397 107.425,3.038 109.814,3.038ZM109.814,10.037C111.025,10.037 112.307,10.536 113.346,10.928C114.349,11.286 115.251,11.608 116.011,11.608C117.017,11.608 117.572,11.036 117.744,9.999L121,9.999C120.93,13.176 119.025,14.855 116.324,14.855C115.008,14.855 113.693,14.428 112.515,14.036C111.58,13.679 110.679,13.394 109.952,13.394C109.02,13.394 108.394,13.998 108.29,15L105,15C105.07,11.396 107.425,10.037 109.814,10.037Z" style="fill-rule:nonzero;"/>
    </g>
</svg>
