<svg width="1235" height="665" viewBox="0 0 1235 665" fill="none" xmlns="http://www.w3.org/2000/svg">
<g clip-path="url(#clip0_173_152)">
<rect width="324.573" height="34.0279" transform="matrix(-0.0226339 -0.999744 0.99963 -0.0271915 843.834 567.086)" fill="#D9D9D9"/>
<rect width="166.102" height="34.0395" transform="matrix(0.0576859 -0.998335 0.997599 0.0692581 887.681 564.53)" fill="#D9D9D9"/>
<rect x="847.815" y="139.74" width="139.945" height="34.0258" transform="rotate(-87.9052 847.815 139.74)" fill="#D9D9D9"/>
<path d="M978.181 282.017L1093.3 282.824L1111.16 364.33L1129.02 445.835L977.04 444.77L978.181 282.017Z" fill="#D9D9D9"/>
<rect x="896.376" y="282.114" width="77.1549" height="162.804" transform="rotate(0.400474 896.376 282.114)" fill="#D9D9D9"/>
<rect x="757.984" y="224.863" width="41.4082" height="18.8027" transform="rotate(-173.251 757.984 224.863)" fill="#D9D9D9"/>
<rect x="890.926" y="85.9312" width="41.4082" height="18.8027" transform="rotate(-87.8391 890.926 85.9312)" fill="#D9D9D9"/>
<rect x="813.039" y="416.091" width="41.4082" height="18.8027" transform="rotate(-88.0274 813.039 416.091)" fill="#D9D9D9"/>
<path d="M885.498 541.742C917.013 541.742 942.562 567.291 942.562 598.806C942.561 630.321 917.013 655.868 885.498 655.868C853.983 655.868 828.436 630.32 828.436 598.806C828.436 567.291 853.983 541.742 885.498 541.742ZM885.413 572.176C870.753 572.176 858.869 584.06 858.869 598.72C858.869 613.38 870.753 625.265 885.413 625.265C900.073 625.265 911.957 613.38 911.957 598.72C911.957 584.06 900.073 572.176 885.413 572.176Z" fill="#D9D9D9"/>
<rect x="994.062" y="128.35" width="68.7273" height="28.35" transform="rotate(90 994.062 128.35)" fill="#D9D9D9"/>
<path d="M980.745 96.5635L1002.69 134.578H958.797L980.745 96.5635Z" fill="#D9D9D9"/>
<circle cx="980.449" cy="153.342" r="6.50106" fill="#D9D9D9"/>
<path d="M-14.9019 70.1615L816.349 167.312L812.372 201.105L-11.101 104.231L-14.9019 70.1615Z" fill="#D9D9D9"/>
<path d="M859.518 105.021C905.256 105.021 942.335 142.1 942.335 187.839C942.335 233.578 905.256 270.656 859.518 270.656C813.779 270.656 776.7 233.578 776.7 187.839C776.7 142.1 813.779 105.022 859.518 105.021ZM860.928 149.15C839.622 149.15 822.35 166.422 822.35 187.728C822.35 209.033 839.622 226.305 860.928 226.305C882.233 226.304 899.505 209.033 899.505 187.728C899.505 166.422 882.233 149.151 860.928 149.15Z" fill="#D9D9D9"/>
<path d="M917.379 88.4825C916.357 87.1805 915.475 85.1645 915.475 82.4765C915.475 79.8025 916.357 77.7585 917.379 76.4565H918.499C917.491 78.0805 916.707 79.9285 916.707 82.4625C916.707 85.0105 917.491 86.8725 918.499 88.4825H917.379ZM920.616 86.6765C920.868 83.3165 922.058 80.3485 924.298 77.9965H918.978V76.8765H925.46V78.0805C923.528 80.2225 922.058 83.3585 921.932 86.6765H920.616ZM927.094 76.4565C928.116 77.7585 928.998 79.7745 928.998 82.4625C928.998 85.1365 928.116 87.1805 927.094 88.4825H925.974C926.982 86.8585 927.766 85.0105 927.766 82.4765C927.766 79.9285 926.982 78.0665 925.974 76.4565H927.094Z" fill="black"/>
<path d="M697.09 228.477C696.068 227.175 695.186 225.159 695.186 222.471C695.186 219.797 696.068 217.753 697.09 216.451H698.21C697.202 218.075 696.418 219.923 696.418 222.457C696.418 225.005 697.202 226.867 698.21 228.477H697.09ZM700.327 226.671C700.579 223.311 701.769 220.343 704.009 217.991H698.689V216.871H705.171V218.075C703.239 220.217 701.769 223.353 701.643 226.671H700.327ZM706.805 216.451C707.827 217.753 708.709 219.769 708.709 222.457C708.709 225.131 707.827 227.175 706.805 228.477H705.685C706.693 226.853 707.477 225.005 707.477 222.471C707.477 219.923 706.693 218.061 705.685 216.451H706.805Z" fill="black"/>
<path d="M795.963 414.122C794.941 412.82 794.059 410.804 794.059 408.116C794.059 405.442 794.941 403.398 795.963 402.096H797.083C796.075 403.72 795.291 405.568 795.291 408.102C795.291 410.65 796.075 412.512 797.083 414.122H795.963ZM799.2 412.316C799.452 408.956 800.642 405.988 802.882 403.636H797.562V402.516H804.044V403.72C802.112 405.862 800.642 408.998 800.516 412.316H799.2ZM805.678 402.096C806.7 403.398 807.582 405.414 807.582 408.102C807.582 410.776 806.7 412.82 805.678 414.122H804.558C805.566 412.498 806.35 410.65 806.35 408.116C806.35 405.568 805.566 403.706 804.558 402.096H805.678Z" fill="black"/>
<path d="M989.252 277.171C988.23 275.869 987.348 273.853 987.348 271.165C987.348 268.491 988.23 266.447 989.252 265.145H990.372C989.364 266.769 988.58 268.617 988.58 271.151C988.58 273.699 989.364 275.561 990.372 277.171H989.252ZM994.785 275.575C992.223 275.575 991.257 273.405 991.257 270.689C991.257 267.665 992.517 265.341 995.205 265.341C996.941 265.341 998.103 266.391 998.117 267.931H996.871C996.843 266.965 996.185 266.321 995.177 266.321C993.539 266.321 992.615 267.609 992.503 269.989C992.489 270.129 992.489 270.283 992.489 270.437C992.909 269.639 993.889 268.939 995.093 268.939C996.913 268.939 998.131 270.339 998.131 272.201C998.131 274.161 996.675 275.575 994.785 275.575ZM992.713 272.173C992.713 273.853 993.623 274.637 994.785 274.637C995.975 274.637 996.857 273.671 996.857 272.215C996.857 270.969 996.087 269.933 994.855 269.933C993.623 269.933 992.713 270.927 992.713 272.173ZM1000.16 265.145C1001.18 266.447 1002.06 268.463 1002.06 271.151C1002.06 273.825 1001.18 275.869 1000.16 277.171H999.036C1000.04 275.547 1000.83 273.699 1000.83 271.165C1000.83 268.617 1000.04 266.755 999.036 265.145H1000.16Z" fill="black"/>
<path d="M1000.68 198.043C999.661 196.741 998.779 194.725 998.779 192.037C998.779 189.363 999.661 187.319 1000.68 186.017H1001.8C1000.8 187.641 1000.01 189.489 1000.01 192.023C1000.01 194.571 1000.8 196.433 1001.8 198.043H1000.68ZM1005.88 196.447C1003.86 196.447 1002.6 195.299 1002.6 193.619H1003.86C1003.86 194.725 1004.59 195.453 1005.84 195.453C1007.25 195.453 1008.08 194.501 1008.08 193.045C1008.08 191.659 1007.32 190.693 1006.01 190.693C1004.97 190.693 1004.16 191.421 1003.93 191.995H1002.76L1003.47 186.437H1008.81V187.557H1004.4L1004.07 190.035C1004.05 190.231 1004.02 190.539 1003.99 190.763C1004.48 190.119 1005.35 189.699 1006.3 189.699C1008.11 189.699 1009.35 191.127 1009.35 192.961C1009.35 195.005 1007.98 196.447 1005.88 196.447ZM1011.22 186.017C1012.24 187.319 1013.12 189.335 1013.12 192.023C1013.12 194.697 1012.24 196.741 1011.22 198.043H1010.1C1011.11 196.419 1011.89 194.571 1011.89 192.037C1011.89 189.489 1011.11 187.627 1010.1 186.017H1011.22Z" fill="black"/>
<path d="M907.562 369.806C906.54 368.504 905.658 366.488 905.658 363.8C905.658 361.126 906.54 359.082 907.562 357.78H908.682C907.674 359.404 906.89 361.252 906.89 363.786C906.89 366.334 907.674 368.196 908.682 369.806H907.562ZM913.711 368V365.494H909.217V364.304L913.291 358.2H914.943V364.374H916.749V365.494H914.943V368H913.711ZM910.379 364.374H913.711V359.306L913.291 359.978L910.701 363.884C910.603 364.024 910.491 364.206 910.379 364.374ZM918.138 357.78C919.16 359.082 920.042 361.098 920.042 363.786C920.042 366.46 919.16 368.504 918.138 369.806H917.018C918.026 368.182 918.81 366.334 918.81 363.8C918.81 361.252 918.026 359.39 917.018 357.78H918.138Z" fill="black"/>
<path d="M988.827 427.806C987.805 426.504 986.923 424.488 986.923 421.8C986.923 419.126 987.805 417.082 988.827 415.78H989.947C988.939 417.404 988.155 419.252 988.155 421.786C988.155 424.334 988.939 426.196 989.947 427.806H988.827ZM994.121 426.21C992.035 426.21 990.747 424.992 990.747 423.172H991.993C991.993 424.334 992.749 425.216 994.121 425.216C995.409 425.216 996.319 424.488 996.319 423.27C996.319 422.066 995.353 421.422 994.163 421.422H993.589V420.344H994.177C995.213 420.344 996.067 419.742 996.067 418.608C996.067 417.572 995.325 416.984 994.219 416.984C992.903 416.984 992.189 417.712 992.161 418.944H990.901C990.943 417.18 992.133 415.976 994.233 415.976C996.011 415.976 997.341 417.04 997.341 418.552C997.341 419.56 996.739 420.442 995.563 420.834C996.907 421.198 997.593 422.108 997.593 423.312C997.593 425.02 996.151 426.21 994.121 426.21ZM999.58 415.78C1000.6 417.082 1001.48 419.098 1001.48 421.786C1001.48 424.46 1000.6 426.504 999.58 427.806H998.46C999.468 426.182 1000.25 424.334 1000.25 421.8C1000.25 419.252 999.468 417.39 998.46 415.78H999.58Z" fill="black"/>
<path d="M1102.56 427.806C1101.54 426.504 1100.66 424.488 1100.66 421.8C1100.66 419.126 1101.54 417.082 1102.56 415.78H1103.68C1102.67 417.404 1101.89 419.252 1101.89 421.786C1101.89 424.334 1102.67 426.196 1103.68 427.806H1102.56ZM1104.48 426C1104.48 424.74 1105 423.914 1106.53 422.752L1107.86 421.73C1108.68 421.086 1109.7 420.19 1109.7 418.944C1109.7 417.824 1109.02 416.984 1107.84 416.984C1106.65 416.984 1105.84 417.824 1105.84 419.434V419.616H1104.58V419.294C1104.58 417.194 1106.01 415.976 1107.84 415.976C1109.66 415.976 1110.98 417.11 1110.98 418.93C1110.98 420.4 1110.1 421.45 1108.25 422.85L1107.56 423.368C1106.65 424.054 1106.11 424.516 1106.01 424.88H1111.15V426H1104.48ZM1113.06 415.78C1114.08 417.082 1114.96 419.098 1114.96 421.786C1114.96 424.46 1114.08 426.504 1113.06 427.806H1111.94C1112.94 426.182 1113.73 424.334 1113.73 421.8C1113.73 419.252 1112.94 417.39 1111.94 415.78H1113.06Z" fill="black"/>
<path d="M684.297 147.618L688.563 139.619L690.115 139.782L692.64 148.493L691.16 148.338L690.515 145.857L686.863 145.474L685.706 147.766L684.297 147.618ZM687.397 144.408L690.214 144.703L689.404 141.614C689.326 141.316 689.268 141.069 689.201 140.784C689.089 141.05 688.955 141.289 688.831 141.554L687.397 144.408ZM694.416 148.679L692.827 142.661L694.164 142.801L695.117 146.943C695.186 147.204 695.215 147.388 695.251 147.621C695.334 147.4 695.413 147.227 695.522 146.986L697.29 143.129L698.579 143.264L695.812 148.826L694.416 148.679ZM698.009 149.056L698.175 147.469L699.762 147.635L699.596 149.223L698.009 149.056ZM705.283 150.012C703.756 149.852 702.735 148.659 702.945 146.654C703.145 144.745 704.451 143.687 705.955 143.845C706.885 143.942 707.431 144.494 707.677 145.027C707.672 144.845 707.689 144.678 707.707 144.511L708.006 141.659L709.247 141.789L708.371 150.143L707.13 150.013L707.16 149.727C707.18 149.536 707.196 149.38 707.237 149.216C706.913 149.664 706.25 150.114 705.283 150.012ZM704.222 146.788C704.088 148.065 704.681 148.972 705.647 149.073C706.59 149.172 707.371 148.397 707.505 147.12C707.639 145.843 707.045 144.949 706.091 144.848C705.136 144.748 704.354 145.535 704.222 146.788ZM712.264 150.745C710.534 150.563 709.503 149.345 709.713 147.34C709.902 145.538 711.229 144.398 712.864 144.569C714.606 144.752 715.469 146.073 715.272 147.947L715.245 148.21L710.937 147.758C710.843 148.882 711.435 149.68 712.377 149.779C713.046 149.849 713.664 149.588 713.861 148.861L715.115 148.992C714.88 150.078 713.875 150.914 712.264 150.745ZM711.041 146.876L714.037 147.19C714.12 146.282 713.648 145.605 712.753 145.511C711.882 145.42 711.216 146.013 711.041 146.876ZM716.019 150.945L716.895 142.591L718.136 142.721L717.26 151.076L716.019 150.945ZM721.268 151.496L722.145 143.142L725.522 143.496C727.121 143.664 728.416 144.439 728.227 146.241C728.035 148.067 726.611 148.533 725.011 148.366L722.959 148.15L722.593 151.635L721.268 151.496ZM723.075 147.04L725.128 147.256C726.262 147.375 726.781 146.91 726.866 146.099C726.951 145.287 726.551 144.726 725.406 144.606L723.353 144.391L723.075 147.04ZM730.446 152.652C729.193 152.52 728.453 151.634 728.611 150.131L728.997 146.455L730.238 146.585L729.875 150.046C729.775 151.001 730.083 151.624 730.907 151.711C731.742 151.798 732.334 151.221 732.444 150.171L732.792 146.853L734.033 146.983L733.426 152.771L732.197 152.642L732.228 152.344C732.246 152.177 732.276 151.999 732.316 151.847C731.969 152.401 731.317 152.743 730.446 152.652ZM737.317 153.373C735.587 153.191 734.556 151.973 734.767 149.968C734.956 148.166 736.282 147.026 737.917 147.198C739.659 147.38 740.522 148.702 740.326 150.575L740.298 150.838L735.99 150.386C735.896 151.51 736.488 152.308 737.431 152.407C738.099 152.477 738.718 152.216 738.915 151.489L740.168 151.62C739.933 152.706 738.928 153.542 737.317 153.373ZM736.094 149.504L739.09 149.818C739.173 148.91 738.701 148.233 737.806 148.139C736.935 148.048 736.269 148.642 736.094 149.504ZM741.072 153.573L741.679 147.785L742.92 147.915L742.884 148.262C742.86 148.488 742.838 148.703 742.791 148.915C743.158 148.29 743.8 147.815 744.671 147.906C744.766 147.916 744.862 147.926 744.955 147.96L744.828 149.165C744.746 149.145 744.629 149.108 744.462 149.091C743.46 148.986 742.759 149.455 742.625 150.732L742.313 153.704L741.072 153.573ZM747.486 154.343C746.436 154.233 745.773 153.644 745.908 152.355L746.231 149.276L745.026 149.15L745.131 148.147L746.337 148.274L746.547 146.269L747.788 146.399L747.578 148.404L748.891 148.542L748.785 149.544L747.473 149.407L747.167 152.319C747.1 152.963 747.356 153.279 747.917 153.338C748.06 153.353 748.205 153.356 748.362 153.349L748.258 154.339C748.074 154.368 747.784 154.374 747.486 154.343ZM751.66 154.877C749.953 154.698 748.885 153.38 749.083 151.494C749.277 149.644 750.612 148.529 752.307 148.707C754.014 148.886 755.089 150.254 754.895 152.104C754.697 153.989 753.366 155.056 751.66 154.877ZM750.348 151.627C750.213 152.916 750.759 153.805 751.761 153.91C752.764 154.016 753.495 153.26 753.63 151.971C753.767 150.658 753.195 149.79 752.204 149.686C751.226 149.583 750.485 150.314 750.348 151.627Z" fill="#909090"/>
<path d="M839.014 98.3685L830.614 98.3685L830.614 95.6205C830.614 92.8485 831.946 91.1445 834.814 91.1445C837.358 91.1445 839.014 92.6325 839.014 95.4765L839.014 98.3685ZM837.886 97.0365L837.886 95.5965C837.886 93.7005 836.962 92.5125 834.814 92.5125C832.858 92.5125 831.73 93.5085 831.73 95.6205L831.73 97.0365L837.886 97.0365ZM839.206 87.4903C839.206 89.2063 838.006 90.4063 836.11 90.4063C834.25 90.4063 833.002 89.1943 833.002 87.4903C833.002 85.7743 834.25 84.5623 836.11 84.5623C838.006 84.5623 839.206 85.7743 839.206 87.4903ZM836.11 89.1343C837.406 89.1343 838.234 88.4983 838.234 87.4903C838.234 86.4823 837.406 85.8343 836.11 85.8343C834.79 85.8343 833.986 86.4943 833.986 87.4903C833.986 88.4743 834.79 89.1343 836.11 89.1343ZM839.206 80.9451C839.206 82.6611 838.09 83.8611 836.098 83.8611C834.202 83.8611 833.002 82.5651 833.002 80.8851C833.002 79.3491 833.926 78.3771 835.27 78.2451L835.27 79.5171C834.562 79.5891 833.986 80.0571 833.986 80.8971C833.986 81.8811 834.826 82.5891 836.098 82.5891C837.37 82.5891 838.234 81.9171 838.234 80.9091C838.234 80.0331 837.682 79.5411 836.926 79.4451L836.926 78.1971C838.294 78.3531 839.206 79.2891 839.206 80.9451ZM839.11 74.9564C839.11 76.0124 838.594 76.7324 837.298 76.7324L834.202 76.7324L834.202 77.9444L833.194 77.9444L833.194 76.7324L831.178 76.7324L831.178 75.4844L833.194 75.4844L833.194 74.1644L834.202 74.1644L834.202 75.4844L837.13 75.4844C837.778 75.4844 838.066 75.1964 838.066 74.6324C838.066 74.4884 838.054 74.3444 838.03 74.1884L839.026 74.1884C839.074 74.3684 839.11 74.6564 839.11 74.9564ZM839.206 70.7493C839.206 72.4653 838.006 73.6653 836.11 73.6653C834.25 73.6653 833.002 72.4533 833.002 70.7493C833.002 69.0333 834.25 67.8213 836.11 67.8213C838.006 67.8213 839.206 69.0333 839.206 70.7493ZM836.11 72.3933C837.406 72.3933 838.234 71.7573 838.234 70.7493C838.234 69.7413 837.406 69.0933 836.11 69.0933C834.79 69.0933 833.986 69.7533 833.986 70.7493C833.986 71.7333 834.79 72.3933 836.11 72.3933ZM839.014 66.7722L833.194 66.7722L833.194 65.5242L833.542 65.5242C833.77 65.5242 833.986 65.5242 834.202 65.5482C833.542 65.2482 833.002 64.6602 833.002 63.7842C833.002 63.6882 833.002 63.5922 833.026 63.4962L834.238 63.4962C834.226 63.5802 834.202 63.7002 834.202 63.8682C834.202 64.8762 834.742 65.5242 836.026 65.5242L839.014 65.5242L839.014 66.7722ZM839.206 58.8481C839.206 60.7201 838.054 61.5361 836.362 61.5361L836.362 60.1921C837.382 60.1801 838.09 59.8441 838.09 58.8481C838.09 57.7921 837.37 57.4561 836.314 57.4561L830.614 57.4561L830.614 56.1121L836.494 56.1121C838.21 56.1121 839.206 57.2041 839.206 58.8481ZM839.014 54.9322L837.418 54.9322L837.418 53.3362L839.014 53.3362L839.014 54.9322ZM839.206 49.9765C839.206 51.8485 838.054 52.6645 836.362 52.6645L836.362 51.3205C837.382 51.3085 838.09 50.9725 838.09 49.9765C838.09 48.9205 837.37 48.5845 836.314 48.5845L830.614 48.5845L830.614 47.2405L836.494 47.2405C838.21 47.2405 839.206 48.3325 839.206 49.9765ZM839.014 46.0607L837.418 46.0607L837.418 44.4647L839.014 44.4647L839.014 46.0607ZM839.014 40.8617L830.614 40.8617L830.614 38.1137C830.614 35.3417 831.946 33.6377 834.814 33.6377C837.358 33.6377 839.014 35.1257 839.014 37.9697L839.014 40.8617ZM837.886 39.5297L837.886 38.0897C837.886 36.1937 836.962 35.0057 834.814 35.0057C832.858 35.0057 831.73 36.0017 831.73 38.1137L831.73 39.5297L837.886 39.5297ZM839.206 29.9836C839.206 31.6996 838.006 32.8996 836.11 32.8996C834.25 32.8996 833.002 31.6876 833.002 29.9836C833.002 28.2676 834.25 27.0556 836.11 27.0556C838.006 27.0556 839.206 28.2676 839.206 29.9836ZM830.638 31.6396L830.638 30.0916L832.294 29.2756L832.294 30.3436L830.638 31.6396ZM836.11 31.6276C837.406 31.6276 838.234 30.9916 838.234 29.9836C838.234 28.9756 837.406 28.3276 836.11 28.3276C834.79 28.3276 833.986 28.9876 833.986 29.9836C833.986 30.9676 834.79 31.6276 836.11 31.6276ZM839.014 26.0064L833.194 26.0064L833.194 24.7584L833.554 24.7584C833.698 24.7584 833.854 24.7584 833.998 24.7824C833.458 24.4584 833.002 23.8944 833.002 23.0904C833.002 22.3464 833.47 21.7224 834.118 21.4464C833.494 21.0864 833.002 20.4024 833.002 19.5624C833.002 18.3864 833.83 17.5344 835.342 17.5344L839.014 17.5344L839.014 18.7824L835.546 18.7824C834.574 18.7824 833.986 19.1184 833.986 19.8744C833.986 20.6544 834.682 21.1464 835.582 21.1464L839.014 21.1464L839.014 22.3944L835.57 22.3944C834.586 22.3944 833.986 22.7184 833.986 23.4744C833.986 24.2424 834.67 24.7584 835.606 24.7584L839.014 24.7584L839.014 26.0064ZM839.014 16.2034L833.194 16.2034L833.194 14.9554L839.014 14.9554L839.014 16.2034ZM832.198 16.2514L830.818 16.2514L830.818 14.8954L832.198 14.8954L832.198 16.2514ZM839.014 13.5606L833.194 13.5606L833.194 12.3126L833.518 12.3126C833.674 12.3126 833.818 12.3246 833.998 12.3366C833.458 12.0246 833.002 11.4006 833.002 10.5486C833.002 9.22862 833.878 8.44862 835.342 8.44862L839.014 8.44862L839.014 9.69662L835.51 9.69662C834.538 9.69662 833.986 10.0806 833.986 10.8846C833.986 11.7486 834.694 12.3126 835.558 12.3126L839.014 12.3126L839.014 13.5606ZM839.206 4.57693C839.206 6.31693 838.102 7.46893 836.086 7.46893C834.274 7.46893 833.002 6.26893 833.002 4.62493C833.002 2.87293 834.226 1.87693 836.11 1.87693L836.374 1.87693L836.374 6.20893C837.502 6.18493 838.234 5.51293 838.234 4.56493C838.234 3.89293 837.91 3.30493 837.166 3.18493L837.166 1.92493C838.27 2.04493 839.206 2.95693 839.206 4.57693ZM835.486 6.19693L835.486 3.18493C834.574 3.19693 833.95 3.73693 833.95 4.63693C833.95 5.51293 834.61 6.11293 835.486 6.19693Z" fill="#909090"/>
<rect width="124.778" height="24.3469" transform="translate(1023.21 380.445)" fill="white"/>
<g clip-path="url(#clip1_173_152)">
<path d="M1059.08 390.958H1057.08V395.156H1059.08V390.958Z" fill="black"/>
<path d="M1067.52 385.276H1065.52V400.836H1067.52V385.276Z" fill="black"/>
<path d="M1078.1 397.824V400.837H1080.5L1078.1 397.824Z" fill="black"/>
<path d="M1094.35 397.016V401.1C1095.04 401.022 1095.71 400.907 1096.34 400.748V397.012H1094.35V397.016Z" fill="black"/>
<path d="M1122.39 385.276H1120.38V400.837H1122.39V385.276Z" fill="black"/>
<path d="M1046.51 385.276H1044.52V400.836H1046.51V385.276Z" fill="black"/>
<path d="M1049.66 385.276H1047.66V400.836H1049.66V385.276Z" fill="black"/>
<path d="M1055.94 390.958H1053.94V395.156H1055.94V390.958Z" fill="black"/>
<path d="M1064.37 385.276H1062.37V400.836H1064.37V385.276Z" fill="black"/>
<path d="M1078.72 393.87C1079.06 393.466 1079.32 393.006 1079.51 392.48C1079.7 391.958 1079.8 391.361 1079.8 390.69V390.668C1079.8 389.623 1079.61 388.752 1079.25 388.055C1078.96 387.507 1078.57 387.059 1078.1 386.688V394.466C1078.32 394.285 1078.53 394.088 1078.72 393.866V393.87Z" fill="black"/>
<path d="M1082.16 389.579C1081.63 390.59 1081.36 391.743 1081.36 393.043V393.066C1081.36 394.366 1081.63 395.519 1082.16 396.531C1082.56 397.312 1083.11 397.987 1083.78 398.58V387.529C1083.11 388.122 1082.56 388.8 1082.16 389.579Z" fill="black"/>
<path d="M1100.63 387.522V398.591C1101.3 397.995 1101.85 397.317 1102.26 396.531C1102.78 395.519 1103.04 394.367 1103.04 393.066V393.044C1103.04 391.743 1102.78 390.591 1102.26 389.579C1101.85 388.793 1101.3 388.115 1100.63 387.519V387.522Z" fill="black"/>
<path d="M1129.34 385.28H1127.35V389.464H1129.34V385.28Z" fill="black"/>
<path d="M1126.2 385.28H1124.21V389.464H1126.2V385.28Z" fill="black"/>
<path d="M1132.48 385.28H1130.48V400.841H1132.48V385.28Z" fill="black"/>
<path d="M1135.62 385.28H1133.62V400.841H1135.62V385.28Z" fill="black"/>
<path d="M1138.76 385.28H1136.77V389.464H1138.76V385.28Z" fill="black"/>
<path d="M1141.91 385.272H1139.9V389.456H1141.91V385.272Z" fill="black"/>
<path d="M1109.81 385.276H1107.82V400.837H1109.81V385.276Z" fill="black"/>
<path d="M1106.67 385.276H1104.67V400.836H1106.67V385.276Z" fill="black"/>
<path d="M1111.67 385.276H1110.96V393.017L1112.95 396.727V387.447L1111.67 385.276Z" fill="black"/>
<path d="M1114.1 389.386V398.861L1115.16 400.836H1116.1V392.758L1114.1 389.386Z" fill="black"/>
<path d="M1119.24 385.276H1117.24V400.837H1119.24V385.276Z" fill="black"/>
<path d="M1052.8 390.958H1050.8V395.156H1052.8V390.958Z" fill="black"/>
<path d="M1059.08 385.276H1057.08V389.474H1059.08V385.276Z" fill="black"/>
<path d="M1052.8 385.276H1050.8V389.474H1052.8V385.276Z" fill="black"/>
<path d="M1055.94 385.276H1053.94V389.474H1055.94V385.276Z" fill="black"/>
<path d="M1070.66 385.276H1068.66V389.334H1070.66V385.276Z" fill="black"/>
<path d="M1075.33 385.522C1075.21 385.499 1075.08 385.481 1074.95 385.462V400.838H1076.95V386.018C1076.46 385.803 1075.93 385.633 1075.33 385.522Z" fill="black"/>
<path d="M1068.66 392.047V396.668H1069.77H1070.66V392.047H1068.66Z" fill="black"/>
<path d="M1096.34 389.223V385.358C1095.71 385.199 1095.04 385.084 1094.34 385.006V389.22H1096.34V389.223Z" fill="black"/>
<path d="M1097.49 385.725V400.389C1098.21 400.13 1098.88 399.818 1099.48 399.444V386.667C1098.88 386.296 1098.22 385.981 1097.49 385.722V385.725Z" fill="black"/>
<path d="M1084.93 386.669V399.435C1085.53 399.81 1086.19 400.125 1086.92 400.384V385.724C1086.19 385.984 1085.53 386.299 1084.93 386.673V386.669Z" fill="black"/>
<path d="M1093.2 389.223V384.909C1092.88 384.891 1092.55 384.876 1092.21 384.876C1091.87 384.876 1091.54 384.891 1091.21 384.909V389.223H1093.2Z" fill="black"/>
<path d="M1092.21 397.017H1091.21V401.2C1091.53 401.219 1091.87 401.234 1092.21 401.234C1092.55 401.234 1092.88 401.219 1093.2 401.2V397.017H1092.21Z" fill="black"/>
<path d="M1088.33 389.223H1090.06V385.01C1089.37 385.088 1088.7 385.202 1088.06 385.362V389.223H1088.32H1088.33Z" fill="black"/>
<path d="M1088.33 397.017H1088.07V400.748C1088.7 400.908 1089.37 401.023 1090.06 401.1V397.017H1088.33H1088.33Z" fill="black"/>
<path d="M1071.81 392.047V398.477L1073.8 400.637V392.047H1071.81Z" fill="black"/>
<path d="M1073.8 389.338V385.336C1073.47 385.31 1073.12 385.288 1072.77 385.28H1071.81V389.338H1073.8Z" fill="black"/>
</g>
<path d="M1030.69 400.428C1029.67 399.126 1028.79 397.11 1028.79 394.422C1028.79 391.748 1029.67 389.704 1030.69 388.402H1031.81C1030.81 390.026 1030.02 391.874 1030.02 394.408C1030.02 396.956 1030.81 398.818 1031.81 400.428H1030.69ZM1034.7 391.748V390.782C1034.24 391.524 1033.34 392.154 1032.35 392.196V390.964C1033.48 390.838 1034.6 389.886 1034.92 388.822H1035.93V398.622H1034.7V391.748ZM1038.48 388.402C1039.5 389.704 1040.38 391.72 1040.38 394.408C1040.38 397.082 1039.5 399.126 1038.48 400.428H1037.36C1038.37 398.804 1039.15 396.956 1039.15 394.422C1039.15 391.874 1038.37 390.012 1037.36 388.402H1038.48Z" fill="black"/>
<path d="M939.004 531.454C938.872 533.898 937.143 535.415 934.339 535.263C931.691 535.119 930.097 533.266 930.224 530.93C930.334 528.893 931.622 527.52 933.453 527.439L933.377 528.853C932.204 528.97 931.419 529.709 931.349 531.015C931.262 532.608 932.413 533.776 934.414 533.885C936.451 533.995 937.793 532.95 937.878 531.381C937.949 530.075 937.205 529.169 936.065 528.915L936.139 527.561C937.996 527.878 939.119 529.333 939.004 531.454ZM939.05 527.058L937.456 526.971L937.543 525.378L939.136 525.464L939.05 527.058ZM939.639 519.744C939.556 521.278 938.415 522.357 936.402 522.248C934.485 522.144 933.363 520.894 933.445 519.384C933.496 518.45 934.019 517.877 934.539 517.605C934.358 517.619 934.19 517.61 934.022 517.601L931.159 517.446L931.226 516.199L939.614 516.654L939.546 517.9L939.259 517.885C939.067 517.874 938.911 517.866 938.745 517.833C939.209 518.134 939.691 518.773 939.639 519.744ZM936.472 520.966C937.754 521.036 938.63 520.398 938.682 519.428C938.734 518.481 937.921 517.74 936.638 517.67C935.356 517.601 934.493 518.239 934.441 519.198C934.389 520.156 935.214 520.898 936.472 520.966ZM940.018 512.735C939.924 514.473 938.76 515.563 936.747 515.454C934.937 515.356 933.732 514.089 933.821 512.447C933.916 510.698 935.192 509.77 937.073 509.872L937.337 509.886L937.102 514.212C938.23 514.249 938.997 513.617 939.049 512.671C939.085 512 938.793 511.395 938.057 511.235L938.125 509.977C939.221 510.156 940.106 511.118 940.018 512.735ZM936.216 514.151L936.379 511.144C935.468 511.107 934.816 511.612 934.767 512.511C934.72 513.385 935.346 514.02 936.216 514.151ZM940.162 506.535L931.775 506.081L931.842 504.834L940.23 505.289L940.162 506.535ZM940.588 502.229C940.531 503.284 939.808 504.194 938.694 504.133C937.472 504.067 937.032 503.082 936.938 501.935L936.839 500.884C936.804 500.426 936.645 500.261 936.321 500.243C935.806 500.215 935.412 500.603 935.377 501.25C935.334 502.041 935.742 502.507 936.399 502.579L936.33 503.849C935.195 503.727 934.346 502.768 934.426 501.282C934.513 499.677 935.453 498.958 936.939 499.039L940.558 499.235L940.495 500.397L940.231 500.383C940.051 500.373 939.884 500.352 939.705 500.331C940.276 500.662 940.638 501.294 940.588 502.229ZM938.728 502.849C939.291 502.88 939.638 502.454 939.668 501.903C939.714 501.052 939.15 500.373 938.264 500.325L937.521 500.284C937.635 500.387 937.695 500.606 937.737 500.957L937.833 501.623C937.927 502.313 938.164 502.819 938.728 502.849ZM940.856 493.736L933.583 493.341L933.428 496.193L932.314 496.133L932.694 489.111L933.809 489.172L933.655 492.011L940.928 492.406L940.856 493.736ZM941.055 490.058L935.244 489.744L935.311 488.497L935.659 488.516C935.886 488.528 936.102 488.54 936.316 488.576C935.674 488.241 935.166 487.624 935.214 486.749C935.219 486.654 935.224 486.558 935.253 486.463L936.463 486.529C936.447 486.612 936.416 486.731 936.407 486.898C936.353 487.905 936.857 488.581 938.139 488.651L941.123 488.812L941.055 490.058ZM941.55 484.477C941.493 485.531 940.77 486.442 939.656 486.381C938.434 486.315 937.995 485.33 937.9 484.183L937.801 483.132C937.766 482.673 937.607 482.509 937.283 482.491C936.768 482.463 936.374 482.85 936.339 483.497C936.296 484.288 936.704 484.755 937.361 484.827L937.292 486.097C936.157 485.975 935.308 485.016 935.388 483.53C935.475 481.924 936.415 481.206 937.901 481.287L941.52 481.483L941.457 482.645L941.193 482.631C941.014 482.621 940.846 482.6 940.667 482.578C941.238 482.91 941.601 483.542 941.55 484.477ZM939.69 485.097C940.253 485.128 940.6 484.702 940.63 484.151C940.676 483.3 940.112 482.62 939.226 482.572L938.483 482.532C938.597 482.634 938.657 482.854 938.699 483.205L938.795 483.871C938.889 484.561 939.126 485.067 939.69 485.097ZM941.667 478.766L935.736 480.655L935.809 479.313L939.898 478.153C940.155 478.071 940.337 478.033 940.568 477.985C940.343 477.913 940.167 477.843 939.92 477.746L935.979 476.174L936.049 474.88L941.743 477.364L941.667 478.766ZM942.221 472.088C942.127 473.825 940.962 474.916 938.949 474.807C937.14 474.708 935.935 473.441 936.024 471.8C936.119 470.05 937.395 469.122 939.276 469.224L939.54 469.238L939.305 473.564C940.433 473.601 941.2 472.97 941.251 472.023C941.288 471.352 940.996 470.747 940.26 470.587L940.328 469.329C941.424 469.509 942.309 470.47 942.221 472.088ZM938.419 473.504L938.582 470.496C937.671 470.459 937.018 470.964 936.97 471.863C936.922 472.738 937.549 473.373 938.419 473.504ZM942.543 466.157C942.456 467.763 941.553 468.675 940.244 468.665L940.311 467.418C941.056 467.423 941.549 466.969 941.595 466.118C941.635 465.387 941.326 464.89 940.81 464.862C940.391 464.839 940.134 465.149 939.966 465.801L939.768 466.584C939.49 467.722 938.889 468.387 937.954 468.336C936.96 468.282 936.268 467.295 936.343 465.917C936.422 464.444 937.215 463.573 938.416 463.578L938.349 464.824C937.71 464.85 937.326 465.286 937.287 466.005C937.254 466.628 937.506 467.074 937.961 467.099C938.368 467.121 938.588 466.844 938.757 466.156L938.956 465.362C939.231 464.283 939.786 463.58 940.781 463.634C941.859 463.693 942.624 464.659 942.543 466.157ZM942.539 462.67L936.728 462.355L936.795 461.109L942.607 461.424L942.539 462.67ZM935.831 462.27L934.225 461.306L934.305 459.832L935.888 461.228L935.831 462.27ZM942.965 458.364C942.908 459.418 942.186 460.328 941.071 460.268C939.849 460.202 939.41 459.216 939.316 458.07L939.216 457.019C939.181 456.56 939.022 456.395 938.698 456.378C938.183 456.35 937.79 456.737 937.754 457.384C937.712 458.175 938.119 458.642 938.776 458.713L938.707 459.984C937.572 459.862 936.723 458.903 936.803 457.417C936.89 455.811 937.831 455.093 939.316 455.174L942.935 455.37L942.872 456.532L942.608 456.518C942.429 456.508 942.262 456.487 942.083 456.465C942.653 456.796 943.016 457.429 942.965 458.364ZM941.105 458.984C941.668 459.014 942.016 458.589 942.045 458.037C942.091 457.187 941.527 456.507 940.641 456.459L939.898 456.419C940.012 456.521 940.073 456.741 940.114 457.091L940.21 457.758C940.305 458.448 940.542 458.953 941.105 458.984Z" fill="#909090"/>
</g>
<defs>
<clipPath id="clip0_173_152">
<rect width="1235" height="665" fill="white"/>
</clipPath>
<clipPath id="clip1_173_152">
<rect width="97.3926" height="16.3572" fill="white" transform="translate(1044.52 384.876)"/>
</clipPath>
</defs>
</svg>
