<svg width="834" height="1032" viewBox="0 0 834 1032" fill="none" xmlns="http://www.w3.org/2000/svg">
<g clip-path="url(#clip0_152_668)">
<rect width="480.622" height="50.3879" transform="matrix(-0.0226339 -0.999744 0.99963 -0.0271915 370.128 887.013)" fill="#D9D9D9"/>
<rect width="245.96" height="50.405" transform="matrix(0.0576859 -0.998335 0.997599 0.0692581 435.056 883.228)" fill="#D9D9D9"/>
<rect x="376.023" y="254.207" width="207.228" height="50.3848" transform="rotate(-87.9052 376.023 254.207)" fill="#D9D9D9"/>
<path d="M569.065 464.886L739.53 466.081L765.976 586.773L792.422 707.465L567.376 705.887L569.065 464.886Z" fill="#D9D9D9"/>
<rect x="447.932" y="465.03" width="114.249" height="241.077" transform="rotate(0.400474 447.932 465.03)" fill="#D9D9D9"/>
<rect x="243.002" y="380.255" width="61.3165" height="27.8426" transform="rotate(-173.251 243.002 380.255)" fill="#D9D9D9"/>
<rect x="439.861" y="174.527" width="61.3165" height="27.8426" transform="rotate(-87.8391 439.861 174.527)" fill="#D9D9D9"/>
<rect x="324.527" y="663.419" width="61.3165" height="27.8426" transform="rotate(-88.0274 324.527 663.419)" fill="#D9D9D9"/>
<path d="M431.825 849.485C478.492 849.485 516.323 887.316 516.323 933.983C516.323 980.65 478.492 1018.48 431.825 1018.48C385.158 1018.48 347.327 980.65 347.327 933.983C347.327 887.316 385.158 849.485 431.825 849.485ZM431.699 894.552C409.991 894.552 392.393 912.149 392.393 933.857C392.393 955.565 409.991 973.163 431.699 973.163C453.407 973.163 471.005 955.565 471.005 933.857C471.005 912.149 453.407 894.552 431.699 894.552Z" fill="#D9D9D9"/>
<rect x="592.584" y="237.34" width="101.77" height="41.9801" transform="rotate(90 592.584 237.34)" fill="#D9D9D9"/>
<path d="M572.864 190.271L605.364 246.562H540.364L572.864 190.271Z" fill="#D9D9D9"/>
<circle cx="572.425" cy="274.348" r="9.62665" fill="#D9D9D9"/>
<path d="M-0.289898 257.226L329.426 295.035L323.537 345.074L-3.01397 306.693L-0.289898 257.226Z" fill="#D9D9D9"/>
<path d="M393.351 202.795C461.08 202.795 515.985 257.7 515.985 325.429C515.985 393.158 461.08 448.063 393.351 448.063C325.621 448.063 270.716 393.158 270.716 325.429C270.716 257.7 325.621 202.795 393.351 202.795ZM395.438 268.14C363.889 268.14 338.314 293.716 338.314 325.265C338.315 356.813 363.89 382.389 395.438 382.389C426.987 382.389 452.563 356.814 452.563 325.265C452.563 293.716 426.988 268.14 395.438 268.14Z" fill="#D9D9D9"/>
<path d="M478.898 177.479C477.438 175.619 476.178 172.739 476.178 168.899C476.178 165.079 477.438 162.159 478.898 160.299H480.498C479.058 162.619 477.938 165.259 477.938 168.879C477.938 172.519 479.058 175.179 480.498 177.479H478.898ZM483.522 174.899C483.882 170.099 485.582 165.859 488.782 162.499H481.182V160.899H490.442V162.619C487.682 165.679 485.582 170.159 485.402 174.899H483.522ZM492.776 160.299C494.236 162.159 495.496 165.039 495.496 168.879C495.496 172.699 494.236 175.619 492.776 177.479H491.176C492.616 175.159 493.736 172.519 493.736 168.899C493.736 165.259 492.616 162.599 491.176 160.299H492.776Z" fill="black"/>
<path d="M152.698 384.781C151.238 382.921 149.978 380.041 149.978 376.201C149.978 372.381 151.238 369.461 152.698 367.601H154.298C152.858 369.921 151.738 372.561 151.738 376.181C151.738 379.821 152.858 382.481 154.298 384.781H152.698ZM157.322 382.201C157.682 377.401 159.382 373.161 162.582 369.801H154.982V368.201H164.242V369.921C161.482 372.981 159.382 377.461 159.202 382.201H157.322ZM166.576 367.601C168.036 369.461 169.296 372.341 169.296 376.181C169.296 380.001 168.036 382.921 166.576 384.781H164.976C166.416 382.461 167.536 379.821 167.536 376.201C167.536 372.561 166.416 369.901 164.976 367.601H166.576Z" fill="black"/>
<path d="M299.108 659.68C297.648 657.82 296.388 654.94 296.388 651.1C296.388 647.28 297.648 644.36 299.108 642.5H300.708C299.268 644.82 298.148 647.46 298.148 651.08C298.148 654.72 299.268 657.38 300.708 659.68H299.108ZM303.732 657.1C304.092 652.3 305.792 648.06 308.992 644.7H301.392V643.1H310.652V644.82C307.892 647.88 305.792 652.36 305.612 657.1H303.732ZM312.986 642.5C314.446 644.36 315.706 647.24 315.706 651.08C315.706 654.9 314.446 657.82 312.986 659.68H311.386C312.826 657.36 313.946 654.72 313.946 651.1C313.946 647.46 312.826 644.8 311.386 642.5H312.986Z" fill="black"/>
<path d="M585.327 456.885C583.867 455.025 582.607 452.145 582.607 448.305C582.607 444.485 583.867 441.565 585.327 439.705H586.927C585.487 442.025 584.367 444.665 584.367 448.285C584.367 451.925 585.487 454.585 586.927 456.885H585.327ZM593.231 454.605C589.571 454.605 588.191 451.505 588.191 447.625C588.191 443.305 589.991 439.985 593.831 439.985C596.311 439.985 597.971 441.485 597.991 443.685H596.211C596.171 442.305 595.231 441.385 593.791 441.385C591.451 441.385 590.131 443.225 589.971 446.625C589.951 446.825 589.951 447.045 589.951 447.265C590.551 446.125 591.951 445.125 593.671 445.125C596.271 445.125 598.011 447.125 598.011 449.785C598.011 452.585 595.931 454.605 593.231 454.605ZM590.271 449.745C590.271 452.145 591.571 453.265 593.231 453.265C594.931 453.265 596.191 451.885 596.191 449.805C596.191 448.025 595.091 446.545 593.331 446.545C591.571 446.545 590.271 447.965 590.271 449.745ZM600.904 439.705C602.364 441.565 603.624 444.445 603.624 448.285C603.624 452.105 602.364 455.025 600.904 456.885H599.304C600.744 454.565 601.864 451.925 601.864 448.305C601.864 444.665 600.744 442.005 599.304 439.705H600.904Z" fill="black"/>
<path d="M602.252 339.715C600.792 337.855 599.532 334.975 599.532 331.135C599.532 327.315 600.792 324.395 602.252 322.535H603.852C602.412 324.855 601.292 327.495 601.292 331.115C601.292 334.755 602.412 337.415 603.852 339.715H602.252ZM609.675 337.435C606.795 337.435 604.995 335.795 604.995 333.395H606.795C606.795 334.975 607.835 336.015 609.615 336.015C611.635 336.015 612.815 334.655 612.815 332.575C612.815 330.595 611.735 329.215 609.855 329.215C608.375 329.215 607.215 330.255 606.895 331.075H605.215L606.235 323.135H613.855V324.735H607.555L607.095 328.275C607.055 328.555 607.015 328.995 606.975 329.315C607.675 328.395 608.915 327.795 610.275 327.795C612.855 327.795 614.635 329.835 614.635 332.455C614.635 335.375 612.675 337.435 609.675 337.435ZM617.302 322.535C618.762 324.395 620.022 327.275 620.022 331.115C620.022 334.935 618.762 337.855 617.302 339.715H615.702C617.142 337.395 618.262 334.755 618.262 331.135C618.262 327.495 617.142 324.835 615.702 322.535H617.302Z" fill="black"/>
<path d="M464.578 593.503C463.118 591.643 461.858 588.763 461.858 584.923C461.858 581.103 463.118 578.183 464.578 576.323H466.178C464.738 578.643 463.618 581.283 463.618 584.903C463.618 588.543 464.738 591.203 466.178 593.503H464.578ZM473.362 590.923V587.343H466.942V585.643L472.762 576.923H475.122V585.743H477.702V587.343H475.122V590.923H473.362ZM468.602 585.743H473.362V578.503L472.762 579.463L469.062 585.043C468.922 585.243 468.762 585.503 468.602 585.743ZM479.686 576.323C481.146 578.183 482.406 581.063 482.406 584.903C482.406 588.723 481.146 591.643 479.686 593.503H478.086C479.526 591.183 480.646 588.543 480.646 584.923C480.646 581.283 479.526 578.623 478.086 576.323H479.686Z" fill="black"/>
<path d="M584.695 678.403C583.235 676.543 581.975 673.663 581.975 669.823C581.975 666.003 583.235 663.083 584.695 661.223H586.295C584.855 663.543 583.735 666.183 583.735 669.803C583.735 673.443 584.855 676.103 586.295 678.403H584.695ZM592.259 676.123C589.279 676.123 587.439 674.383 587.439 671.783H589.219C589.219 673.443 590.299 674.703 592.259 674.703C594.099 674.703 595.399 673.663 595.399 671.923C595.399 670.203 594.019 669.283 592.319 669.283H591.499V667.743H592.339C593.819 667.743 595.039 666.883 595.039 665.263C595.039 663.783 593.979 662.943 592.399 662.943C590.519 662.943 589.499 663.983 589.459 665.743H587.659C587.719 663.223 589.419 661.503 592.419 661.503C594.959 661.503 596.859 663.023 596.859 665.183C596.859 666.623 595.999 667.883 594.319 668.443C596.239 668.963 597.219 670.263 597.219 671.983C597.219 674.423 595.159 676.123 592.259 676.123ZM600.058 661.223C601.518 663.083 602.778 665.963 602.778 669.803C602.778 673.623 601.518 676.543 600.058 678.403H598.458C599.898 676.083 601.018 673.443 601.018 669.823C601.018 666.183 599.898 663.523 598.458 661.223H600.058Z" fill="black"/>
<path d="M753.222 679.451C751.762 677.591 750.502 674.711 750.502 670.871C750.502 667.051 751.762 664.131 753.222 662.271H754.822C753.382 664.591 752.262 667.231 752.262 670.851C752.262 674.491 753.382 677.151 754.822 679.451H753.222ZM755.965 676.871C755.965 675.071 756.705 673.891 758.885 672.231L760.785 670.771C761.965 669.851 763.425 668.571 763.425 666.791C763.425 665.191 762.445 663.991 760.765 663.991C759.065 663.991 757.905 665.191 757.905 667.491V667.751H756.105V667.291C756.105 664.291 758.145 662.551 760.765 662.551C763.365 662.551 765.245 664.171 765.245 666.771C765.245 668.871 763.985 670.371 761.345 672.371L760.365 673.111C759.065 674.091 758.285 674.751 758.145 675.271H765.485V676.871H755.965ZM768.213 662.271C769.673 664.131 770.933 667.011 770.933 670.851C770.933 674.671 769.673 677.591 768.213 679.451H766.613C768.053 677.131 769.173 674.491 769.173 670.871C769.173 667.231 768.053 664.571 766.613 662.271H768.213Z" fill="black"/>
<path d="M133.941 265.373L139.629 254.709L141.697 254.926L145.064 266.54L143.091 266.333L142.231 263.026L137.362 262.515L135.819 265.57L133.941 265.373ZM138.074 261.093L141.829 261.487L140.749 257.368C140.646 256.971 140.568 256.641 140.479 256.262C140.329 256.616 140.151 256.935 139.985 257.288L138.074 261.093ZM147.432 266.789L145.314 258.764L147.096 258.951L148.367 264.474C148.459 264.821 148.498 265.066 148.545 265.377C148.657 265.083 148.761 264.853 148.908 264.53L151.265 259.388L152.984 259.568L149.294 266.984L147.432 266.789ZM152.223 267.291L152.445 265.175L154.561 265.397L154.339 267.513L152.223 267.291ZM161.922 268.566C159.886 268.352 158.524 266.762 158.805 264.088C159.072 261.542 160.812 260.132 162.817 260.343C164.058 260.473 164.786 261.209 165.113 261.919C165.107 261.677 165.13 261.454 165.153 261.231L165.552 257.428L167.207 257.602L166.039 268.74L164.384 268.567L164.424 268.185C164.451 267.93 164.472 267.724 164.527 267.504C164.095 268.102 163.211 268.701 161.922 268.566ZM160.507 264.267C160.329 265.97 161.119 267.179 162.408 267.314C163.665 267.446 164.706 266.413 164.885 264.71C165.064 263.007 164.272 261.814 162.999 261.681C161.726 261.547 160.683 262.596 160.507 264.267ZM171.23 269.542C168.923 269.3 167.549 267.676 167.829 265.003C168.081 262.6 169.849 261.08 172.029 261.309C174.353 261.553 175.503 263.314 175.241 265.813L175.204 266.163L169.46 265.56C169.335 267.059 170.124 268.123 171.381 268.255C172.272 268.349 173.097 268.001 173.36 267.031L175.031 267.206C174.718 268.653 173.378 269.768 171.23 269.542ZM169.599 264.384L173.593 264.803C173.704 263.592 173.075 262.69 171.882 262.564C170.72 262.442 169.833 263.234 169.599 264.384ZM176.236 269.81L177.405 258.671L179.06 258.845L177.891 269.984L176.236 269.81ZM183.236 270.544L184.404 259.406L188.907 259.878C191.04 260.102 192.765 261.135 192.513 263.538C192.258 265.973 190.359 266.594 188.226 266.37L185.489 266.083L185.002 270.73L183.236 270.544ZM185.645 264.603L188.382 264.89C189.893 265.049 190.586 264.43 190.699 263.348C190.813 262.266 190.28 261.518 188.752 261.358L186.015 261.071L185.645 264.603ZM195.473 272.085C193.802 271.91 192.816 270.729 193.026 268.724L193.54 263.823L195.195 263.996L194.711 268.611C194.578 269.884 194.989 270.716 196.087 270.831C197.201 270.948 197.99 270.178 198.136 268.777L198.6 264.354L200.255 264.527L199.446 272.245L197.807 272.073L197.849 271.675C197.872 271.452 197.913 271.215 197.966 271.012C197.503 271.751 196.634 272.207 195.473 272.085ZM204.634 273.047C202.327 272.804 200.953 271.18 201.233 268.507C201.485 266.104 203.254 264.584 205.434 264.813C207.757 265.057 208.907 266.818 208.645 269.317L208.609 269.667L202.864 269.064C202.739 270.563 203.528 271.627 204.785 271.759C205.676 271.853 206.501 271.505 206.764 270.535L208.435 270.71C208.122 272.158 206.782 273.272 204.634 273.047ZM203.004 267.888L206.998 268.307C207.109 267.096 206.479 266.194 205.286 266.068C204.124 265.947 203.237 266.738 203.004 267.888ZM209.64 273.314L210.45 265.597L212.105 265.77L212.056 266.232C212.025 266.534 211.995 266.82 211.933 267.104C212.422 266.27 213.277 265.636 214.439 265.758C214.566 265.771 214.694 265.784 214.817 265.83L214.649 267.437C214.539 267.409 214.383 267.361 214.161 267.337C212.824 267.197 211.89 267.823 211.711 269.526L211.295 273.488L209.64 273.314ZM218.192 274.34C216.792 274.193 215.909 273.409 216.089 271.69L216.52 267.585L214.913 267.416L215.053 266.079L216.66 266.248L216.94 263.575L218.595 263.748L218.315 266.422L220.065 266.605L219.925 267.942L218.175 267.758L217.767 271.641C217.677 272.5 218.019 272.922 218.767 273.001C218.958 273.021 219.151 273.025 219.361 273.015L219.222 274.335C218.977 274.374 218.59 274.382 218.192 274.34ZM223.758 275.053C221.482 274.814 220.058 273.056 220.321 270.541C220.58 268.075 222.361 266.589 224.621 266.826C226.896 267.064 228.33 268.888 228.071 271.354C227.807 273.869 226.033 275.291 223.758 275.053ZM222.008 270.718C221.828 272.437 222.556 273.623 223.893 273.764C225.229 273.904 226.204 272.896 226.384 271.177C226.568 269.427 225.804 268.269 224.484 268.131C223.179 267.994 222.192 268.968 222.008 270.718Z" fill="#909090"/>
<path d="M362.489 191.611L351.289 191.611L351.289 187.947C351.289 184.251 353.065 181.979 356.889 181.979C360.281 181.979 362.489 183.963 362.489 187.755L362.489 191.611ZM360.985 189.835L360.985 187.915C360.985 185.387 359.753 183.803 356.889 183.803C354.281 183.803 352.777 185.131 352.777 187.947L352.777 189.835L360.985 189.835ZM362.745 177.106C362.745 179.394 361.145 180.994 358.617 180.994C356.137 180.994 354.473 179.378 354.473 177.106C354.473 174.818 356.137 173.202 358.617 173.202C361.145 173.202 362.745 174.818 362.745 177.106ZM358.617 179.298C360.345 179.298 361.449 178.45 361.449 177.106C361.449 175.762 360.345 174.898 358.617 174.898C356.857 174.898 355.785 175.778 355.785 177.106C355.785 178.418 356.857 179.298 358.617 179.298ZM362.745 168.379C362.745 170.667 361.257 172.267 358.601 172.267C356.073 172.267 354.473 170.539 354.473 168.299C354.473 166.251 355.705 164.955 357.497 164.779L357.497 166.475C356.553 166.571 355.785 167.195 355.785 168.315C355.785 169.627 356.905 170.571 358.601 170.571C360.297 170.571 361.449 169.675 361.449 168.331C361.449 167.163 360.713 166.507 359.705 166.379L359.705 164.715C361.529 164.923 362.745 166.171 362.745 168.379ZM362.617 160.394C362.617 161.802 361.929 162.762 360.201 162.762L356.073 162.762L356.073 164.378L354.729 164.378L354.729 162.762L352.041 162.762L352.041 161.098L354.729 161.098L354.729 159.338L356.073 159.338L356.073 161.098L359.977 161.098C360.841 161.098 361.225 160.714 361.225 159.962C361.225 159.77 361.209 159.578 361.177 159.37L362.505 159.37C362.569 159.61 362.617 159.994 362.617 160.394ZM362.745 154.785C362.745 157.073 361.145 158.673 358.617 158.673C356.137 158.673 354.473 157.057 354.473 154.785C354.473 152.497 356.137 150.881 358.617 150.881C361.145 150.881 362.745 152.497 362.745 154.785ZM358.617 156.977C360.345 156.977 361.449 156.129 361.449 154.785C361.449 153.441 360.345 152.577 358.617 152.577C356.857 152.577 355.785 153.457 355.785 154.785C355.785 156.097 356.857 156.977 358.617 156.977ZM362.489 149.482L354.729 149.482L354.729 147.818L355.193 147.818C355.497 147.818 355.785 147.818 356.073 147.85C355.193 147.45 354.473 146.666 354.473 145.498C354.473 145.37 354.473 145.242 354.505 145.114L356.121 145.114C356.105 145.226 356.073 145.386 356.073 145.61C356.073 146.954 356.793 147.818 358.505 147.818L362.489 147.818L362.489 149.482ZM362.745 138.917C362.745 141.413 361.209 142.501 358.953 142.501L358.953 140.709C360.313 140.693 361.257 140.245 361.257 138.917C361.257 137.509 360.297 137.061 358.889 137.061L351.289 137.061L351.289 135.269L359.129 135.269C361.417 135.269 362.745 136.725 362.745 138.917ZM362.489 133.696L360.361 133.696L360.361 131.568L362.489 131.568L362.489 133.696ZM362.745 127.088C362.745 129.584 361.209 130.672 358.953 130.672L358.953 128.88C360.313 128.864 361.257 128.416 361.257 127.088C361.257 125.68 360.297 125.232 358.889 125.232L351.289 125.232L351.289 123.44L359.129 123.44C361.417 123.44 362.745 124.896 362.745 127.088ZM362.489 121.867L360.361 121.867L360.361 119.739L362.489 119.739L362.489 121.867ZM362.489 114.935L351.289 114.935L351.289 111.271C351.289 107.575 353.065 105.303 356.889 105.303C360.281 105.303 362.489 107.287 362.489 111.079L362.489 114.935ZM360.985 113.159L360.985 111.239C360.985 108.711 359.753 107.127 356.889 107.127C354.281 107.127 352.777 108.455 352.777 111.271L352.777 113.159L360.985 113.159ZM362.745 100.431C362.745 102.719 361.145 104.319 358.617 104.319C356.137 104.319 354.473 102.703 354.473 100.431C354.473 98.1427 356.137 96.5267 358.617 96.5267C361.145 96.5267 362.745 98.1427 362.745 100.431ZM351.321 102.639L351.321 100.575L353.529 99.4867L353.529 100.911L351.321 102.639ZM358.617 102.623C360.345 102.623 361.449 101.775 361.449 100.431C361.449 99.0867 360.345 98.2227 358.617 98.2227C356.857 98.2227 355.785 99.1027 355.785 100.431C355.785 101.743 356.857 102.623 358.617 102.623ZM362.489 95.1278L354.729 95.1278L354.729 93.4638L355.209 93.4638C355.401 93.4638 355.609 93.4638 355.801 93.4958C355.081 93.0638 354.473 92.3118 354.473 91.2398C354.473 90.2478 355.097 89.4158 355.961 89.0478C355.129 88.5678 354.473 87.6558 354.473 86.5358C354.473 84.9678 355.577 83.8318 357.593 83.8318L362.489 83.8318L362.489 85.4958L357.865 85.4958C356.569 85.4958 355.785 85.9438 355.785 86.9518C355.785 87.9918 356.713 88.6478 357.913 88.6478L362.489 88.6478L362.489 90.3118L357.897 90.3118C356.585 90.3118 355.785 90.7438 355.785 91.7518C355.785 92.7758 356.697 93.4638 357.945 93.4638L362.489 93.4638L362.489 95.1278ZM362.489 82.0572L354.729 82.0572L354.729 80.3932L362.489 80.3932L362.489 82.0572ZM353.401 82.1212L351.561 82.1212L351.561 80.3132L353.401 80.3132L353.401 82.1212ZM362.489 78.5335L354.729 78.5335L354.729 76.8695L355.161 76.8695C355.369 76.8695 355.561 76.8855 355.801 76.9015C355.081 76.4855 354.473 75.6535 354.473 74.5175C354.473 72.7575 355.641 71.7175 357.593 71.7175L362.489 71.7175L362.489 73.3815L357.817 73.3815C356.521 73.3815 355.785 73.8935 355.785 74.9655C355.785 76.1175 356.729 76.8695 357.881 76.8695L362.489 76.8695L362.489 78.5335ZM362.745 66.5552C362.745 68.8752 361.273 70.4112 358.585 70.4112C356.169 70.4112 354.473 68.8112 354.473 66.6192C354.473 64.2832 356.105 62.9552 358.617 62.9552L358.969 62.9552L358.969 68.7312C360.473 68.6992 361.449 67.8032 361.449 66.5392C361.449 65.6432 361.017 64.8592 360.025 64.6992L360.025 63.0192C361.497 63.1792 362.745 64.3952 362.745 66.5552ZM357.785 68.7152L357.785 64.6992C356.569 64.7152 355.737 65.4352 355.737 66.6352C355.737 67.8032 356.617 68.6032 357.785 68.7152Z" fill="#909090"/>
<rect width="184.769" height="36.0524" transform="translate(635.746 610.638)" fill="white"/>
<g clip-path="url(#clip1_152_668)">
<path d="M688.858 626.204H685.903V632.421H688.858V626.204Z" fill="black"/>
<path d="M701.352 617.791H698.392V640.833H701.352V617.791Z" fill="black"/>
<path d="M717.02 636.372V640.833H720.57L717.02 636.372Z" fill="black"/>
<path d="M741.08 635.175V641.222C742.105 641.107 743.092 640.937 744.035 640.701V635.17H741.08V635.175Z" fill="black"/>
<path d="M782.6 617.791H779.635V640.833H782.6V617.791Z" fill="black"/>
<path d="M670.25 617.791H667.295V640.833H670.25V617.791Z" fill="black"/>
<path d="M674.906 617.791H671.951V640.833H674.906V617.791Z" fill="black"/>
<path d="M684.204 626.204H681.249V632.421H684.204V626.204Z" fill="black"/>
<path d="M696.696 617.791H693.735V640.833H696.696V617.791Z" fill="black"/>
<path d="M717.935 630.516C718.436 629.918 718.822 629.238 719.109 628.459C719.39 627.685 719.533 626.801 719.533 625.808V625.775C719.533 624.228 719.263 622.938 718.723 621.907C718.298 621.095 717.72 620.431 717.02 619.882V631.4C717.35 631.131 717.664 630.84 717.935 630.511V630.516Z" fill="black"/>
<path d="M723.029 624.162C722.246 625.66 721.854 627.367 721.854 629.293V629.326C721.854 631.252 722.246 632.959 723.029 634.457C723.635 635.614 724.445 636.613 725.432 637.491V621.128C724.445 622.006 723.635 623.01 723.029 624.162Z" fill="black"/>
<path d="M750.382 621.117V637.508C751.374 636.624 752.195 635.62 752.796 634.457C753.574 632.959 753.959 631.252 753.959 629.326V629.293C753.959 627.367 753.568 625.661 752.796 624.163C752.195 622.999 751.374 621.995 750.382 621.112V621.117Z" fill="black"/>
<path d="M792.899 617.797H789.944V623.992H792.899V617.797Z" fill="black"/>
<path d="M788.248 617.797H785.293V623.992H788.248V617.797Z" fill="black"/>
<path d="M797.546 617.797H794.592V640.839H797.546V617.797Z" fill="black"/>
<path d="M802.198 617.797H799.243V640.839H802.198V617.797Z" fill="black"/>
<path d="M806.852 617.797H803.897V623.992H806.852V617.797Z" fill="black"/>
<path d="M811.507 617.785H808.541V623.981H811.507V617.785Z" fill="black"/>
<path d="M763.981 617.791H761.026V640.833H763.981V617.791Z" fill="black"/>
<path d="M759.329 617.791H756.374V640.833H759.329V617.791Z" fill="black"/>
<path d="M766.73 617.791H765.677V629.254L768.631 634.747V621.007L766.73 617.791Z" fill="black"/>
<path d="M770.333 623.876V637.907L771.904 640.832H773.288V628.87L770.333 623.876Z" fill="black"/>
<path d="M777.938 617.791H774.983V640.833H777.938V617.791Z" fill="black"/>
<path d="M679.556 626.204H676.602V632.421H679.556V626.204Z" fill="black"/>
<path d="M688.858 617.791H685.903V624.008H688.858V617.791Z" fill="black"/>
<path d="M679.556 617.791H676.602V624.008H679.556V617.791Z" fill="black"/>
<path d="M684.204 617.791H681.249V624.008H684.204V617.791Z" fill="black"/>
<path d="M706.01 617.791H703.05V623.8H706.01V617.791Z" fill="black"/>
<path d="M712.928 618.155C712.746 618.122 712.553 618.094 712.36 618.067V640.834H715.321V618.89C714.598 618.572 713.81 618.319 712.928 618.155Z" fill="black"/>
<path d="M703.05 627.817V634.66H704.681H706.004V627.817H703.05Z" fill="black"/>
<path d="M744.031 623.636V617.912C743.094 617.676 742.107 617.506 741.076 617.391V623.63H744.031V623.636Z" fill="black"/>
<path d="M745.729 618.456V640.169C746.804 639.785 747.791 639.324 748.684 638.77V619.849C747.797 619.301 746.81 618.834 745.729 618.45V618.456Z" fill="black"/>
<path d="M727.13 619.854V638.758C728.017 639.312 729.004 639.778 730.085 640.162V618.454C729.004 618.838 728.023 619.305 727.13 619.859V619.854Z" fill="black"/>
<path d="M739.384 623.635V617.248C738.905 617.22 738.42 617.198 737.918 617.198C737.416 617.198 736.92 617.22 736.43 617.248V623.635H739.384Z" fill="black"/>
<path d="M737.918 635.176H736.43V641.371C736.915 641.398 737.411 641.42 737.918 641.42C738.425 641.42 738.905 641.398 739.384 641.371V635.176H737.918Z" fill="black"/>
<path d="M732.167 623.636H734.73V617.396C733.705 617.512 732.718 617.682 731.775 617.918V623.636H732.161H732.167Z" fill="black"/>
<path d="M732.167 635.176H731.781V640.702C732.718 640.938 733.705 641.108 734.736 641.223V635.176H732.173H732.167Z" fill="black"/>
<path d="M707.702 627.817V637.338L710.662 640.537V627.817H707.702Z" fill="black"/>
<path d="M710.662 623.806V617.879C710.166 617.841 709.654 617.808 709.124 617.797H707.702V623.806H710.662Z" fill="black"/>
</g>
<path d="M646.69 639.401C645.23 637.541 643.97 634.661 643.97 630.821C643.97 627.001 645.23 624.081 646.69 622.221H648.29C646.85 624.541 645.73 627.181 645.73 630.801C645.73 634.441 646.85 637.101 648.29 639.401H646.69ZM652.414 627.001V625.621C651.754 626.681 650.474 627.581 649.054 627.641V625.881C650.674 625.701 652.274 624.341 652.734 622.821H654.174V636.821H652.414V627.001ZM657.814 622.221C659.274 624.081 660.534 626.961 660.534 630.801C660.534 634.621 659.274 637.541 657.814 639.401H656.214C657.654 637.081 658.774 634.441 658.774 630.821C658.774 627.181 657.654 624.521 656.214 622.221H657.814Z" fill="black"/>
<path d="M510.201 834.876C510.024 838.136 507.719 840.158 503.981 839.955C500.45 839.764 498.325 837.293 498.493 834.178C498.641 831.462 500.358 829.632 502.8 829.524L502.697 831.409C501.135 831.565 500.088 832.55 499.993 834.291C499.878 836.416 501.412 837.973 504.08 838.118C506.796 838.265 508.586 836.872 508.7 834.779C508.794 833.037 507.802 831.83 506.282 831.491L506.38 829.686C508.857 830.109 510.354 832.048 510.201 834.876ZM510.262 829.015L508.137 828.9L508.252 826.775L510.377 826.89L510.262 829.015ZM511.047 819.263C510.936 821.308 509.416 822.748 506.732 822.603C504.176 822.464 502.68 820.797 502.789 818.784C502.856 817.537 503.555 816.774 504.247 816.411C504.006 816.43 503.782 816.418 503.559 816.406L499.74 816.199L499.83 814.537L511.014 815.143L510.924 816.805L510.54 816.784C510.285 816.77 510.077 816.759 509.855 816.715C510.474 817.117 511.117 817.969 511.047 819.263ZM506.824 820.893C508.534 820.986 509.702 820.136 509.772 818.842C509.84 817.579 508.756 816.591 507.047 816.499C505.337 816.406 504.185 817.257 504.116 818.535C504.047 819.813 505.147 820.802 506.824 820.893ZM511.553 809.918C511.428 812.235 509.875 813.689 507.191 813.544C504.778 813.413 503.171 811.723 503.29 809.535C503.416 807.202 505.118 805.964 507.626 806.1L507.978 806.119L507.665 811.887C509.169 811.936 510.192 811.094 510.26 809.832C510.309 808.938 509.92 808.131 508.938 807.918L509.029 806.24C510.49 806.48 511.67 807.761 511.553 809.918ZM506.484 811.807L506.701 807.797C505.486 807.747 504.616 808.421 504.551 809.619C504.488 810.785 505.323 811.632 506.484 811.807ZM511.745 801.652L500.561 801.046L500.651 799.384L511.835 799.99L511.745 801.652ZM512.312 795.91C512.236 797.316 511.273 798.53 509.787 798.449C508.158 798.361 507.572 797.047 507.447 795.518L507.314 794.117C507.267 793.506 507.055 793.286 506.623 793.262C505.936 793.225 505.412 793.742 505.365 794.604C505.308 795.659 505.851 796.281 506.727 796.377L506.635 798.07C505.122 797.908 503.989 796.629 504.097 794.648C504.213 792.507 505.466 791.549 507.447 791.657L512.272 791.918L512.188 793.468L511.837 793.449C511.597 793.436 511.374 793.408 511.136 793.379C511.897 793.821 512.38 794.664 512.312 795.91ZM509.832 796.737C510.583 796.778 511.046 796.21 511.086 795.475C511.148 794.341 510.396 793.435 509.213 793.371L508.223 793.317C508.376 793.454 508.456 793.746 508.511 794.214L508.639 795.102C508.765 796.022 509.081 796.697 509.832 796.737ZM512.67 784.586L502.972 784.06L502.766 787.862L501.28 787.782L501.788 778.42L503.273 778.5L503.068 782.287L512.766 782.812L512.67 784.586ZM512.935 779.683L505.187 779.263L505.277 777.601L505.74 777.626C506.044 777.643 506.331 777.658 506.617 777.706C505.76 777.259 505.084 776.437 505.147 775.271C505.154 775.143 505.161 775.015 505.2 774.889L506.813 774.976C506.791 775.087 506.751 775.245 506.738 775.469C506.666 776.811 507.338 777.713 509.047 777.806L513.026 778.021L512.935 779.683ZM513.595 772.241C513.519 773.647 512.556 774.86 511.07 774.78C509.44 774.691 508.855 773.378 508.729 771.849L508.597 770.447C508.55 769.836 508.337 769.616 507.906 769.593C507.219 769.556 506.694 770.072 506.648 770.935C506.591 771.989 507.134 772.611 508.01 772.707L507.918 774.401C506.405 774.238 505.272 772.959 505.379 770.978C505.495 768.837 506.749 767.88 508.73 767.987L513.555 768.249L513.471 769.798L513.12 769.779C512.88 769.766 512.657 769.738 512.418 769.709C513.18 770.151 513.663 770.994 513.595 772.241ZM511.115 773.068C511.866 773.108 512.329 772.541 512.369 771.806C512.43 770.671 511.678 769.765 510.496 769.701L509.506 769.647C509.658 769.784 509.739 770.077 509.793 770.544L509.922 771.433C510.048 772.353 510.364 773.027 511.115 773.068ZM513.751 764.626L505.844 767.145L505.941 765.356L511.392 763.809C511.735 763.699 511.978 763.648 512.286 763.585C511.986 763.488 511.751 763.396 511.422 763.266L506.167 761.17L506.261 759.445L513.853 762.756L513.751 764.626ZM514.49 755.722C514.365 758.038 512.812 759.492 510.128 759.347C507.715 759.216 506.108 757.527 506.227 755.338C506.353 753.005 508.055 751.768 510.563 751.903L510.915 751.923L510.602 757.69C512.106 757.739 513.129 756.898 513.197 755.635C513.246 754.741 512.857 753.935 511.875 753.721L511.966 752.044C513.427 752.283 514.607 753.565 514.49 755.722ZM509.421 757.61L509.638 753.6C508.423 753.55 507.553 754.224 507.488 755.422C507.425 756.589 508.261 757.435 509.421 757.61ZM514.919 747.814C514.803 749.955 513.599 751.172 511.854 751.157L511.944 749.496C512.937 749.502 513.594 748.896 513.656 747.762C513.709 746.787 513.296 746.124 512.609 746.087C512.05 746.057 511.707 746.471 511.484 747.34L511.219 748.383C510.848 749.901 510.047 750.787 508.801 750.72C507.475 750.648 506.553 749.332 506.652 747.495C506.759 745.53 507.815 744.369 509.417 744.376L509.327 746.037C508.476 746.071 507.964 746.652 507.912 747.611C507.867 748.442 508.203 749.037 508.81 749.07C509.353 749.099 509.646 748.73 509.872 747.813L510.137 746.754C510.504 745.316 511.243 744.379 512.57 744.45C514.007 744.528 515.027 745.817 514.919 747.814ZM514.915 743.164L507.166 742.744L507.256 741.083L515.005 741.503L514.915 743.164ZM505.97 742.632L503.829 741.346L503.935 739.381L506.046 741.242L505.97 742.632ZM515.482 737.423C515.406 738.829 514.443 740.043 512.957 739.962C511.327 739.874 510.742 738.56 510.616 737.031L510.484 735.63C510.437 735.018 510.224 734.799 509.793 734.775C509.106 734.738 508.581 735.254 508.535 736.117C508.477 737.172 509.021 737.794 509.897 737.889L509.805 739.583C508.291 739.421 507.159 738.142 507.266 736.16C507.382 734.02 508.636 733.062 510.617 733.169L515.442 733.431L515.358 734.981L515.007 734.962C514.767 734.949 514.544 734.921 514.305 734.892C515.067 735.333 515.55 736.177 515.482 737.423ZM513.002 738.25C513.753 738.291 514.216 737.723 514.256 736.988C514.317 735.854 513.565 734.948 512.383 734.884L511.392 734.83C511.545 734.966 511.626 735.259 511.68 735.727L511.808 736.615C511.935 737.535 512.251 738.209 513.002 738.25Z" fill="#909090"/>
</g>
<defs>
<clipPath id="clip0_152_668">
<rect width="834" height="1032" fill="white"/>
</clipPath>
<clipPath id="clip1_152_668">
<rect width="144.217" height="24.2214" fill="white" transform="translate(667.295 617.198)"/>
</clipPath>
</defs>
</svg>
