<svg width="1250" height="809" viewBox="0 0 1250 809" fill="none" xmlns="http://www.w3.org/2000/svg">
<g clip-path="url(#clip0_173_77)">
<rect width="376.767" height="39.4998" transform="matrix(-0.0226339 -0.999744 0.99963 -0.0271915 861.147 695.342)" fill="#D9D9D9"/>
<rect width="192.812" height="39.5133" transform="matrix(0.0576859 -0.998335 0.997599 0.0692581 912.045 692.375)" fill="#D9D9D9"/>
<rect x="865.769" y="199.277" width="162.449" height="39.4974" transform="rotate(-87.9052 865.769 199.277)" fill="#D9D9D9"/>
<path d="M1017.1 364.431L1150.73 365.368L1171.46 459.98L1192.19 554.592L1015.77 553.356L1017.1 364.431Z" fill="#D9D9D9"/>
<rect x="922.139" y="364.544" width="89.5618" height="188.984" transform="rotate(0.400474 922.139 364.544)" fill="#D9D9D9"/>
<rect x="761.492" y="298.087" width="48.0669" height="21.8262" transform="rotate(-173.251 761.492 298.087)" fill="#D9D9D9"/>
<rect x="915.812" y="136.814" width="48.0669" height="21.8262" transform="rotate(-87.8391 915.812 136.814)" fill="#D9D9D9"/>
<rect x="825.4" y="520.064" width="48.0669" height="21.8262" transform="rotate(-88.0274 825.4 520.064)" fill="#D9D9D9"/>
<path d="M909.513 665.924C946.095 665.924 975.752 695.58 975.752 732.163C975.752 768.746 946.096 798.402 909.513 798.402C872.93 798.402 843.273 768.746 843.273 732.163C843.274 695.58 872.93 665.924 909.513 665.924ZM909.414 701.252C892.397 701.252 878.602 715.047 878.602 732.064C878.602 749.082 892.397 762.877 909.414 762.877C926.431 762.877 940.226 749.081 940.227 732.064C940.227 715.047 926.431 701.252 909.414 701.252Z" fill="#D9D9D9"/>
<rect x="1035.53" y="186.054" width="79.779" height="32.9088" transform="rotate(90 1035.53 186.054)" fill="#D9D9D9"/>
<path d="M1020.07 149.156L1045.55 193.284H994.598L1020.07 149.156Z" fill="#D9D9D9"/>
<circle cx="1019.73" cy="215.066" r="7.54647" fill="#D9D9D9"/>
<path d="M-32.3139 130.673L829.241 231.282L824.625 270.509L-28.8597 170.109L-32.3139 130.673Z" fill="#D9D9D9"/>
<path d="M879.352 158.974C932.446 158.974 975.487 202.015 975.487 255.109C975.487 308.203 932.446 351.244 879.352 351.244C826.258 351.243 783.217 308.203 783.217 255.109C783.217 202.015 826.258 158.974 879.352 158.974ZM880.988 210.199C856.257 210.199 836.208 230.248 836.208 254.98C836.208 279.711 856.257 299.76 880.988 299.76C905.72 299.76 925.769 279.712 925.77 254.98C925.77 230.248 905.72 210.199 880.988 210.199Z" fill="#D9D9D9"/>
<path d="M946.109 138.233C945.087 136.931 944.205 134.915 944.205 132.227C944.205 129.553 945.087 127.509 946.109 126.207H947.229C946.221 127.831 945.437 129.679 945.437 132.213C945.437 134.761 946.221 136.623 947.229 138.233H946.109ZM949.345 136.427C949.597 133.067 950.787 130.099 953.027 127.747H947.707V126.627H954.189V127.831C952.257 129.973 950.787 133.109 950.661 136.427H949.345ZM955.823 126.207C956.845 127.509 957.727 129.525 957.727 132.213C957.727 134.887 956.845 136.931 955.823 138.233H954.703C955.711 136.609 956.495 134.761 956.495 132.227C956.495 129.679 955.711 127.817 954.703 126.207H955.823Z" fill="black"/>
<path d="M690.395 300.741C689.373 299.439 688.491 297.423 688.491 294.735C688.491 292.061 689.373 290.017 690.395 288.715H691.515C690.507 290.339 689.723 292.187 689.723 294.721C689.723 297.269 690.507 299.131 691.515 300.741H690.395ZM693.632 298.935C693.884 295.575 695.074 292.607 697.314 290.255H691.994V289.135H698.476V290.339C696.544 292.481 695.074 295.617 694.948 298.935H693.632ZM700.11 288.715C701.132 290.017 702.014 292.033 702.014 294.721C702.014 297.395 701.132 299.439 700.11 300.741H698.99C699.998 299.117 700.782 297.269 700.782 294.735C700.782 292.187 699.998 290.325 698.99 288.715H700.11Z" fill="black"/>
<path d="M805.168 516.238C804.146 514.936 803.264 512.92 803.264 510.232C803.264 507.558 804.146 505.514 805.168 504.212H806.288C805.28 505.836 804.496 507.684 804.496 510.218C804.496 512.766 805.28 514.628 806.288 516.238H805.168ZM808.405 514.432C808.657 511.072 809.847 508.104 812.087 505.752H806.767V504.632H813.249V505.836C811.317 507.978 809.847 511.114 809.721 514.432H808.405ZM814.883 504.212C815.905 505.514 816.787 507.53 816.787 510.218C816.787 512.892 815.905 514.936 814.883 516.238H813.763C814.771 514.614 815.555 512.766 815.555 510.232C815.555 507.684 814.771 505.822 813.763 504.212H814.883Z" fill="black"/>
<path d="M1029.54 357.264C1028.52 355.962 1027.64 353.946 1027.64 351.258C1027.64 348.584 1028.52 346.54 1029.54 345.238H1030.66C1029.65 346.862 1028.87 348.71 1028.87 351.244C1028.87 353.792 1029.65 355.654 1030.66 357.264H1029.54ZM1035.07 355.668C1032.51 355.668 1031.54 353.498 1031.54 350.782C1031.54 347.758 1032.8 345.434 1035.49 345.434C1037.23 345.434 1038.39 346.484 1038.4 348.024H1037.16C1037.13 347.058 1036.47 346.414 1035.46 346.414C1033.83 346.414 1032.9 347.702 1032.79 350.082C1032.78 350.222 1032.78 350.376 1032.78 350.53C1033.2 349.732 1034.18 349.032 1035.38 349.032C1037.2 349.032 1038.42 350.432 1038.42 352.294C1038.42 354.254 1036.96 355.668 1035.07 355.668ZM1033 352.266C1033 353.946 1033.91 354.73 1035.07 354.73C1036.26 354.73 1037.14 353.764 1037.14 352.308C1037.14 351.062 1036.37 350.026 1035.14 350.026C1033.91 350.026 1033 351.02 1033 352.266ZM1040.44 345.238C1041.47 346.54 1042.35 348.556 1042.35 351.244C1042.35 353.918 1041.47 355.962 1040.44 357.264H1039.32C1040.33 355.64 1041.12 353.792 1041.12 351.258C1041.12 348.71 1040.33 346.848 1039.32 345.238H1040.44Z" fill="black"/>
<path d="M1042.81 265.412C1041.79 264.11 1040.9 262.094 1040.9 259.406C1040.9 256.732 1041.79 254.688 1042.81 253.386H1043.93C1042.92 255.01 1042.14 256.858 1042.14 259.392C1042.14 261.94 1042.92 263.802 1043.93 265.412H1042.81ZM1048 263.816C1045.99 263.816 1044.73 262.668 1044.73 260.988H1045.99C1045.99 262.094 1046.72 262.822 1047.96 262.822C1049.38 262.822 1050.2 261.87 1050.2 260.414C1050.2 259.028 1049.45 258.062 1048.13 258.062C1047.09 258.062 1046.28 258.79 1046.06 259.364H1044.88L1045.6 253.806H1050.93V254.926H1046.52L1046.2 257.404C1046.17 257.6 1046.14 257.908 1046.11 258.132C1046.6 257.488 1047.47 257.068 1048.42 257.068C1050.23 257.068 1051.48 258.496 1051.48 260.33C1051.48 262.374 1050.1 263.816 1048 263.816ZM1053.34 253.386C1054.36 254.688 1055.25 256.704 1055.25 259.392C1055.25 262.066 1054.36 264.11 1053.34 265.412H1052.22C1053.23 263.788 1054.01 261.94 1054.01 259.406C1054.01 256.858 1053.23 254.996 1052.22 253.386H1053.34Z" fill="black"/>
<path d="M934.882 464.361C933.86 463.059 932.978 461.043 932.978 458.355C932.978 455.681 933.86 453.637 934.882 452.335H936.002C934.994 453.959 934.21 455.807 934.21 458.341C934.21 460.889 934.994 462.751 936.002 464.361H934.882ZM941.031 462.555V460.049H936.537V458.859L940.611 452.755H942.263V458.929H944.069V460.049H942.263V462.555H941.031ZM937.699 458.929H941.031V453.861L940.611 454.533L938.021 458.439C937.923 458.579 937.811 458.761 937.699 458.929ZM945.458 452.335C946.48 453.637 947.362 455.653 947.362 458.341C947.362 461.015 946.48 463.059 945.458 464.361H944.338C945.346 462.737 946.13 460.889 946.13 458.355C946.13 455.807 945.346 453.945 944.338 452.335H945.458Z" fill="black"/>
<path d="M1029.04 531.806C1028.02 530.504 1027.14 528.488 1027.14 525.8C1027.14 523.126 1028.02 521.082 1029.04 519.78H1030.16C1029.16 521.404 1028.37 523.252 1028.37 525.786C1028.37 528.334 1029.16 530.196 1030.16 531.806H1029.04ZM1034.34 530.21C1032.25 530.21 1030.96 528.992 1030.96 527.172H1032.21C1032.21 528.334 1032.97 529.216 1034.34 529.216C1035.63 529.216 1036.54 528.488 1036.54 527.27C1036.54 526.066 1035.57 525.422 1034.38 525.422H1033.81V524.344H1034.39C1035.43 524.344 1036.28 523.742 1036.28 522.608C1036.28 521.572 1035.54 520.984 1034.44 520.984C1033.12 520.984 1032.41 521.712 1032.38 522.944H1031.12C1031.16 521.18 1032.35 519.976 1034.45 519.976C1036.23 519.976 1037.56 521.04 1037.56 522.552C1037.56 523.56 1036.96 524.442 1035.78 524.834C1037.12 525.198 1037.81 526.108 1037.81 527.312C1037.81 529.02 1036.37 530.21 1034.34 530.21ZM1039.8 519.78C1040.82 521.082 1041.7 523.098 1041.7 525.786C1041.7 528.46 1040.82 530.504 1039.8 531.806H1038.68C1039.69 530.182 1040.47 528.334 1040.47 525.8C1040.47 523.252 1039.69 521.39 1038.68 519.78H1039.8Z" fill="black"/>
<path d="M1161.15 531.806C1160.13 530.504 1159.25 528.488 1159.25 525.8C1159.25 523.126 1160.13 521.082 1161.15 519.78H1162.27C1161.27 521.404 1160.48 523.252 1160.48 525.786C1160.48 528.334 1161.27 530.196 1162.27 531.806H1161.15ZM1163.08 530C1163.08 528.74 1163.59 527.914 1165.12 526.752L1166.45 525.73C1167.28 525.086 1168.3 524.19 1168.3 522.944C1168.3 521.824 1167.61 520.984 1166.44 520.984C1165.25 520.984 1164.43 521.824 1164.43 523.434V523.616H1163.17V523.294C1163.17 521.194 1164.6 519.976 1166.44 519.976C1168.26 519.976 1169.57 521.11 1169.57 522.93C1169.57 524.4 1168.69 525.45 1166.84 526.85L1166.16 527.368C1165.25 528.054 1164.7 528.516 1164.6 528.88H1169.74V530H1163.08ZM1171.65 519.78C1172.67 521.082 1173.55 523.098 1173.55 525.786C1173.55 528.46 1172.67 530.504 1171.65 531.806H1170.53C1171.54 530.182 1172.32 528.334 1172.32 525.8C1172.32 523.252 1171.54 521.39 1170.53 519.78H1171.65Z" fill="black"/>
<path d="M675.977 208.24L680.435 199.88L682.057 200.05L684.696 209.155L683.149 208.993L682.475 206.4L678.658 205.999L677.449 208.395L675.977 208.24ZM679.217 204.885L682.161 205.194L681.314 201.965C681.233 201.653 681.172 201.395 681.102 201.097C680.985 201.375 680.845 201.625 680.715 201.902L679.217 204.885ZM686.553 209.35L684.892 203.059L686.289 203.205L687.285 207.535C687.358 207.807 687.388 207.999 687.425 208.243C687.513 208.013 687.595 207.832 687.709 207.579L689.557 203.548L690.905 203.689L688.012 209.503L686.553 209.35ZM690.308 209.743L690.482 208.084L692.141 208.258L691.967 209.917L690.308 209.743ZM697.912 210.743C696.315 210.575 695.248 209.328 695.468 207.233C695.677 205.237 697.042 204.131 698.613 204.296C699.586 204.398 700.156 204.975 700.413 205.532C700.408 205.342 700.426 205.168 700.445 204.993L700.757 202.012L702.055 202.148L701.139 210.88L699.841 210.743L699.873 210.444C699.894 210.245 699.911 210.082 699.954 209.91C699.615 210.379 698.922 210.849 697.912 210.743ZM696.802 207.373C696.662 208.707 697.282 209.655 698.292 209.761C699.278 209.865 700.094 209.055 700.234 207.72C700.374 206.385 699.753 205.45 698.755 205.345C697.758 205.241 696.94 206.063 696.802 207.373ZM705.208 211.508C703.399 211.319 702.322 210.045 702.542 207.95C702.74 206.066 704.126 204.875 705.835 205.054C707.656 205.245 708.558 206.626 708.352 208.584L708.324 208.859L703.821 208.386C703.722 209.562 704.341 210.396 705.327 210.499C706.025 210.572 706.672 210.3 706.878 209.539L708.187 209.677C707.942 210.811 706.892 211.685 705.208 211.508ZM703.93 207.465L707.061 207.793C707.148 206.844 706.655 206.136 705.719 206.038C704.808 205.942 704.113 206.563 703.93 207.465ZM709.133 211.718L710.049 202.986L711.346 203.122L710.43 211.854L709.133 211.718ZM714.62 212.294L715.536 203.562L719.066 203.932C720.737 204.107 722.09 204.918 721.892 206.801C721.692 208.71 720.203 209.197 718.532 209.022L716.386 208.796L716.004 212.439L714.62 212.294ZM716.508 207.636L718.654 207.861C719.839 207.986 720.381 207.5 720.47 206.652C720.559 205.804 720.142 205.218 718.944 205.092L716.798 204.867L716.508 207.636ZM724.212 213.502C722.903 213.364 722.13 212.438 722.294 210.867L722.697 207.025L723.995 207.161L723.615 210.778C723.511 211.776 723.833 212.428 724.694 212.518C725.567 212.61 726.185 212.006 726.301 210.908L726.664 207.441L727.962 207.577L727.327 213.627L726.042 213.492L726.075 213.18C726.093 213.005 726.125 212.82 726.167 212.66C725.804 213.24 725.123 213.597 724.212 213.502ZM731.394 214.255C729.585 214.065 728.508 212.792 728.728 210.696C728.926 208.813 730.312 207.621 732.021 207.801C733.842 207.992 734.744 209.373 734.539 211.331L734.51 211.606L730.007 211.133C729.909 212.308 730.527 213.143 731.513 213.246C732.211 213.319 732.858 213.047 733.064 212.286L734.373 212.424C734.128 213.558 733.078 214.432 731.394 214.255ZM730.116 210.211L733.247 210.54C733.334 209.591 732.841 208.883 731.905 208.785C730.994 208.689 730.299 209.31 730.116 210.211ZM735.319 214.465L735.953 208.415L737.251 208.551L737.213 208.913C737.188 209.15 737.164 209.374 737.116 209.596C737.5 208.943 738.17 208.446 739.08 208.541C739.18 208.552 739.28 208.562 739.377 208.598L739.245 209.858C739.159 209.836 739.037 209.798 738.862 209.78C737.814 209.67 737.082 210.16 736.942 211.495L736.616 214.601L735.319 214.465ZM742.022 215.269C740.925 215.154 740.233 214.539 740.374 213.192L740.711 209.974L739.452 209.841L739.562 208.794L740.821 208.926L741.041 206.83L742.339 206.966L742.119 209.062L743.491 209.206L743.381 210.254L742.009 210.11L741.69 213.153C741.619 213.827 741.887 214.158 742.473 214.219C742.623 214.235 742.774 214.238 742.939 214.23L742.83 215.266C742.638 215.296 742.334 215.302 742.022 215.269ZM746.385 215.828C744.601 215.641 743.485 214.262 743.692 212.291C743.894 210.358 745.29 209.193 747.062 209.379C748.846 209.566 749.969 210.995 749.767 212.929C749.56 214.9 748.169 216.015 746.385 215.828ZM745.014 212.43C744.873 213.777 745.443 214.707 746.491 214.817C747.539 214.927 748.303 214.137 748.444 212.79C748.588 211.418 747.99 210.51 746.955 210.401C745.932 210.294 745.158 211.058 745.014 212.43Z" fill="#909090"/>
<path d="M855.372 150.206L846.592 150.206L846.592 147.334C846.592 144.437 847.984 142.656 850.982 142.656C853.641 142.656 855.372 144.211 855.372 147.183L855.372 150.206ZM854.193 148.814L854.193 147.309C854.193 145.327 853.227 144.085 850.982 144.085C848.938 144.085 847.759 145.126 847.759 147.334L847.759 148.814L854.193 148.814ZM855.573 138.836C855.573 140.63 854.318 141.884 852.337 141.884C850.393 141.884 849.088 140.617 849.088 138.836C849.088 137.042 850.393 135.776 852.337 135.776C854.318 135.776 855.573 137.042 855.573 138.836ZM852.337 140.554C853.691 140.554 854.557 139.89 854.557 138.836C854.557 137.783 853.691 137.105 852.337 137.105C850.957 137.105 850.117 137.795 850.117 138.836C850.117 139.865 850.957 140.554 852.337 140.554ZM855.573 131.995C855.573 133.789 854.406 135.043 852.324 135.043C850.342 135.043 849.088 133.688 849.088 131.932C849.088 130.327 850.054 129.311 851.459 129.173L851.459 130.502C850.719 130.578 850.117 131.067 850.117 131.945C850.117 132.973 850.995 133.713 852.324 133.713C853.654 133.713 854.557 133.011 854.557 131.957C854.557 131.042 853.98 130.527 853.19 130.427L853.19 129.123C854.62 129.286 855.573 130.264 855.573 131.995ZM855.472 125.735C855.472 126.839 854.933 127.592 853.578 127.592L850.342 127.592L850.342 128.859L849.289 128.859L849.289 127.592L847.182 127.592L847.182 126.287L849.289 126.287L849.289 124.908L850.342 124.908L850.342 126.287L853.403 126.287C854.08 126.287 854.381 125.986 854.381 125.397C854.381 125.246 854.369 125.096 854.344 124.933L855.385 124.933C855.435 125.121 855.472 125.422 855.472 125.735ZM855.573 121.338C855.573 123.132 854.318 124.386 852.337 124.386C850.393 124.386 849.088 123.119 849.088 121.338C849.088 119.545 850.393 118.278 852.337 118.278C854.318 118.278 855.573 119.545 855.573 121.338ZM852.337 123.056C853.691 123.056 854.557 122.392 854.557 121.338C854.557 120.285 853.691 119.607 852.337 119.607C850.957 119.607 850.117 120.297 850.117 121.338C850.117 122.367 850.957 123.056 852.337 123.056ZM855.372 117.181L849.289 117.181L849.289 115.877L849.653 115.877C849.891 115.877 850.117 115.877 850.342 115.902C849.653 115.588 849.088 114.974 849.088 114.058C849.088 113.958 849.088 113.857 849.113 113.757L850.38 113.757C850.368 113.845 850.342 113.97 850.342 114.146C850.342 115.199 850.907 115.877 852.249 115.877L855.372 115.877L855.372 117.181ZM855.573 108.899C855.573 110.855 854.369 111.708 852.6 111.708L852.6 110.303C853.666 110.291 854.406 109.94 854.406 108.899C854.406 107.795 853.654 107.444 852.55 107.444L846.592 107.444L846.592 106.039L852.738 106.039C854.532 106.039 855.573 107.18 855.573 108.899ZM855.372 104.806L853.704 104.806L853.704 103.138L855.372 103.138L855.372 104.806ZM855.573 99.626C855.573 101.583 854.369 102.436 852.6 102.436L852.6 101.031C853.666 101.018 854.406 100.667 854.406 99.626C854.406 98.5222 853.654 98.171 852.55 98.171L846.592 98.171L846.592 96.7662L852.738 96.7662C854.532 96.7662 855.573 97.9076 855.573 99.626ZM855.372 95.533L853.704 95.533L853.704 93.8649L855.372 93.8649L855.372 95.533ZM855.372 90.099L846.592 90.099L846.592 87.2268C846.592 84.3294 847.984 82.5484 850.982 82.5484C853.641 82.5484 855.372 84.1037 855.372 87.0763L855.372 90.099ZM854.193 88.7068L854.193 87.2017C854.193 85.22 853.227 83.9782 850.982 83.9782C848.938 83.9782 847.759 85.0193 847.759 87.2268L847.759 88.7068L854.193 88.7068ZM855.573 78.7289C855.573 80.5225 854.318 81.7768 852.337 81.7768C850.393 81.7768 849.088 80.51 849.088 78.7289C849.088 76.9353 850.393 75.6685 852.337 75.6685C854.318 75.6685 855.573 76.9353 855.573 78.7289ZM846.617 80.4598L846.617 78.8418L848.348 77.9889L848.348 79.1052L846.617 80.4598ZM852.337 80.4473C853.691 80.4473 854.557 79.7825 854.557 78.7289C854.557 77.6754 853.691 76.9981 852.337 76.9981C850.957 76.9981 850.117 77.6879 850.117 78.7289C850.117 79.7574 850.957 80.4473 852.337 80.4473ZM855.372 74.5719L849.289 74.5719L849.289 73.2675L849.665 73.2675C849.816 73.2675 849.979 73.2675 850.129 73.2926C849.565 72.9539 849.088 72.3644 849.088 71.5241C849.088 70.7464 849.577 70.0942 850.255 69.8057C849.602 69.4295 849.088 68.7145 849.088 67.8365C849.088 66.6074 849.954 65.7168 851.534 65.7168L855.372 65.7168L855.372 67.0213L851.747 67.0213C850.731 67.0213 850.117 67.3725 850.117 68.1626C850.117 68.9779 850.844 69.4922 851.785 69.4922L855.372 69.4922L855.372 70.7966L851.772 70.7966C850.744 70.7966 850.117 71.1353 850.117 71.9254C850.117 72.7282 850.832 73.2675 851.81 73.2675L855.372 73.2675L855.372 74.5719ZM855.372 64.3257L849.289 64.3257L849.289 63.0212L855.372 63.0212L855.372 64.3257ZM848.248 64.3759L846.805 64.3759L846.805 62.9585L848.248 62.9585L848.248 64.3759ZM855.372 61.5634L849.289 61.5634L849.289 60.2589L849.628 60.2589C849.791 60.2589 849.941 60.2715 850.129 60.284C849.565 59.9579 849.088 59.3057 849.088 58.4152C849.088 57.0355 850.004 56.2202 851.534 56.2202L855.372 56.2202L855.372 57.5246L851.71 57.5246C850.694 57.5246 850.117 57.926 850.117 58.7664C850.117 59.6694 850.857 60.2589 851.76 60.2589L855.372 60.2589L855.372 61.5634ZM855.573 52.1734C855.573 53.9921 854.419 55.1962 852.312 55.1962C850.418 55.1962 849.088 53.942 849.088 52.2236C849.088 50.3924 850.368 49.3513 852.337 49.3513L852.613 49.3513L852.613 53.8792C853.792 53.8542 854.557 53.1518 854.557 52.1609C854.557 51.4585 854.218 50.8439 853.44 50.7185L853.44 49.4015C854.594 49.5269 855.573 50.4802 855.573 52.1734ZM851.685 53.8667L851.685 50.7185C850.731 50.731 850.079 51.2955 850.079 52.2362C850.079 53.1518 850.769 53.7789 851.685 53.8667Z" fill="#909090"/>
<rect width="144.843" height="28.262" transform="translate(1069.37 478.688)" fill="white"/>
<g clip-path="url(#clip1_173_77)">
<path d="M1111.01 490.891H1108.69V495.764H1111.01V490.891Z" fill="black"/>
<path d="M1120.8 484.296H1118.48V502.359H1120.8V484.296Z" fill="black"/>
<path d="M1133.08 498.861V502.359H1135.87L1133.08 498.861Z" fill="black"/>
<path d="M1151.95 497.923V502.664C1152.75 502.573 1153.52 502.44 1154.26 502.255V497.919H1151.95V497.923Z" fill="black"/>
<path d="M1184.49 484.296H1182.17V502.359H1184.49V484.296Z" fill="black"/>
<path d="M1096.42 484.296H1094.1V502.359H1096.42V484.296Z" fill="black"/>
<path d="M1100.07 484.296H1097.75V502.359H1100.07V484.296Z" fill="black"/>
<path d="M1107.36 490.891H1105.04V495.764H1107.36V490.891Z" fill="black"/>
<path d="M1117.15 484.296H1114.83V502.359H1117.15V484.296Z" fill="black"/>
<path d="M1133.8 494.271C1134.19 493.802 1134.5 493.269 1134.72 492.658C1134.94 492.052 1135.05 491.359 1135.05 490.58V490.555C1135.05 489.341 1134.84 488.331 1134.42 487.522C1134.09 486.885 1133.63 486.365 1133.08 485.935V494.964C1133.34 494.753 1133.59 494.525 1133.8 494.267V494.271Z" fill="black"/>
<path d="M1137.79 489.29C1137.18 490.464 1136.87 491.802 1136.87 493.312V493.338C1136.87 494.848 1137.18 496.185 1137.79 497.36C1138.27 498.267 1138.9 499.05 1139.68 499.739V486.911C1138.9 487.599 1138.27 488.387 1137.79 489.29Z" fill="black"/>
<path d="M1159.24 486.903V499.752C1160.01 499.06 1160.66 498.272 1161.13 497.361C1161.74 496.186 1162.04 494.848 1162.04 493.338V493.313C1162.04 491.803 1161.73 490.465 1161.13 489.291C1160.66 488.379 1160.01 487.591 1159.24 486.899V486.903Z" fill="black"/>
<path d="M1192.57 484.3H1190.25V489.157H1192.57V484.3Z" fill="black"/>
<path d="M1188.92 484.3H1186.6V489.157H1188.92V484.3Z" fill="black"/>
<path d="M1196.21 484.3H1193.89V502.363H1196.21V484.3Z" fill="black"/>
<path d="M1199.86 484.3H1197.54V502.363H1199.86V484.3Z" fill="black"/>
<path d="M1203.5 484.3H1201.19V489.157H1203.5V484.3Z" fill="black"/>
<path d="M1207.15 484.292H1204.83V489.148H1207.15V484.292Z" fill="black"/>
<path d="M1169.9 484.296H1167.58V502.359H1169.9V484.296Z" fill="black"/>
<path d="M1166.25 484.296H1163.93V502.359H1166.25V484.296Z" fill="black"/>
<path d="M1172.05 484.296H1171.23V493.282L1173.54 497.588V486.817L1172.05 484.296Z" fill="black"/>
<path d="M1174.88 489.066V500.065L1176.11 502.358H1177.19V492.98L1174.88 489.066Z" fill="black"/>
<path d="M1180.84 484.296H1178.52V502.359H1180.84V484.296Z" fill="black"/>
<path d="M1103.72 490.891H1101.4V495.764H1103.72V490.891Z" fill="black"/>
<path d="M1111.01 484.296H1108.69V489.17H1111.01V484.296Z" fill="black"/>
<path d="M1103.72 484.296H1101.4V489.17H1103.72V484.296Z" fill="black"/>
<path d="M1107.36 484.296H1105.04V489.17H1107.36V484.296Z" fill="black"/>
<path d="M1124.45 484.296H1122.13V489.006H1124.45V484.296Z" fill="black"/>
<path d="M1129.88 484.581C1129.73 484.555 1129.58 484.534 1129.43 484.512V502.36H1131.75V485.157C1131.19 484.908 1130.57 484.71 1129.88 484.581Z" fill="black"/>
<path d="M1122.13 492.156V497.52H1123.41H1124.45V492.156H1122.13Z" fill="black"/>
<path d="M1154.26 488.877V484.391C1153.52 484.206 1152.75 484.072 1151.94 483.982V488.873H1154.26V488.877Z" fill="black"/>
<path d="M1155.59 484.817V501.838C1156.43 501.537 1157.21 501.176 1157.91 500.742V485.909C1157.21 485.479 1156.44 485.114 1155.59 484.812V484.817Z" fill="black"/>
<path d="M1141.01 485.912V500.732C1141.7 501.166 1142.48 501.532 1143.33 501.833V484.815C1142.48 485.117 1141.71 485.482 1141.01 485.917V485.912Z" fill="black"/>
<path d="M1150.62 488.877V483.87C1150.24 483.848 1149.86 483.831 1149.47 483.831C1149.07 483.831 1148.68 483.848 1148.3 483.87V488.877H1150.62Z" fill="black"/>
<path d="M1149.47 497.924H1148.3V502.78C1148.68 502.802 1149.07 502.819 1149.47 502.819C1149.86 502.819 1150.24 502.802 1150.62 502.78V497.924H1149.47Z" fill="black"/>
<path d="M1144.96 488.877H1146.97V483.986C1146.16 484.077 1145.39 484.21 1144.65 484.395V488.877H1144.95H1144.96Z" fill="black"/>
<path d="M1144.96 497.924H1144.66V502.256C1145.39 502.441 1146.16 502.574 1146.97 502.664V497.924H1144.96H1144.96Z" fill="black"/>
<path d="M1125.78 492.156V499.619L1128.1 502.127V492.156H1125.78Z" fill="black"/>
<path d="M1128.1 489.011V484.365C1127.71 484.335 1127.31 484.309 1126.89 484.3H1125.78V489.011H1128.1Z" fill="black"/>
</g>
<path d="M1077.95 500.558C1076.81 499.1 1075.82 496.842 1075.82 493.832C1075.82 490.837 1076.81 488.548 1077.95 487.09H1079.2C1078.08 488.909 1077.2 490.978 1077.2 493.816C1077.2 496.669 1078.08 498.755 1079.2 500.558H1077.95ZM1082.44 490.837V489.755C1081.92 490.586 1080.92 491.292 1079.8 491.339V489.959C1081.07 489.818 1082.33 488.752 1082.69 487.56H1083.82V498.535H1082.44V490.837ZM1086.67 487.09C1087.82 488.548 1088.8 490.806 1088.8 493.816C1088.8 496.811 1087.82 499.1 1086.67 500.558H1085.42C1086.55 498.739 1087.42 496.669 1087.42 493.832C1087.42 490.978 1086.55 488.893 1085.42 487.09H1086.67Z" fill="black"/>
<path d="M971.622 654.508C971.483 657.063 969.676 658.648 966.746 658.489C963.978 658.339 962.312 656.403 962.444 653.96C962.559 651.831 963.906 650.397 965.82 650.312L965.74 651.79C964.515 651.912 963.694 652.684 963.62 654.049C963.53 655.715 964.732 656.936 966.824 657.049C968.953 657.164 970.356 656.072 970.445 654.432C970.519 653.066 969.741 652.12 968.55 651.854L968.626 650.439C970.568 650.77 971.742 652.291 971.622 654.508ZM971.67 649.913L970.004 649.823L970.094 648.157L971.76 648.247L971.67 649.913ZM972.285 642.269C972.198 643.872 971.006 645 968.902 644.886C966.898 644.778 965.726 643.471 965.811 641.893C965.864 640.916 966.412 640.317 966.955 640.033C966.765 640.048 966.59 640.038 966.415 640.029L963.421 639.866L963.492 638.564L972.259 639.039L972.188 640.342L971.888 640.325C971.687 640.314 971.525 640.306 971.351 640.271C971.836 640.586 972.34 641.254 972.285 642.269ZM968.975 643.546C970.315 643.619 971.23 642.953 971.285 641.938C971.339 640.949 970.489 640.174 969.149 640.101C967.809 640.029 966.906 640.696 966.852 641.698C966.797 642.7 967.66 643.475 968.975 643.546ZM972.682 634.943C972.583 636.759 971.366 637.899 969.262 637.785C967.371 637.682 966.111 636.358 966.204 634.642C966.303 632.814 967.637 631.843 969.603 631.95L969.879 631.965L969.634 636.486C970.812 636.525 971.614 635.865 971.668 634.875C971.706 634.174 971.401 633.542 970.631 633.375L970.703 632.06C971.848 632.247 972.773 633.252 972.682 634.943ZM968.708 636.423L968.878 633.28C967.926 633.241 967.244 633.769 967.193 634.708C967.143 635.623 967.798 636.286 968.708 636.423ZM972.832 628.463L964.065 627.988L964.136 626.685L972.903 627.16L972.832 628.463ZM973.277 623.962C973.217 625.064 972.462 626.015 971.298 625.952C970.02 625.883 969.561 624.853 969.463 623.655L969.359 622.556C969.322 622.077 969.155 621.905 968.817 621.886C968.279 621.857 967.867 622.262 967.831 622.938C967.786 623.765 968.212 624.253 968.898 624.327L968.827 625.655C967.64 625.528 966.752 624.525 966.837 622.972C966.927 621.294 967.91 620.543 969.463 620.627L973.246 620.832L973.18 622.047L972.904 622.032C972.716 622.022 972.542 622 972.355 621.977C972.951 622.324 973.33 622.985 973.277 623.962ZM971.333 624.61C971.921 624.642 972.284 624.197 972.316 623.621C972.364 622.732 971.774 622.021 970.848 621.971L970.071 621.929C970.191 622.036 970.254 622.266 970.297 622.632L970.397 623.328C970.496 624.05 970.744 624.578 971.333 624.61ZM973.557 615.084L965.955 614.672L965.793 617.653L964.629 617.59L965.026 610.251L966.191 610.314L966.03 613.282L973.632 613.694L973.557 615.084ZM973.765 611.241L967.691 610.912L967.762 609.609L968.125 609.629C968.363 609.642 968.588 609.654 968.812 609.691C968.141 609.341 967.61 608.697 967.66 607.782C967.665 607.682 967.671 607.582 967.701 607.483L968.966 607.552C968.949 607.639 968.917 607.762 968.907 607.938C968.85 608.99 969.377 609.697 970.717 609.769L973.836 609.938L973.765 611.241ZM974.283 605.407C974.223 606.509 973.468 607.46 972.303 607.397C971.026 607.328 970.566 606.298 970.468 605.1L970.364 604.001C970.327 603.522 970.161 603.35 969.823 603.331C969.284 603.302 968.873 603.707 968.836 604.383C968.791 605.21 969.217 605.698 969.904 605.773L969.832 607.1C968.646 606.973 967.758 605.97 967.842 604.417C967.933 602.739 968.916 601.988 970.469 602.072L974.251 602.277L974.185 603.492L973.91 603.477C973.722 603.467 973.547 603.445 973.36 603.422C973.957 603.769 974.335 604.43 974.283 605.407ZM972.338 606.055C972.927 606.087 973.29 605.642 973.321 605.066C973.369 604.177 972.78 603.466 971.853 603.416L971.077 603.374C971.196 603.481 971.259 603.711 971.302 604.077L971.403 604.773C971.502 605.495 971.749 606.023 972.338 606.055ZM974.405 599.437L968.206 601.413L968.282 600.01L972.556 598.797C972.824 598.711 973.015 598.671 973.256 598.621C973.021 598.546 972.837 598.473 972.579 598.371L968.46 596.729L968.533 595.376L974.484 597.972L974.405 599.437ZM974.984 592.457C974.886 594.273 973.669 595.413 971.564 595.299C969.673 595.197 968.414 593.872 968.507 592.157C968.606 590.328 969.939 589.358 971.906 589.464L972.181 589.479L971.936 594C973.115 594.039 973.917 593.379 973.971 592.39C974.009 591.689 973.704 591.057 972.934 590.889L973.005 589.574C974.151 589.762 975.076 590.767 974.984 592.457ZM971.01 593.938L971.181 590.794C970.228 590.755 969.546 591.283 969.495 592.223C969.446 593.137 970.101 593.801 971.01 593.938ZM975.32 586.259C975.229 587.937 974.286 588.891 972.917 588.879L972.988 587.577C973.766 587.581 974.282 587.107 974.33 586.218C974.372 585.454 974.048 584.934 973.509 584.905C973.071 584.881 972.802 585.205 972.627 585.887L972.42 586.705C972.129 587.895 971.501 588.589 970.524 588.536C969.485 588.48 968.762 587.448 968.84 586.008C968.923 584.468 969.751 583.558 971.007 583.563L970.937 584.866C970.269 584.892 969.868 585.348 969.827 586.099C969.792 586.751 970.055 587.217 970.531 587.243C970.957 587.266 971.186 586.977 971.364 586.258L971.572 585.428C971.859 584.3 972.439 583.565 973.479 583.622C974.606 583.683 975.405 584.693 975.32 586.259ZM975.317 582.614L969.243 582.284L969.313 580.982L975.387 581.311L975.317 582.614ZM968.305 582.196L966.626 581.188L966.71 579.648L968.364 581.106L968.305 582.196ZM975.762 578.113C975.702 579.215 974.947 580.166 973.782 580.103C972.505 580.034 972.046 579.004 971.947 577.806L971.843 576.707C971.807 576.228 971.64 576.056 971.302 576.037C970.763 576.008 970.352 576.413 970.315 577.089C970.271 577.916 970.696 578.404 971.383 578.478L971.311 579.806C970.125 579.679 969.237 578.676 969.321 577.123C969.412 575.445 970.395 574.694 971.948 574.778L975.73 574.983L975.664 576.198L975.389 576.183C975.201 576.173 975.026 576.151 974.839 576.128C975.436 576.475 975.815 577.136 975.762 578.113ZM973.817 578.761C974.406 578.793 974.769 578.348 974.8 577.772C974.849 576.883 974.259 576.172 973.332 576.122L972.556 576.08C972.676 576.187 972.738 576.417 972.781 576.783L972.882 577.479C972.981 578.201 973.229 578.729 973.817 578.761Z" fill="#909090"/>
</g>
<defs>
<clipPath id="clip0_173_77">
<rect width="1250" height="809" fill="white"/>
</clipPath>
<clipPath id="clip1_173_77">
<rect width="113.054" height="18.9875" fill="white" transform="translate(1094.1 483.831)"/>
</clipPath>
</defs>
</svg>
