<svg width="378" height="92" viewBox="0 0 378 92" fill="none" xmlns="http://www.w3.org/2000/svg">
<g clip-path="url(#clip0_235_706)">
<path d="M56.5078 23.4219H48.7634V39.5929H56.5078V23.4219Z" fill="white"/>
<path d="M89.2625 1.5415H81.5037V61.4728H89.2625V1.5415Z" fill="white"/>
<path d="M130.325 49.8696V61.4734H139.63L130.325 49.8696Z" fill="white"/>
<path d="M193.392 46.7584V62.487C196.08 62.1873 198.666 61.7448 201.137 61.1311V46.7441H193.392V46.7584Z" fill="white"/>
<path d="M302.218 1.5415H294.445V61.4728H302.218V1.5415Z" fill="white"/>
<path d="M7.74436 1.5415H0V61.4728H7.74436V1.5415Z" fill="white"/>
<path d="M19.9392 1.5415H12.1948V61.4728H19.9392V1.5415Z" fill="white"/>
<path d="M44.3135 23.4219H36.5691V39.5929H44.3135V23.4219Z" fill="white"/>
<path d="M77.0535 1.5415H69.2947V61.4728H77.0535V1.5415Z" fill="white"/>
<path d="M132.723 34.6406C134.038 33.0849 135.05 31.315 135.801 29.2883C136.538 27.2759 136.913 24.9779 136.913 22.3946V22.3089C136.913 18.284 136.205 14.9299 134.79 12.2466C133.677 10.1343 132.16 8.40726 130.325 6.97998V36.9385C131.192 36.2391 132.015 35.4827 132.723 34.6263V34.6406Z" fill="white"/>
<path d="M146.073 18.1126C144.022 22.009 142.996 26.4479 142.996 31.4576V31.5432C142.996 36.553 144.022 40.9918 146.073 44.8883C147.663 47.8998 149.787 50.4975 152.373 52.7811V10.2197C149.787 12.5034 147.663 15.1153 146.073 18.1126Z" fill="white"/>
<path d="M217.767 10.191V52.8238C220.367 50.5259 222.52 47.9139 224.095 44.8881C226.132 40.9917 227.144 36.5528 227.144 31.5431V31.4575C227.144 26.4477 226.118 22.0089 224.095 18.1124C222.52 15.0866 220.367 12.4747 217.767 10.1768V10.191Z" fill="white"/>
<path d="M329.208 1.55615H321.463V17.6701H329.208V1.55615Z" fill="white"/>
<path d="M317.013 1.55615H309.269V17.6701H317.013V1.55615Z" fill="white"/>
<path d="M341.388 1.55615H333.643V61.4875H341.388V1.55615Z" fill="white"/>
<path d="M353.582 1.55615H345.838V61.4875H353.582V1.55615Z" fill="white"/>
<path d="M365.777 1.55615H358.032V17.6701H365.777V1.55615Z" fill="white"/>
<path d="M377.986 1.52783H370.212V17.6418H377.986V1.52783Z" fill="white"/>
<path d="M253.411 1.5415H245.667V61.4728H253.411V1.5415Z" fill="white"/>
<path d="M241.217 1.5415H233.473V61.4728H241.217V1.5415Z" fill="white"/>
<path d="M260.621 1.5415H257.861V31.3573L265.605 45.6444V9.90535L260.621 1.5415Z" fill="white"/>
<path d="M270.056 17.3706V53.8661L274.174 61.4735H277.8V30.3588L270.056 17.3706Z" fill="white"/>
<path d="M289.994 1.5415H282.25V61.4728H289.994V1.5415Z" fill="white"/>
<path d="M32.1333 23.4219H24.3889V39.5929H32.1333V23.4219Z" fill="white"/>
<path d="M56.5078 1.5415H48.7634V17.7125H56.5078V1.5415Z" fill="white"/>
<path d="M32.1333 1.5415H24.3889V17.7125H32.1333V1.5415Z" fill="white"/>
<path d="M44.3135 1.5415H36.5691V17.7125H44.3135V1.5415Z" fill="white"/>
<path d="M101.471 1.5415H93.7124V17.1702H101.471V1.5415Z" fill="white"/>
<path d="M119.604 2.48422C119.127 2.39859 118.622 2.32722 118.116 2.25586V61.4736H125.875V4.39677C123.982 3.56895 121.916 2.91241 119.604 2.48422Z" fill="white"/>
<path d="M93.7124 27.6182V45.4163H97.9891H101.457V27.6182H93.7124Z" fill="white"/>
<path d="M201.122 16.7424V1.85591C198.666 1.24218 196.08 0.799728 193.378 0.5V16.7281H201.122V16.7424Z" fill="white"/>
<path d="M205.573 3.26867V59.746C208.39 58.7469 210.976 57.548 213.317 56.1064V6.89395C210.991 5.46667 208.404 4.25349 205.573 3.25439V3.26867Z" fill="white"/>
<path d="M156.823 6.9086V56.0783C159.149 57.5198 161.736 58.733 164.568 59.7321V3.26904C161.736 4.26814 159.164 5.48132 156.823 6.92287V6.9086Z" fill="white"/>
<path d="M188.942 16.7424V0.128943C187.685 0.0575794 186.414 0.000488281 185.099 0.000488281C183.784 0.000488281 182.484 0.0575794 181.198 0.128943V16.7424H188.942Z" fill="white"/>
<path d="M185.099 46.7578H181.198V62.8718C182.47 62.9431 183.77 63.0002 185.099 63.0002C186.428 63.0002 187.685 62.9431 188.942 62.8718V46.7578H185.099Z" fill="white"/>
<path d="M170.029 16.7423H176.748V0.51416C174.06 0.813888 171.474 1.25634 169.003 1.87007V16.7423H170.015H170.029Z" fill="white"/>
<path d="M170.029 46.7578H169.018V61.1305C171.474 61.7442 174.06 62.1867 176.762 62.4864V46.7578H170.043H170.029Z" fill="white"/>
<path d="M105.907 27.6182V52.3814L113.666 60.7024V27.6182H105.907Z" fill="white"/>
<path d="M113.666 17.1848V1.77024C112.366 1.67033 111.022 1.5847 109.635 1.55615H105.907V17.1848H113.666Z" fill="white"/>
</g>
<path d="M370.851 88.3996C366.802 88.3996 363.701 85.2772 363.701 80.5397C363.701 75.8022 366.781 72.6582 370.851 72.6582C374.942 72.6582 378 75.8022 378 80.5397C378 85.2772 374.899 88.3996 370.851 88.3996ZM365.769 80.5397C365.769 84.3943 367.793 86.763 370.851 86.763C373.909 86.763 375.933 84.3943 375.933 80.5397C375.933 76.6851 373.866 74.3163 370.851 74.3163C367.858 74.3163 365.769 76.6851 365.769 80.5397Z" fill="white"/>
<path d="M352.834 88.0768V73.0029H362.632V74.6395H354.794V79.5708H362.287V81.2289H354.794V86.4187H362.89V88.0768H352.834Z" fill="white"/>
<path d="M337.466 88.0768V73.0029H340.416L348.061 85.8588V83.9638V73.0029H350.042V88.0768H347.307L339.425 74.8979V76.7283V88.0768H337.466Z" fill="white"/>
<path d="M322.055 88.0767L328.084 73.0028H330.453L336.504 88.0767H334.329L332.606 83.5976H325.845L324.122 88.0767H322.055ZM326.469 81.961H331.982L329.656 75.9315C329.505 75.5438 329.376 75.1562 329.226 74.7902C329.096 75.1562 328.946 75.5438 328.795 75.9315L326.469 81.961ZM328.429 71.1724L329.958 68.3945H332.262L329.979 71.1724H328.429Z" fill="white"/>
<path d="M310.64 88.0768V73.0029H317.036C319.922 73.0029 321.752 74.4242 321.752 76.9652C321.752 78.8602 320.331 80.2168 318.974 80.626C320.395 80.8629 321.429 82.0903 321.429 84.0714V88.0768H319.469V84.6098C319.469 82.2195 318.543 81.4874 316.304 81.4874H312.6V88.0768H310.64ZM312.6 79.8292H316.562C318.586 79.8292 319.749 78.9033 319.749 77.2021C319.749 75.5009 318.586 74.6395 316.562 74.6395H312.6V79.8292Z" fill="white"/>
<path d="M297.396 88.0768V73.0029H303.792C306.677 73.0029 308.508 74.4242 308.508 76.9652C308.508 78.8602 307.087 80.2168 305.73 80.626C307.151 80.8629 308.185 82.0903 308.185 84.0714V88.0768H306.225V84.6098C306.225 82.2195 305.299 81.4874 303.06 81.4874H299.356V88.0768H297.396ZM299.356 79.8292H303.318C305.342 79.8292 306.505 78.9033 306.505 77.2021C306.505 75.5009 305.342 74.6395 303.318 74.6395H299.356V79.8292Z" fill="white"/>
<path d="M285.351 88.0768V73.0029H295.149V74.6395H287.31V79.5708H294.804V81.2289H287.31V86.4187H295.407V88.0768H285.351Z" fill="white"/>
<path d="M277.129 88.0768V74.6395H271.918V73.0029H284.279V74.6395H279.089V88.0768H277.129Z" fill="white"/>
<path d="M268.893 88.0768V73.0029H270.853V88.0768H268.893Z" fill="white"/>
<path d="M254.408 88.0768V73.0029H258.93C263.818 73.0029 267.027 75.1563 267.027 80.5183C267.027 85.1051 264.421 88.0768 259.404 88.0768H254.408ZM256.368 86.4187H259.167C262.785 86.4187 264.981 84.739 264.981 80.5183C264.981 76.7499 263.194 74.6395 259.081 74.6395H256.368V86.4187Z" fill="white"/>
<path d="M242.362 88.0768V73.0029H252.16V74.6395H244.322V79.5708H251.816V81.2289H244.322V86.4187H252.419V88.0768H242.362Z" fill="white"/>
<path d="M223.209 88.0768V73.0029H226.267L230.789 84.4806L231.435 86.1172C231.65 85.5358 231.844 85.0405 232.059 84.4806L236.539 73.0029H239.553V88.0768H237.615V76.7499V74.8764L232.49 88.0768H230.294L225.147 74.8979V76.7499V88.0768H223.209Z" fill="white"/>
<path d="M205.931 88.0768V73.0029H212.327C215.213 73.0029 217.043 74.4242 217.043 76.9652C217.043 78.8602 215.622 80.2168 214.265 80.626C215.686 80.8629 216.72 82.0903 216.72 84.0714V88.0768H214.76V84.6098C214.76 82.2195 213.834 81.4874 211.595 81.4874H207.891V88.0768H205.931ZM207.891 79.8292H211.853C213.877 79.8292 215.04 78.9033 215.04 77.2021C215.04 75.5009 213.877 74.6395 211.853 74.6395H207.891V79.8292Z" fill="white"/>
<path d="M196.912 88.3996C192.864 88.3996 189.763 85.2772 189.763 80.5397C189.763 75.8022 192.843 72.6582 196.912 72.6582C201.004 72.6582 204.062 75.8022 204.062 80.5397C204.062 85.2772 200.961 88.3996 196.912 88.3996ZM191.83 80.5397C191.83 84.3943 193.855 86.763 196.912 86.763C199.97 86.763 201.995 84.3943 201.995 80.5397C201.995 76.6851 199.927 74.3163 196.912 74.3163C193.919 74.3163 191.83 76.6851 191.83 80.5397Z" fill="white"/>
<path d="M177.697 88.0768V73.0029H183.576C186.397 73.0029 188.356 74.1873 188.356 76.7929C188.356 78.4295 187.194 79.6785 185.837 80.1092C187.624 80.6691 188.722 81.9611 188.722 83.8346C188.722 87.1939 185.966 88.0768 183.016 88.0768H177.697ZM179.657 86.4187H183.339C185.686 86.4187 186.72 85.5142 186.72 83.7269C186.72 82.1764 185.923 81.0136 183.253 81.0136H179.657V86.4187ZM179.657 79.3555H183.296C185.255 79.3555 186.354 78.4726 186.354 76.9437C186.354 75.6086 185.557 74.6395 183.447 74.6395H179.657V79.3555Z" fill="white"/>
<path d="M162.286 88.0768L168.315 73.0029H170.684L176.735 88.0768H174.56L172.838 83.5977H166.076L164.353 88.0768H162.286ZM166.7 81.9611H172.213L169.887 75.9316C169.737 75.544 169.607 75.1563 169.457 74.7903C169.328 75.1563 169.177 75.544 169.026 75.9316L166.7 81.9611Z" fill="white"/>
<path d="M156.646 88.3996C152.985 88.3996 150.595 86.4185 150.552 83.2314H152.554C152.683 85.4064 154.277 86.763 156.667 86.763C159.144 86.763 160.5 85.6648 160.5 84.0282C160.5 82.5854 159.294 81.9394 157.507 81.5302L155.267 81.0134C152.963 80.4751 151.068 79.1615 151.068 76.8573C151.068 74.424 153.394 72.6582 156.581 72.6582C159.833 72.6582 162.008 74.424 162.18 77.2234H160.177C160.048 75.4361 158.648 74.3163 156.538 74.3163C154.578 74.3163 153.136 75.3069 153.136 76.6851C153.136 77.9771 153.997 78.7523 155.763 79.1615L158.433 79.7644C160.823 80.3243 162.568 81.6164 162.568 83.899C162.568 86.3754 160.35 88.3996 156.646 88.3996Z" fill="white"/>
<path d="M140.152 88.0768V81.5735L134.962 73.0029H137.159L140.087 78.0634C140.453 78.6879 140.776 79.2909 141.121 79.8938C141.509 79.2909 141.853 78.6879 142.219 78.0634L145.212 73.0029H147.344L142.111 81.5735V88.0768H140.152Z" fill="white"/>
<path d="M118.629 88.0768L124.658 73.0029H127.027L133.078 88.0768H130.903L129.181 83.5977H122.419L120.696 88.0768H118.629ZM123.043 81.9611H128.556L126.23 75.9316C126.08 75.544 125.95 75.1563 125.8 74.7903C125.671 75.1563 125.52 75.544 125.369 75.9316L123.043 81.9611Z" fill="white"/>
<path d="M112.304 88.3996C107.997 88.3996 105.09 85.3848 105.09 80.4535C105.09 75.7591 108.191 72.6582 112.347 72.6582C115.987 72.6582 118.485 74.9193 118.764 77.8694H116.611C116.223 75.6514 114.716 74.3163 112.261 74.3163C109.203 74.3163 107.158 76.642 107.158 80.4535C107.158 84.2651 109.268 86.7415 112.261 86.7415C114.738 86.7415 116.331 85.3418 116.74 83.2099H118.786C118.377 86.4185 115.879 88.3996 112.304 88.3996Z" fill="white"/>
<path d="M101.247 88.0768V73.0029H103.207V88.0768H101.247Z" fill="white"/>
<path d="M93.5873 88.3996C89.9265 88.3996 87.5362 86.4185 87.4932 83.2314H89.4958C89.625 85.4064 91.2186 86.763 93.6088 86.763C96.0853 86.763 97.4419 85.6648 97.4419 84.0282C97.4419 82.5854 96.236 81.9394 94.4487 81.5302L92.2091 81.0134C89.905 80.4751 88.01 79.1615 88.01 76.8573C88.01 74.424 90.3357 72.6582 93.5227 72.6582C96.7744 72.6582 98.9493 74.424 99.1216 77.2234H97.1189C96.9897 75.4361 95.59 74.3163 93.4796 74.3163C91.52 74.3163 90.0773 75.3069 90.0773 76.6851C90.0773 77.9771 90.9386 78.7523 92.7044 79.1615L95.3746 79.7644C97.7649 80.3243 99.5092 81.6164 99.5092 83.899C99.5092 86.3754 97.2912 88.3996 93.5873 88.3996Z" fill="white"/>
<path d="M80.2711 88.3997C76.7395 88.3997 74.6077 86.3755 74.6077 82.1979V73.0028H76.5673V81.9395C76.5673 85.2557 77.8378 86.7631 80.2711 86.7631C82.7045 86.7631 83.9965 85.2988 83.9965 81.9395V73.0028H85.9561V82.1979C85.9561 86.3755 83.8027 88.3997 80.2711 88.3997ZM79.4313 71.1724L80.9602 68.3945H83.2644L80.9818 71.1724H79.4313Z" fill="white"/>
<path d="M55.605 88.0768V73.0029H58.6628L63.185 84.4806L63.831 86.1172C64.0463 85.5358 64.2401 85.0405 64.4555 84.4806L68.9346 73.0029H71.9493V88.0768H70.0113V76.7499V74.8764L64.8862 88.0768H62.6897L57.543 74.8979V76.7499V88.0768H55.605Z" fill="white"/>
<path d="M47.4632 90.4022C48.1307 90.2084 48.583 89.7993 48.583 88.3996V88.0766H47.4417V85.5786H49.8965V88.3134C49.8965 90.4668 48.906 91.3928 47.4632 91.6082V90.4022Z" fill="white"/>
<path d="M34.7141 88.0768V73.0029H41.1097C43.9953 73.0029 45.8257 74.4242 45.8257 76.9652C45.8257 78.8602 44.4044 80.2168 43.0478 80.626C44.469 80.8629 45.5027 82.0903 45.5027 84.0714V88.0768H43.5431V84.6098C43.5431 82.2195 42.6171 81.4874 40.3776 81.4874H36.6737V88.0768H34.7141ZM36.6737 79.8292H40.636C42.6602 79.8292 43.823 78.9033 43.823 77.2021C43.823 75.5009 42.6602 74.6395 40.636 74.6395H36.6737V79.8292Z" fill="white"/>
<path d="M19.303 88.0768L25.3325 73.0029H27.7013L33.7523 88.0768H31.5774L29.8547 83.5977H23.093L21.3702 88.0768H19.303ZM23.7175 81.9611H29.2302L26.9045 75.9316C26.7538 75.544 26.6246 75.1563 26.4738 74.7903C26.3446 75.1563 26.1939 75.544 26.0431 75.9316L23.7175 81.9611Z" fill="white"/>
<path d="M1.97998 88.0768V73.0029H5.03782L9.55998 84.4806L10.206 86.1172C10.4213 85.5358 10.6151 85.0405 10.8305 84.4806L15.3096 73.0029H18.3243V88.0768H16.3863V76.7499V74.8764L11.2612 88.0768H9.06469L3.91805 74.8979V76.7499V88.0768H1.97998Z" fill="white"/>
<defs>
<clipPath id="clip0_235_706">
<rect width="378" height="63" fill="white"/>
</clipPath>
</defs>
</svg>
