<svg width="430" height="616" viewBox="0 0 430 616" fill="none" xmlns="http://www.w3.org/2000/svg">
<g clip-path="url(#clip0_152_742)">
<rect width="286.621" height="30.049" transform="matrix(-0.0226339 -0.999744 0.99963 -0.0271915 147.973 528.974)" fill="#D9D9D9"/>
<rect width="146.679" height="30.0593" transform="matrix(0.0576859 -0.998335 0.997599 0.0692581 186.693 526.717)" fill="#D9D9D9"/>
<rect x="151.488" y="151.598" width="157.876" height="30.0472" transform="rotate(-87.9052 151.488 151.598)" fill="#D9D9D9"/>
<path d="M266.61 277.237L368.267 277.95L384.039 349.925L399.81 421.9L265.603 420.959L266.61 277.237Z" fill="#D9D9D9"/>
<rect x="194.372" y="277.323" width="68.1331" height="143.767" transform="rotate(0.400474 194.372 277.323)" fill="#D9D9D9"/>
<rect x="72.1602" y="226.767" width="36.5663" height="16.6041" transform="rotate(-173.251 72.1602 226.767)" fill="#D9D9D9"/>
<rect x="189.559" y="104.08" width="36.5663" height="16.6041" transform="rotate(-87.8391 189.559 104.08)" fill="#D9D9D9"/>
<rect x="120.779" y="395.633" width="36.5663" height="16.6041" transform="rotate(-88.0274 120.779 395.633)" fill="#D9D9D9"/>
<path d="M184.766 506.594C212.596 506.594 235.156 529.155 235.156 556.984C235.156 584.814 212.596 607.375 184.766 607.375C156.936 607.375 134.375 584.814 134.375 556.984C134.375 529.155 156.936 506.594 184.766 506.594ZM184.69 533.469C171.745 533.469 161.25 543.964 161.25 556.909C161.25 569.855 171.745 580.35 184.69 580.35C197.636 580.35 208.131 569.855 208.131 556.909C208.131 543.964 197.636 533.469 184.69 533.469Z" fill="#D9D9D9"/>
<rect x="280.635" y="141.539" width="60.6909" height="25.035" transform="rotate(90 280.635 141.539)" fill="#D9D9D9"/>
<path d="M268.875 113.469L288.256 147.038H249.493L268.875 113.469Z" fill="#D9D9D9"/>
<circle cx="268.614" cy="163.609" r="5.74089" fill="#D9D9D9"/>
<path d="M-24.7727 159.065L123.7 175.945L120.188 205.787L-26.8436 188.512L-24.7727 159.065Z" fill="#D9D9D9"/>
<path d="M161.821 120.937C202.212 120.937 234.955 153.68 234.955 194.071C234.955 234.461 202.212 267.205 161.821 267.205C121.431 267.205 88.6875 234.461 88.6875 194.071C88.6876 153.68 121.431 120.937 161.821 120.937ZM163.066 159.906C144.252 159.906 129 175.158 129 193.972C129 212.787 144.252 228.039 163.066 228.04C181.881 228.04 197.133 212.787 197.133 193.972C197.133 175.158 181.881 159.906 163.066 159.906Z" fill="#D9D9D9"/>
<path d="M212.852 105.923C211.976 104.807 211.22 103.079 211.22 100.775C211.22 98.4825 211.976 96.7305 212.852 95.6145H213.812C212.948 97.0065 212.276 98.5905 212.276 100.763C212.276 102.947 212.948 104.543 213.812 105.923H212.852ZM215.626 104.375C215.842 101.495 216.862 98.9505 218.782 96.9345H214.222V95.9745H219.778V97.0065C218.122 98.8425 216.862 101.531 216.754 104.375H215.626ZM221.179 95.6145C222.055 96.7305 222.811 98.4585 222.811 100.763C222.811 103.055 222.055 104.807 221.179 105.923H220.219C221.083 104.531 221.755 102.947 221.755 100.775C221.755 98.5905 221.083 96.9945 220.219 95.6145H221.179Z" fill="black"/>
<path d="M18.321 229.548C17.445 228.432 16.689 226.704 16.689 224.4C16.689 222.108 17.445 220.356 18.321 219.24H19.281C18.417 220.632 17.745 222.216 17.745 224.388C17.745 226.572 18.417 228.168 19.281 229.548H18.321ZM21.0952 228C21.3112 225.12 22.3312 222.576 24.2512 220.56H19.6912V219.6H25.2472V220.632C23.5912 222.468 22.3312 225.156 22.2232 228H21.0952ZM26.6478 219.24C27.5238 220.356 28.2798 222.084 28.2798 224.388C28.2798 226.68 27.5238 228.432 26.6478 229.548H25.6878C26.5518 228.156 27.2238 226.572 27.2238 224.4C27.2238 222.216 26.5518 220.62 25.6878 219.24H26.6478Z" fill="black"/>
<path d="M105.634 393.485C104.758 392.369 104.002 390.641 104.002 388.337C104.002 386.045 104.758 384.293 105.634 383.177H106.594C105.73 384.569 105.058 386.153 105.058 388.325C105.058 390.509 105.73 392.105 106.594 393.485H105.634ZM108.408 391.937C108.624 389.057 109.644 386.513 111.564 384.497H107.004V383.537H112.56V384.569C110.904 386.405 109.644 389.093 109.536 391.937H108.408ZM113.96 383.177C114.836 384.293 115.592 386.021 115.592 388.325C115.592 390.617 114.836 392.369 113.96 393.485H113C113.864 392.093 114.536 390.509 114.536 388.337C114.536 386.153 113.864 384.557 113 383.177H113.96Z" fill="black"/>
<path d="M276.32 272.548C275.444 271.432 274.688 269.704 274.688 267.4C274.688 265.108 275.444 263.356 276.32 262.24H277.28C276.416 263.632 275.744 265.216 275.744 267.388C275.744 269.572 276.416 271.168 277.28 272.548H276.32ZM281.062 271.18C278.866 271.18 278.038 269.32 278.038 266.992C278.038 264.4 279.118 262.408 281.422 262.408C282.91 262.408 283.906 263.308 283.918 264.628H282.85C282.826 263.8 282.262 263.248 281.398 263.248C279.994 263.248 279.202 264.352 279.106 266.392C279.094 266.512 279.094 266.644 279.094 266.776C279.454 266.092 280.294 265.492 281.326 265.492C282.886 265.492 283.93 266.692 283.93 268.288C283.93 269.968 282.682 271.18 281.062 271.18ZM279.286 268.264C279.286 269.704 280.066 270.376 281.062 270.376C282.082 270.376 282.838 269.548 282.838 268.3C282.838 267.232 282.178 266.344 281.122 266.344C280.066 266.344 279.286 267.196 279.286 268.264ZM285.666 262.24C286.542 263.356 287.298 265.084 287.298 267.388C287.298 269.68 286.542 271.432 285.666 272.548H284.706C285.57 271.156 286.242 269.572 286.242 267.4C286.242 265.216 285.57 263.62 284.706 262.24H285.666Z" fill="black"/>
<path d="M286.415 202.673C285.539 201.557 284.783 199.829 284.783 197.525C284.783 195.233 285.539 193.481 286.415 192.365H287.375C286.511 193.757 285.839 195.341 285.839 197.513C285.839 199.697 286.511 201.293 287.375 202.673H286.415ZM290.869 201.305C289.141 201.305 288.061 200.321 288.061 198.881H289.141C289.141 199.829 289.765 200.453 290.833 200.453C292.045 200.453 292.753 199.637 292.753 198.389C292.753 197.201 292.105 196.373 290.977 196.373C290.089 196.373 289.393 196.997 289.201 197.489H288.193L288.805 192.725H293.377V193.685H289.597L289.321 195.809C289.297 195.977 289.273 196.241 289.249 196.433C289.669 195.881 290.413 195.521 291.229 195.521C292.777 195.521 293.845 196.745 293.845 198.317C293.845 200.069 292.669 201.305 290.869 201.305ZM295.445 192.365C296.321 193.481 297.077 195.209 297.077 197.513C297.077 199.805 296.321 201.557 295.445 202.673H294.485C295.349 201.281 296.021 199.697 296.021 197.525C296.021 195.341 295.349 193.745 294.485 192.365H295.445Z" fill="black"/>
<path d="M204.312 354.02C203.436 352.904 202.68 351.176 202.68 348.872C202.68 346.58 203.436 344.828 204.312 343.712H205.272C204.408 345.104 203.736 346.688 203.736 348.86C203.736 351.044 204.408 352.64 205.272 354.02H204.312ZM209.582 352.472V350.324H205.73V349.304L209.222 344.072H210.638V349.364H212.186V350.324H210.638V352.472H209.582ZM206.726 349.364H209.582V345.02L209.222 345.596L207.002 348.944C206.918 349.064 206.822 349.22 206.726 349.364ZM213.377 343.712C214.253 344.828 215.009 346.556 215.009 348.86C215.009 351.152 214.253 352.904 213.377 354.02H212.417C213.281 352.628 213.953 351.044 213.953 348.872C213.953 346.688 213.281 345.092 212.417 343.712H213.377Z" fill="black"/>
<path d="M275.944 404.651C275.068 403.535 274.312 401.807 274.312 399.503C274.312 397.211 275.068 395.459 275.944 394.343H276.904C276.04 395.735 275.368 397.319 275.368 399.491C275.368 401.675 276.04 403.271 276.904 404.651H275.944ZM280.482 403.283C278.694 403.283 277.59 402.239 277.59 400.679H278.658C278.658 401.675 279.306 402.431 280.482 402.431C281.586 402.431 282.366 401.807 282.366 400.763C282.366 399.731 281.538 399.179 280.518 399.179H280.026V398.255H280.53C281.418 398.255 282.15 397.739 282.15 396.767C282.15 395.879 281.514 395.375 280.566 395.375C279.438 395.375 278.826 395.999 278.802 397.055H277.722C277.758 395.543 278.778 394.511 280.578 394.511C282.102 394.511 283.242 395.423 283.242 396.719C283.242 397.583 282.726 398.339 281.718 398.675C282.87 398.987 283.458 399.767 283.458 400.799C283.458 402.263 282.222 403.283 280.482 403.283ZM285.161 394.343C286.037 395.459 286.793 397.187 286.793 399.491C286.793 401.783 286.037 403.535 285.161 404.651H284.201C285.065 403.259 285.737 401.675 285.737 399.503C285.737 397.319 285.065 395.723 284.201 394.343H285.161Z" fill="black"/>
<path d="M376.446 405.276C375.57 404.16 374.814 402.432 374.814 400.128C374.814 397.836 375.57 396.084 376.446 394.968H377.406C376.542 396.36 375.87 397.944 375.87 400.116C375.87 402.3 376.542 403.896 377.406 405.276H376.446ZM378.092 403.728C378.092 402.648 378.536 401.94 379.844 400.944L380.984 400.068C381.692 399.516 382.568 398.748 382.568 397.68C382.568 396.72 381.98 396 380.972 396C379.952 396 379.256 396.72 379.256 398.1V398.256H378.176V397.98C378.176 396.18 379.4 395.136 380.972 395.136C382.532 395.136 383.66 396.108 383.66 397.668C383.66 398.928 382.904 399.828 381.32 401.028L380.732 401.472C379.952 402.06 379.484 402.456 379.4 402.768H383.804V403.728H378.092ZM385.441 394.968C386.317 396.084 387.073 397.812 387.073 400.116C387.073 402.408 386.317 404.16 385.441 405.276H384.481C385.345 403.884 386.017 402.3 386.017 400.128C386.017 397.944 385.345 396.348 384.481 394.968H385.441Z" fill="black"/>
<path d="M7.08584 158.593L10.6406 151.928L11.9335 152.063L14.0377 159.322L12.8045 159.193L12.2672 157.126L9.22391 156.807L8.2594 158.716L7.08584 158.593ZM9.66902 155.918L12.0161 156.164L11.341 153.59C11.2766 153.342 11.2278 153.136 11.1723 152.898C11.0786 153.12 10.9672 153.319 10.8637 153.54L9.66902 155.918ZM15.5179 159.478L14.1939 154.462L15.3078 154.579L16.102 158.031C16.1597 158.248 16.1838 158.401 16.2137 158.596C16.2832 158.412 16.3486 158.268 16.4401 158.066L17.9135 154.852L18.9876 154.965L16.6815 159.6L15.5179 159.478ZM18.512 159.792L18.6507 158.469L19.9735 158.608L19.8347 159.931L18.512 159.792ZM24.5744 160.589C23.3013 160.455 22.4504 159.461 22.6257 157.79C22.7926 156.199 23.8805 155.317 25.1336 155.449C25.9094 155.53 26.3639 155.99 26.5687 156.434C26.5644 156.283 26.579 156.144 26.5936 156.004L26.843 153.627L27.8773 153.736L27.147 160.698L26.1127 160.589L26.1377 160.35C26.1544 160.191 26.168 160.062 26.2025 159.925C25.932 160.299 25.3799 160.673 24.5744 160.589ZM23.6898 157.902C23.5782 158.966 24.0721 159.722 24.8777 159.806C25.6633 159.888 26.3143 159.243 26.4259 158.179C26.5375 157.114 26.0426 156.369 25.247 156.285C24.4513 156.202 23.7994 156.857 23.6898 157.902ZM30.3916 161.199C28.9495 161.048 28.0907 160.032 28.266 158.362C28.4235 156.86 29.5286 155.91 30.8912 156.053C32.3432 156.205 33.0623 157.306 32.8985 158.868L32.8755 159.086L29.2852 158.71C29.207 159.647 29.7003 160.312 30.486 160.394C31.043 160.453 31.5585 160.235 31.7226 159.629L32.7669 159.739C32.5714 160.643 31.7342 161.34 30.3916 161.199ZM29.3724 157.975L31.8687 158.237C31.938 157.48 31.5447 156.916 30.7988 156.838C30.0728 156.761 29.5181 157.256 29.3724 157.975ZM33.5204 161.366L34.2507 154.404L35.285 154.513L34.5547 161.475L33.5204 161.366ZM37.8951 161.825L38.6254 154.863L41.4399 155.159C42.7726 155.298 43.8511 155.944 43.6936 157.446C43.5339 158.968 42.347 159.356 41.0143 159.216L39.3037 159.037L38.999 161.941L37.8951 161.825ZM39.4007 158.112L41.1113 158.291C42.0561 158.39 42.4888 158.003 42.5598 157.327C42.6307 156.651 42.2977 156.184 41.3429 156.083L39.6323 155.904L39.4007 158.112ZM45.5433 162.788C44.499 162.679 43.8827 161.94 44.0141 160.687L44.3355 157.624L45.3698 157.733L45.0672 160.617C44.9838 161.412 45.241 161.932 45.9272 162.004C46.6234 162.077 47.1163 161.596 47.2081 160.721L47.4981 157.956L48.5324 158.064L48.0264 162.888L47.0021 162.78L47.0281 162.532C47.0428 162.393 47.0683 162.244 47.1018 162.117C46.812 162.579 46.2693 162.864 45.5433 162.788ZM51.2692 163.389C49.8271 163.238 48.9683 162.222 49.1436 160.552C49.3011 159.05 50.4063 158.1 51.7688 158.243C53.2208 158.395 53.9399 159.496 53.7761 161.058L53.7531 161.277L50.1628 160.9C50.0847 161.837 50.578 162.502 51.3637 162.584C51.9206 162.643 52.4361 162.425 52.6002 161.819L53.6445 161.929C53.4491 162.833 52.6118 163.53 51.2692 163.389ZM50.25 160.165L52.7463 160.427C52.8156 159.67 52.4223 159.106 51.6764 159.028C50.9504 158.951 50.3958 159.446 50.25 160.165ZM54.398 163.556L54.904 158.733L55.9384 158.841L55.9081 159.13C55.8883 159.319 55.8695 159.498 55.8308 159.675C56.1368 159.154 56.6711 158.757 57.3971 158.833C57.4767 158.842 57.5563 158.85 57.6337 158.878L57.5284 159.883C57.4598 159.866 57.3624 159.835 57.2232 159.821C56.3878 159.733 55.8038 160.124 55.6921 161.188L55.4324 163.665L54.398 163.556ZM59.7429 164.197C58.8677 164.106 58.3158 163.615 58.4285 162.541L58.6977 159.975L57.6932 159.87L57.7808 159.034L58.7853 159.14L58.9606 157.469L59.9949 157.578L59.8196 159.248L60.9136 159.363L60.826 160.199L59.732 160.084L59.4774 162.51C59.4211 163.048 59.6348 163.311 60.1022 163.36C60.2215 163.373 60.3419 163.375 60.4733 163.369L60.3867 164.194C60.2334 164.219 59.9915 164.223 59.7429 164.197ZM63.2213 164.643C61.7991 164.493 60.9089 163.395 61.0737 161.823C61.2354 160.282 62.3484 159.353 63.7607 159.501C65.1829 159.65 66.0788 160.79 65.9171 162.331C65.7523 163.903 64.6435 164.792 63.2213 164.643ZM62.1279 161.934C62.0153 163.008 62.4704 163.749 63.3058 163.837C64.1412 163.925 64.7502 163.295 64.8629 162.221C64.9777 161.127 64.5006 160.403 63.6751 160.316C62.8596 160.231 62.2427 160.84 62.1279 161.934Z" fill="#909090"/>
<path d="M143.756 114.229L136.756 114.229L136.756 111.939C136.756 109.629 137.866 108.209 140.256 108.209C142.376 108.209 143.756 109.449 143.756 111.819L143.756 114.229ZM142.816 113.119L142.816 111.919C142.816 110.339 142.046 109.349 140.256 109.349C138.626 109.349 137.686 110.179 137.686 111.939L137.686 113.119L142.816 113.119ZM143.916 105.164C143.916 106.594 142.916 107.594 141.336 107.594C139.786 107.594 138.746 106.584 138.746 105.164C138.746 103.734 139.786 102.724 141.336 102.724C142.916 102.724 143.916 103.734 143.916 105.164ZM141.336 106.534C142.416 106.534 143.106 106.004 143.106 105.164C143.106 104.324 142.416 103.784 141.336 103.784C140.236 103.784 139.566 104.334 139.566 105.164C139.566 105.984 140.236 106.534 141.336 106.534ZM143.916 99.7096C143.916 101.14 142.986 102.14 141.326 102.14C139.746 102.14 138.746 101.06 138.746 99.6596C138.746 98.3796 139.516 97.5696 140.636 97.4596L140.636 98.5196C140.046 98.5796 139.566 98.9696 139.566 99.6696C139.566 100.49 140.266 101.08 141.326 101.08C142.386 101.08 143.106 100.52 143.106 99.6796C143.106 98.9496 142.646 98.5396 142.016 98.4596L142.016 97.4196C143.156 97.5496 143.916 98.3296 143.916 99.7096ZM143.836 94.719C143.836 95.599 143.406 96.199 142.326 96.199L139.746 96.199L139.746 97.209L138.906 97.209L138.906 96.199L137.226 96.199L137.226 95.159L138.906 95.159L138.906 94.059L139.746 94.059L139.746 95.159L142.186 95.159C142.726 95.159 142.966 94.919 142.966 94.449C142.966 94.329 142.956 94.209 142.936 94.079L143.766 94.079C143.806 94.229 143.836 94.469 143.836 94.719ZM143.916 91.2132C143.916 92.6432 142.916 93.6432 141.336 93.6432C139.786 93.6432 138.746 92.6332 138.746 91.2132C138.746 89.7832 139.786 88.7732 141.336 88.7732C142.916 88.7732 143.916 89.7832 143.916 91.2132ZM141.336 92.5832C142.416 92.5832 143.106 92.0532 143.106 91.2132C143.106 90.3732 142.416 89.8332 141.336 89.8332C140.236 89.8332 139.566 90.3832 139.566 91.2132C139.566 92.0332 140.236 92.5832 141.336 92.5832ZM143.756 87.8989L138.906 87.8989L138.906 86.8589L139.196 86.8589C139.386 86.8589 139.566 86.8589 139.746 86.8789C139.196 86.6289 138.746 86.1389 138.746 85.4089C138.746 85.3289 138.746 85.2489 138.766 85.1689L139.776 85.1689C139.766 85.2389 139.746 85.3389 139.746 85.4789C139.746 86.3189 140.196 86.8589 141.266 86.8589L143.756 86.8589L143.756 87.8989ZM143.916 81.2954C143.916 82.8554 142.956 83.5354 141.546 83.5354L141.546 82.4154C142.396 82.4054 142.986 82.1254 142.986 81.2954C142.986 80.4154 142.386 80.1354 141.506 80.1354L136.756 80.1354L136.756 79.0154L141.656 79.0154C143.086 79.0154 143.916 79.9254 143.916 81.2954ZM143.756 78.0322L142.426 78.0322L142.426 76.7022L143.756 76.7022L143.756 78.0322ZM143.916 73.9024C143.916 75.4624 142.956 76.1424 141.546 76.1424L141.546 75.0224C142.396 75.0124 142.986 74.7324 142.986 73.9024C142.986 73.0224 142.386 72.7424 141.506 72.7424L136.756 72.7424L136.756 71.6224L141.656 71.6224C143.086 71.6224 143.916 72.5324 143.916 73.9024ZM143.756 70.6392L142.426 70.6392L142.426 69.3092L143.756 69.3092L143.756 70.6392ZM143.756 66.3068L136.756 66.3068L136.756 64.0168C136.756 61.7068 137.866 60.2868 140.256 60.2868C142.376 60.2868 143.756 61.5268 143.756 63.8968L143.756 66.3068ZM142.816 65.1968L142.816 63.9968C142.816 62.4168 142.046 61.4268 140.256 61.4268C138.626 61.4268 137.686 62.2568 137.686 64.0168L137.686 65.1968L142.816 65.1968ZM143.916 57.2417C143.916 58.6717 142.916 59.6717 141.336 59.6717C139.786 59.6717 138.746 58.6617 138.746 57.2417C138.746 55.8117 139.786 54.8017 141.336 54.8017C142.916 54.8017 143.916 55.8117 143.916 57.2417ZM136.776 58.6217L136.776 57.3317L138.156 56.6517L138.156 57.5417L136.776 58.6217ZM141.336 58.6117C142.416 58.6117 143.106 58.0817 143.106 57.2417C143.106 56.4017 142.416 55.8617 141.336 55.8617C140.236 55.8617 139.566 56.4117 139.566 57.2417C139.566 58.0617 140.236 58.6117 141.336 58.6117ZM143.756 53.9274L138.906 53.9274L138.906 52.8874L139.206 52.8874C139.326 52.8874 139.456 52.8874 139.576 52.9074C139.126 52.6374 138.746 52.1674 138.746 51.4974C138.746 50.8774 139.136 50.3574 139.676 50.1274C139.156 49.8274 138.746 49.2574 138.746 48.5574C138.746 47.5774 139.436 46.8674 140.696 46.8674L143.756 46.8674L143.756 47.9074L140.866 47.9074C140.056 47.9074 139.566 48.1874 139.566 48.8174C139.566 49.4674 140.146 49.8774 140.896 49.8774L143.756 49.8774L143.756 50.9174L140.886 50.9174C140.066 50.9174 139.566 51.1874 139.566 51.8174C139.566 52.4574 140.136 52.8874 140.916 52.8874L143.756 52.8874L143.756 53.9274ZM143.756 45.7582L138.906 45.7582L138.906 44.7182L143.756 44.7182L143.756 45.7582ZM138.076 45.7982L136.926 45.7982L136.926 44.6682L138.076 44.6682L138.076 45.7982ZM143.756 43.5559L138.906 43.5559L138.906 42.5159L139.176 42.5159C139.306 42.5159 139.426 42.5259 139.576 42.5359C139.126 42.2759 138.746 41.7559 138.746 41.0459C138.746 39.9459 139.476 39.2959 140.696 39.2959L143.756 39.2959L143.756 40.3359L140.836 40.3359C140.026 40.3359 139.566 40.6559 139.566 41.3259C139.566 42.0459 140.156 42.5159 140.876 42.5159L143.756 42.5159L143.756 43.5559ZM143.916 36.0695C143.916 37.5195 142.996 38.4795 141.316 38.4795C139.806 38.4795 138.746 37.4795 138.746 36.1095C138.746 34.6495 139.766 33.8195 141.336 33.8195L141.556 33.8195L141.556 37.4295C142.496 37.4095 143.106 36.8495 143.106 36.0595C143.106 35.4995 142.836 35.0095 142.216 34.9095L142.216 33.8595C143.136 33.9595 143.916 34.7195 143.916 36.0695ZM140.816 37.4195L140.816 34.9095C140.056 34.9195 139.536 35.3695 139.536 36.1195C139.536 36.8495 140.086 37.3495 140.816 37.4195Z" fill="#909090"/>
<rect width="110.188" height="21.5" transform="translate(306.375 364.156)" fill="white"/>
<g clip-path="url(#clip1_152_742)">
<path d="M338.048 373.439H336.286V377.147H338.048V373.439Z" fill="black"/>
<path d="M345.5 368.422H343.734V382.163H345.5V368.422Z" fill="black"/>
<path d="M354.843 379.503V382.163H356.96L354.843 379.503Z" fill="black"/>
<path d="M369.192 378.789V382.395C369.804 382.327 370.392 382.225 370.954 382.084V378.786H369.192V378.789Z" fill="black"/>
<path d="M393.952 368.422H392.184V382.163H393.952V368.422Z" fill="black"/>
<path d="M326.951 368.422H325.189V382.163H326.951V368.422Z" fill="black"/>
<path d="M329.728 368.422H327.966V382.163H329.728V368.422Z" fill="black"/>
<path d="M335.273 373.439H333.511V377.147H335.273V373.439Z" fill="black"/>
<path d="M342.723 368.422H340.958V382.163H342.723V368.422Z" fill="black"/>
<path d="M355.388 376.011C355.688 375.654 355.918 375.248 356.089 374.784C356.256 374.322 356.342 373.795 356.342 373.203V373.184C356.342 372.261 356.181 371.492 355.859 370.876C355.605 370.392 355.26 369.996 354.843 369.669V376.538C355.04 376.377 355.227 376.204 355.388 376.008V376.011Z" fill="black"/>
<path d="M358.427 372.222C357.96 373.115 357.727 374.133 357.727 375.281V375.301C357.727 376.45 357.96 377.467 358.427 378.361C358.788 379.051 359.272 379.647 359.86 380.17V370.412C359.272 370.935 358.788 371.534 358.427 372.222Z" fill="black"/>
<path d="M374.739 370.406V380.18C375.331 379.654 375.821 379.055 376.179 378.361C376.643 377.468 376.873 376.45 376.873 375.301V375.282C376.873 374.133 376.639 373.115 376.179 372.222C375.821 371.528 375.331 370.929 374.739 370.402V370.406Z" fill="black"/>
<path d="M400.094 368.426H398.332V372.12H400.094V368.426Z" fill="black"/>
<path d="M397.32 368.426H395.558V372.12H397.32V368.426Z" fill="black"/>
<path d="M402.866 368.426H401.104V382.167H402.866V368.426Z" fill="black"/>
<path d="M405.64 368.426H403.878V382.167H405.64V368.426Z" fill="black"/>
<path d="M408.415 368.426H406.653V372.12H408.415V368.426Z" fill="black"/>
<path d="M411.191 368.419H409.423V372.113H411.191V368.419Z" fill="black"/>
<path d="M382.848 368.422H381.086V382.163H382.848V368.422Z" fill="black"/>
<path d="M380.075 368.422H378.312V382.163H380.075V368.422Z" fill="black"/>
<path d="M384.487 368.422H383.859V375.258L385.621 378.534V370.34L384.487 368.422Z" fill="black"/>
<path d="M386.637 372.051V380.419L387.574 382.163H388.399V375.029L386.637 372.051Z" fill="black"/>
<path d="M391.172 368.422H389.41V382.163H391.172V368.422Z" fill="black"/>
<path d="M332.501 373.439H330.739V377.147H332.501V373.439Z" fill="black"/>
<path d="M338.048 368.422H336.286V372.13H338.048V368.422Z" fill="black"/>
<path d="M332.501 368.422H330.739V372.13H332.501V368.422Z" fill="black"/>
<path d="M335.273 368.422H333.511V372.13H335.273V368.422Z" fill="black"/>
<path d="M348.278 368.422H346.513V372.005H348.278V368.422Z" fill="black"/>
<path d="M352.403 368.639C352.295 368.619 352.18 368.603 352.064 368.587V382.164H353.83V369.078C353.399 368.888 352.929 368.737 352.403 368.639Z" fill="black"/>
<path d="M346.513 374.401V378.482H347.486H348.275V374.401H346.513Z" fill="black"/>
<path d="M370.951 371.908V368.494C370.393 368.354 369.804 368.252 369.189 368.184V371.904H370.951V371.908Z" fill="black"/>
<path d="M371.964 368.818V381.767C372.605 381.538 373.193 381.264 373.726 380.933V369.65C373.197 369.322 372.608 369.044 371.964 368.815V368.818Z" fill="black"/>
<path d="M360.872 369.652V380.926C361.401 381.256 361.99 381.534 362.634 381.763V368.818C361.99 369.047 361.405 369.325 360.872 369.655V369.652Z" fill="black"/>
<path d="M368.18 371.907V368.098C367.894 368.082 367.605 368.069 367.306 368.069C367.006 368.069 366.711 368.082 366.418 368.098V371.907H368.18Z" fill="black"/>
<path d="M367.306 378.79H366.418V382.484C366.707 382.5 367.003 382.514 367.306 382.514C367.608 382.514 367.894 382.5 368.18 382.484V378.79H367.306Z" fill="black"/>
<path d="M363.876 371.908H365.405V368.187C364.793 368.255 364.205 368.357 363.643 368.498V371.908H363.873H363.876Z" fill="black"/>
<path d="M363.876 378.79H363.646V382.085C364.204 382.226 364.793 382.327 365.408 382.396V378.79H363.879H363.876Z" fill="black"/>
<path d="M349.286 374.401V380.079L351.051 381.987V374.401H349.286Z" fill="black"/>
<path d="M351.051 372.009V368.475C350.756 368.452 350.45 368.432 350.134 368.426H349.286V372.009H351.051Z" fill="black"/>
</g>
<path d="M312.915 381.392C312.039 380.276 311.283 378.548 311.283 376.244C311.283 373.952 312.039 372.2 312.915 371.084H313.875C313.011 372.476 312.339 374.06 312.339 376.232C312.339 378.416 313.011 380.012 313.875 381.392H312.915ZM316.349 373.952V373.124C315.953 373.76 315.185 374.3 314.333 374.336V373.28C315.305 373.172 316.265 372.356 316.541 371.444H317.405V379.844H316.349V373.952ZM319.589 371.084C320.465 372.2 321.221 373.928 321.221 376.232C321.221 378.524 320.465 380.276 319.589 381.392H318.629C319.493 380 320.165 378.416 320.165 376.244C320.165 374.06 319.493 372.464 318.629 371.084H319.589Z" fill="black"/>
<path d="M232.318 497.751C232.207 499.788 230.767 501.052 228.43 500.925C226.223 500.806 224.895 499.262 225 497.314C225.092 495.617 226.166 494.473 227.692 494.406L227.628 495.584C226.651 495.681 225.997 496.297 225.938 497.385C225.866 498.713 226.825 499.687 228.492 499.777C230.19 499.869 231.309 498.998 231.38 497.69C231.438 496.602 230.818 495.847 229.868 495.635L229.93 494.507C231.478 494.771 232.413 495.984 232.318 497.751ZM232.356 494.088L231.028 494.016L231.1 492.688L232.428 492.76L232.356 494.088ZM232.846 487.993C232.777 489.271 231.827 490.171 230.15 490.08C228.552 489.993 227.617 488.951 227.685 487.693C227.727 486.914 228.164 486.437 228.597 486.21C228.446 486.222 228.306 486.215 228.166 486.207L225.78 486.078L225.836 485.039L232.826 485.418L232.769 486.456L232.53 486.443C232.37 486.435 232.24 486.428 232.102 486.4C232.488 486.651 232.89 487.184 232.846 487.993ZM230.207 489.012C231.276 489.069 232.006 488.538 232.05 487.729C232.092 486.94 231.415 486.323 230.346 486.265C229.278 486.207 228.558 486.739 228.515 487.538C228.471 488.337 229.159 488.955 230.207 489.012ZM233.163 482.152C233.084 483.6 232.114 484.509 230.436 484.418C228.929 484.336 227.924 483.28 227.998 481.912C228.077 480.455 229.141 479.681 230.708 479.766L230.928 479.778L230.733 483.383C231.673 483.413 232.312 482.887 232.355 482.098C232.385 481.539 232.142 481.035 231.528 480.902L231.585 479.853C232.498 480.003 233.236 480.804 233.163 482.152ZM229.994 483.333L230.13 480.826C229.371 480.795 228.827 481.216 228.787 481.965C228.747 482.694 229.269 483.223 229.994 483.333ZM233.283 476.986L226.293 476.607L226.349 475.568L233.339 475.947L233.283 476.986ZM233.637 473.397C233.59 474.276 232.988 475.034 232.059 474.984C231.041 474.929 230.675 474.108 230.596 473.152L230.513 472.277C230.484 471.894 230.351 471.757 230.082 471.742C229.652 471.719 229.324 472.042 229.295 472.581C229.26 473.24 229.599 473.629 230.147 473.689L230.089 474.747C229.143 474.646 228.435 473.846 228.503 472.608C228.575 471.27 229.359 470.672 230.597 470.739L233.612 470.902L233.56 471.871L233.34 471.859C233.19 471.851 233.051 471.833 232.902 471.815C233.378 472.091 233.68 472.618 233.637 473.397ZM232.087 473.914C232.556 473.94 232.846 473.585 232.871 473.125C232.909 472.416 232.439 471.85 231.7 471.81L231.081 471.777C231.177 471.862 231.227 472.045 231.261 472.337L231.341 472.892C231.42 473.467 231.618 473.889 232.087 473.914ZM233.861 466.319L227.8 465.991L227.671 468.367L226.742 468.317L227.059 462.466L227.988 462.516L227.86 464.882L233.921 465.211L233.861 466.319ZM234.027 463.255L229.184 462.993L229.24 461.954L229.53 461.97C229.72 461.98 229.899 461.99 230.078 462.019C229.542 461.74 229.119 461.226 229.159 460.498C229.163 460.418 229.168 460.338 229.192 460.259L230.2 460.314C230.187 460.383 230.161 460.482 230.154 460.622C230.108 461.46 230.528 462.024 231.597 462.082L234.083 462.217L234.027 463.255ZM234.439 458.604C234.392 459.482 233.79 460.241 232.861 460.191C231.842 460.135 231.476 459.314 231.398 458.359L231.315 457.483C231.286 457.101 231.153 456.963 230.883 456.949C230.454 456.926 230.126 457.248 230.097 457.788C230.061 458.447 230.401 458.835 230.948 458.895L230.891 459.954C229.945 459.852 229.237 459.053 229.304 457.815C229.377 456.477 230.16 455.878 231.399 455.945L234.414 456.109L234.362 457.077L234.142 457.065C233.992 457.057 233.853 457.04 233.704 457.022C234.179 457.298 234.481 457.825 234.439 458.604ZM232.889 459.121C233.358 459.146 233.648 458.791 233.673 458.332C233.711 457.623 233.241 457.057 232.502 457.017L231.883 456.983C231.979 457.068 232.029 457.251 232.063 457.544L232.143 458.099C232.222 458.674 232.42 459.095 232.889 459.121ZM234.537 453.844L229.594 455.419L229.655 454.301L233.062 453.334C233.276 453.265 233.428 453.233 233.621 453.194C233.434 453.134 233.287 453.076 233.081 452.994L229.797 451.685L229.855 450.606L234.6 452.676L234.537 453.844ZM234.999 448.279C234.92 449.727 233.95 450.636 232.272 450.545C230.764 450.463 229.76 449.407 229.834 448.039C229.913 446.582 230.976 445.808 232.544 445.893L232.764 445.905L232.569 449.51C233.508 449.54 234.148 449.014 234.19 448.225C234.221 447.666 233.978 447.162 233.364 447.029L233.421 445.981C234.334 446.13 235.072 446.931 234.999 448.279ZM231.83 449.46L231.966 446.953C231.207 446.922 230.663 447.343 230.622 448.092C230.583 448.821 231.105 449.35 231.83 449.46ZM235.266 443.337C235.194 444.675 234.442 445.436 233.351 445.427L233.407 444.388C234.028 444.392 234.439 444.014 234.477 443.305C234.51 442.695 234.252 442.281 233.823 442.258C233.473 442.239 233.259 442.497 233.119 443.041L232.954 443.693C232.722 444.642 232.221 445.195 231.443 445.153C230.614 445.108 230.037 444.286 230.1 443.137C230.166 441.909 230.826 441.184 231.828 441.188L231.771 442.227C231.24 442.248 230.919 442.611 230.887 443.21C230.859 443.729 231.069 444.101 231.448 444.122C231.788 444.14 231.971 443.91 232.112 443.337L232.278 442.675C232.507 441.776 232.969 441.19 233.798 441.235C234.697 441.283 235.334 442.089 235.266 443.337ZM235.264 440.431L230.421 440.169L230.477 439.13L235.32 439.393L235.264 440.431ZM229.674 440.098L228.335 439.294L228.402 438.066L229.721 439.229L229.674 440.098ZM235.618 436.843C235.571 437.721 234.969 438.48 234.04 438.43C233.022 438.374 232.656 437.553 232.577 436.598L232.495 435.722C232.465 435.34 232.332 435.202 232.063 435.188C231.633 435.165 231.305 435.487 231.276 436.026C231.241 436.686 231.58 437.074 232.128 437.134L232.07 438.193C231.124 438.091 230.417 437.292 230.484 436.054C230.556 434.716 231.34 434.117 232.578 434.184L235.593 434.348L235.541 435.316L235.321 435.304C235.171 435.296 235.032 435.279 234.883 435.261C235.359 435.537 235.661 436.064 235.618 436.843ZM234.068 437.36C234.538 437.385 234.827 437.03 234.852 436.571C234.89 435.862 234.42 435.296 233.681 435.256L233.062 435.222C233.158 435.307 233.208 435.49 233.242 435.783L233.322 436.338C233.401 436.913 233.599 437.334 234.068 437.36Z" fill="#909090"/>
</g>
<defs>
<clipPath id="clip0_152_742">
<rect width="430" height="615.438" fill="white"/>
</clipPath>
<clipPath id="clip1_152_742">
<rect width="86.0044" height="14.4445" fill="white" transform="translate(325.189 368.069)"/>
</clipPath>
</defs>
</svg>
