<svg width="320" height="458" viewBox="0 0 320 458" fill="none" xmlns="http://www.w3.org/2000/svg">
<g clip-path="url(#clip0_152_816)">
<rect width="213.299" height="22.3621" transform="matrix(-0.0226339 -0.999744 0.99963 -0.0271915 110.119 393.655)" fill="#D9D9D9"/>
<rect width="109.157" height="22.3697" transform="matrix(0.0576859 -0.998335 0.997599 0.0692581 138.935 391.975)" fill="#D9D9D9"/>
<rect x="112.735" y="112.817" width="117.489" height="22.3607" transform="rotate(-87.9052 112.735 112.817)" fill="#D9D9D9"/>
<path d="M198.408 206.316L274.06 206.846L285.797 260.409L297.534 313.972L197.658 313.272L198.408 206.316Z" fill="#D9D9D9"/>
<rect x="144.648" y="206.38" width="50.7037" height="106.989" transform="rotate(0.400474 144.648 206.38)" fill="#D9D9D9"/>
<rect x="53.7002" y="168.757" width="27.2121" height="12.3565" transform="rotate(-173.251 53.7002 168.757)" fill="#D9D9D9"/>
<rect x="141.066" y="77.4546" width="27.2121" height="12.3565" transform="rotate(-87.8391 141.066 77.4546)" fill="#D9D9D9"/>
<rect x="89.8818" y="294.424" width="27.2121" height="12.3565" transform="rotate(-88.0274 89.8818 294.424)" fill="#D9D9D9"/>
<path d="M137.5 377C158.211 377 175 393.789 175 414.5C175 435.211 158.211 452 137.5 452C116.789 452 100 435.211 100 414.5C100 393.789 116.789 377 137.5 377ZM137.444 397C127.81 397 120 404.81 120 414.444C120 424.078 127.81 431.888 137.444 431.888C147.078 431.887 154.888 424.078 154.888 414.444C154.888 404.81 147.078 397 137.444 397Z" fill="#D9D9D9"/>
<rect x="208.845" y="105.331" width="45.1654" height="18.6307" transform="rotate(90 208.845 105.331)" fill="#D9D9D9"/>
<path d="M200.093 84.4419L214.517 109.424H185.67L200.093 84.4419Z" fill="#D9D9D9"/>
<circle cx="199.899" cy="121.755" r="4.27229" fill="#D9D9D9"/>
<path d="M-18.4349 118.374L92.0563 130.936L89.443 153.144L-19.9759 140.288L-18.4349 118.374Z" fill="#D9D9D9"/>
<path d="M120.425 89.9998C150.483 89.9998 174.851 114.367 174.851 144.426C174.85 174.483 150.483 198.85 120.425 198.85C90.3669 198.85 66.0002 174.483 66 144.426C66 114.367 90.3668 89.9999 120.425 89.9998ZM121.352 119C107.35 119 96 130.351 96 144.352C96.0002 158.353 107.35 169.704 121.352 169.704C135.353 169.704 146.704 158.354 146.704 144.352C146.704 130.351 135.353 119 121.352 119Z" fill="#D9D9D9"/>
<path d="M160.83 79.2898C160.1 78.3598 159.47 76.9198 159.47 74.9998C159.47 73.0898 160.1 71.6298 160.83 70.6998H161.63C160.91 71.8598 160.35 73.1798 160.35 74.9898C160.35 76.8098 160.91 78.1398 161.63 79.2898H160.83ZM163.142 77.9998C163.322 75.5998 164.172 73.4798 165.772 71.7998H161.972V70.9998H166.602V71.8598C165.222 73.3898 164.172 75.6298 164.082 77.9998H163.142ZM167.769 70.6998C168.499 71.6298 169.129 73.0698 169.129 74.9898C169.129 76.8998 168.499 78.3598 167.769 79.2898H166.969C167.689 78.1298 168.249 76.8098 168.249 74.9998C168.249 73.1798 167.689 71.8498 166.969 70.6998H167.769Z" fill="black"/>
<path d="M13.83 171.29C13.1 170.36 12.47 168.92 12.47 167C12.47 165.09 13.1 163.63 13.83 162.7H14.63C13.91 163.86 13.35 165.18 13.35 166.99C13.35 168.81 13.91 170.14 14.63 171.29H13.83ZM16.1418 170C16.3218 167.6 17.1718 165.48 18.7718 163.8H14.9718V163H19.6018V163.86C18.2218 165.39 17.1718 167.63 17.0818 170H16.1418ZM20.769 162.7C21.499 163.63 22.129 165.07 22.129 166.99C22.129 168.9 21.499 170.36 20.769 171.29H19.969C20.689 170.13 21.249 168.81 21.249 167C21.249 165.18 20.689 163.85 19.969 162.7H20.769Z" fill="black"/>
<path d="M75.83 293.29C75.1 292.36 74.47 290.92 74.47 289C74.47 287.09 75.1 285.63 75.83 284.7H76.63C75.91 285.86 75.35 287.18 75.35 288.99C75.35 290.81 75.91 292.14 76.63 293.29H75.83ZM78.1418 292C78.3218 289.6 79.1718 287.48 80.7718 285.8H76.9718V285H81.6018V285.86C80.2218 287.39 79.1718 289.63 79.0818 292H78.1418ZM82.769 284.7C83.499 285.63 84.129 287.07 84.129 288.99C84.129 290.9 83.499 292.36 82.769 293.29H81.969C82.689 292.13 83.249 290.81 83.249 289C83.249 287.18 82.689 285.85 81.969 284.7H82.769Z" fill="black"/>
<path d="M205.83 203.29C205.1 202.36 204.47 200.92 204.47 199C204.47 197.09 205.1 195.63 205.83 194.7H206.63C205.91 195.86 205.35 197.18 205.35 198.99C205.35 200.81 205.91 202.14 206.63 203.29H205.83ZM209.782 202.15C207.952 202.15 207.262 200.6 207.262 198.66C207.262 196.5 208.162 194.84 210.082 194.84C211.322 194.84 212.152 195.59 212.162 196.69H211.272C211.252 196 210.782 195.54 210.062 195.54C208.892 195.54 208.232 196.46 208.152 198.16C208.142 198.26 208.142 198.37 208.142 198.48C208.442 197.91 209.142 197.41 210.002 197.41C211.302 197.41 212.172 198.41 212.172 199.74C212.172 201.14 211.132 202.15 209.782 202.15ZM208.302 199.72C208.302 200.92 208.952 201.48 209.782 201.48C210.632 201.48 211.262 200.79 211.262 199.75C211.262 198.86 210.712 198.12 209.832 198.12C208.952 198.12 208.302 198.83 208.302 199.72ZM213.619 194.7C214.349 195.63 214.979 197.07 214.979 198.99C214.979 200.9 214.349 202.36 213.619 203.29H212.819C213.539 202.13 214.099 200.81 214.099 199C214.099 197.18 213.539 195.85 212.819 194.7H213.619Z" fill="black"/>
<path d="M214.83 151.29C214.1 150.36 213.47 148.92 213.47 147C213.47 145.09 214.1 143.63 214.83 142.7H215.63C214.91 143.86 214.35 145.18 214.35 146.99C214.35 148.81 214.91 150.14 215.63 151.29H214.83ZM218.542 150.15C217.102 150.15 216.202 149.33 216.202 148.13H217.102C217.102 148.92 217.622 149.44 218.512 149.44C219.522 149.44 220.112 148.76 220.112 147.72C220.112 146.73 219.572 146.04 218.632 146.04C217.892 146.04 217.312 146.56 217.152 146.97H216.312L216.822 143H220.632V143.8H217.482L217.252 145.57C217.232 145.71 217.212 145.93 217.192 146.09C217.542 145.63 218.162 145.33 218.842 145.33C220.132 145.33 221.022 146.35 221.022 147.66C221.022 149.12 220.042 150.15 218.542 150.15ZM222.355 142.7C223.085 143.63 223.715 145.07 223.715 146.99C223.715 148.9 223.085 150.36 222.355 151.29H221.555C222.275 150.13 222.835 148.81 222.835 147C222.835 145.18 222.275 143.85 221.555 142.7H222.355Z" fill="black"/>
<path d="M152.242 263.921C151.512 262.991 150.882 261.551 150.882 259.631C150.882 257.721 151.512 256.261 152.242 255.331H153.042C152.322 256.491 151.762 257.811 151.762 259.621C151.762 261.441 152.322 262.771 153.042 263.921H152.242ZM156.634 262.631V260.841H153.424V259.991L156.334 255.631H157.514V260.041H158.804V260.841H157.514V262.631H156.634ZM154.254 260.041H156.634V256.421L156.334 256.901L154.484 259.691C154.414 259.791 154.334 259.921 154.254 260.041ZM159.796 255.331C160.526 256.261 161.156 257.701 161.156 259.621C161.156 261.531 160.526 262.991 159.796 263.921H158.996C159.716 262.761 160.276 261.441 160.276 259.631C160.276 257.811 159.716 256.481 158.996 255.331H159.796Z" fill="black"/>
<path d="M205.55 301.599C204.82 300.669 204.19 299.229 204.19 297.309C204.19 295.399 204.82 293.939 205.55 293.009H206.35C205.63 294.169 205.07 295.489 205.07 297.299C205.07 299.119 205.63 300.449 206.35 301.599H205.55ZM209.332 300.459C207.842 300.459 206.922 299.589 206.922 298.289H207.812C207.812 299.119 208.352 299.749 209.332 299.749C210.252 299.749 210.902 299.229 210.902 298.359C210.902 297.499 210.212 297.039 209.362 297.039H208.952V296.269H209.372C210.112 296.269 210.722 295.839 210.722 295.029C210.722 294.289 210.192 293.869 209.402 293.869C208.462 293.869 207.952 294.389 207.932 295.269H207.032C207.062 294.009 207.912 293.149 209.412 293.149C210.682 293.149 211.632 293.909 211.632 294.989C211.632 295.709 211.202 296.339 210.362 296.619C211.322 296.879 211.812 297.529 211.812 298.389C211.812 299.609 210.782 300.459 209.332 300.459ZM213.231 293.009C213.961 293.939 214.591 295.379 214.591 297.299C214.591 299.209 213.961 300.669 213.231 301.599H212.431C213.151 300.439 213.711 299.119 213.711 297.309C213.711 295.489 213.151 294.159 212.431 293.009H213.231Z" fill="black"/>
<path d="M281.83 302.064C281.1 301.134 280.47 299.694 280.47 297.774C280.47 295.864 281.1 294.404 281.83 293.474H282.63C281.91 294.634 281.35 295.954 281.35 297.764C281.35 299.584 281.91 300.914 282.63 302.064H281.83ZM283.202 300.774C283.202 299.874 283.572 299.284 284.662 298.454L285.612 297.724C286.202 297.264 286.932 296.624 286.932 295.734C286.932 294.934 286.442 294.334 285.602 294.334C284.752 294.334 284.172 294.934 284.172 296.084V296.214H283.272V295.984C283.272 294.484 284.292 293.614 285.602 293.614C286.902 293.614 287.842 294.424 287.842 295.724C287.842 296.774 287.212 297.524 285.892 298.524L285.402 298.894C284.752 299.384 284.362 299.714 284.292 299.974H287.962V300.774H283.202ZM289.326 293.474C290.056 294.404 290.686 295.844 290.686 297.764C290.686 299.674 290.056 301.134 289.326 302.064H288.526C289.246 300.904 289.806 299.584 289.806 297.774C289.806 295.954 289.246 294.624 288.526 293.474H289.326Z" fill="black"/>
<path d="M5.18169 118.902L8.73648 112.236L10.0294 112.372L12.1336 119.631L10.9003 119.502L10.3631 117.434L7.31976 117.115L6.35525 119.025L5.18169 118.902ZM7.76487 116.227L10.112 116.473L9.4369 113.898C9.37243 113.65 9.32367 113.444 9.26811 113.207C9.17449 113.428 9.06308 113.628 8.95952 113.848L7.76487 116.227ZM13.6137 119.786L12.2897 114.771L13.4036 114.888L14.1979 118.339C14.2555 118.557 14.2796 118.71 14.3095 118.904C14.3791 118.72 14.4445 118.576 14.536 118.375L16.0093 115.161L17.0834 115.274L14.7773 119.908L13.6137 119.786ZM16.6078 120.1L16.7466 118.778L18.0693 118.916L17.9306 120.239L16.6078 120.1ZM22.6702 120.897C21.3972 120.764 20.5463 119.769 20.7215 118.099C20.8885 116.507 21.9763 115.626 23.2295 115.757C24.0052 115.839 24.4597 116.299 24.6645 116.743C24.6603 116.591 24.6749 116.452 24.6895 116.313L24.9388 113.936L25.9732 114.044L25.2429 121.006L24.2085 120.898L24.2336 120.659C24.2503 120.5 24.2638 120.371 24.2983 120.233C24.0279 120.607 23.4758 120.982 22.6702 120.897ZM21.7857 118.21C21.6741 119.274 22.1679 120.03 22.9735 120.115C23.7592 120.197 24.4101 119.551 24.5217 118.487C24.6334 117.423 24.1385 116.677 23.3428 116.594C22.5472 116.51 21.8952 117.166 21.7857 118.21ZM28.4874 121.507C27.0453 121.356 26.1866 120.341 26.3618 118.67C26.5194 117.168 27.6245 116.219 28.987 116.361C30.439 116.514 31.1581 117.615 30.9943 119.176L30.9714 119.395L27.3811 119.018C27.3029 119.955 27.7962 120.62 28.5819 120.703C29.1388 120.761 29.6543 120.544 29.8185 119.938L30.8627 120.047C30.6673 120.952 29.8301 121.648 28.4874 121.507ZM27.4682 118.283L29.9645 118.545C30.0338 117.788 29.6406 117.224 28.8946 117.146C28.1686 117.07 27.614 117.565 27.4682 118.283ZM31.6163 121.675L32.3465 114.713L33.3809 114.821L32.6506 121.783L31.6163 121.675ZM35.9909 122.134L36.7212 115.172L39.5358 115.467C40.8685 115.607 41.9469 116.253 41.7894 117.755C41.6298 119.276 40.4428 119.665 39.1101 119.525L37.3995 119.345L37.0949 122.249L35.9909 122.134ZM37.4965 118.42L39.2071 118.6C40.152 118.699 40.5847 118.312 40.6556 117.636C40.7266 116.959 40.3935 116.492 39.4387 116.392L37.7281 116.213L37.4965 118.42ZM43.6391 123.097C42.5949 122.987 41.9785 122.249 42.11 120.996L42.4313 117.933L43.4656 118.041L43.1631 120.925C43.0796 121.721 43.3368 122.241 44.023 122.313C44.7192 122.386 45.2121 121.904 45.3039 121.029L45.594 118.264L46.6283 118.373L46.1223 123.196L45.0979 123.089L45.124 122.84C45.1386 122.701 45.1642 122.553 45.1976 122.426C44.9078 122.888 44.3652 123.173 43.6391 123.097ZM49.3651 123.697C47.923 123.546 47.0642 122.531 47.2395 120.86C47.397 119.358 48.5021 118.409 49.8646 118.551C51.3167 118.704 52.0357 119.805 51.8719 121.366L51.849 121.585L48.2587 121.208C48.1805 122.145 48.6738 122.81 49.4595 122.893C50.0165 122.951 50.5319 122.734 50.6961 122.128L51.7404 122.237C51.5449 123.142 50.7077 123.838 49.3651 123.697ZM48.3458 120.474L50.8421 120.735C50.9115 119.978 50.5182 119.414 49.7723 119.336C49.0463 119.26 48.4916 119.755 48.3458 120.474ZM52.4939 123.865L52.9999 119.041L54.0342 119.15L54.0039 119.438C53.9841 119.627 53.9653 119.806 53.9267 119.983C54.2327 119.462 54.767 119.066 55.493 119.142C55.5725 119.15 55.6521 119.159 55.7296 119.187L55.6242 120.191C55.5556 120.174 55.4583 120.144 55.319 120.129C54.4836 120.041 53.8996 120.433 53.788 121.497L53.5282 123.973L52.4939 123.865ZM57.8388 124.506C56.9636 124.414 56.4117 123.924 56.5244 122.85L56.7935 120.284L55.789 120.178L55.8767 119.343L56.8812 119.448L57.0564 117.778L58.0908 117.886L57.9155 119.557L59.0095 119.672L58.9218 120.507L57.8278 120.392L57.5733 122.819C57.517 123.356 57.7306 123.62 58.198 123.669C58.3174 123.681 58.4378 123.684 58.5692 123.678L58.4826 124.503C58.3292 124.527 58.0874 124.532 57.8388 124.506ZM61.3171 124.951C59.8949 124.802 59.0047 123.703 59.1696 122.132C59.3313 120.59 60.4443 119.661 61.8565 119.809C63.2787 119.959 64.1747 121.098 64.013 122.64C63.8481 124.211 62.7393 125.1 61.3171 124.951ZM60.2238 122.242C60.1111 123.316 60.5662 124.058 61.4016 124.146C62.2371 124.233 62.8461 123.603 62.9588 122.529C63.0735 121.435 62.5964 120.712 61.771 120.625C60.9554 120.539 60.3385 121.148 60.2238 122.242Z" fill="#909090"/>
<path d="M107.865 84.7928L100.865 84.7928L100.865 82.5028C100.865 80.1928 101.975 78.7728 104.365 78.7728C106.485 78.7728 107.865 80.0128 107.865 82.3828L107.865 84.7928ZM106.925 83.6828L106.925 82.4828C106.925 80.9028 106.155 79.9128 104.365 79.9128C102.735 79.9128 101.795 80.7428 101.795 82.5028L101.795 83.6828L106.925 83.6828ZM108.025 75.7277C108.025 77.1577 107.025 78.1577 105.445 78.1577C103.895 78.1577 102.855 77.1477 102.855 75.7277C102.855 74.2977 103.895 73.2877 105.445 73.2877C107.025 73.2877 108.025 74.2977 108.025 75.7277ZM105.445 77.0977C106.525 77.0977 107.215 76.5677 107.215 75.7277C107.215 74.8877 106.525 74.3477 105.445 74.3477C104.345 74.3477 103.675 74.8977 103.675 75.7277C103.675 76.5477 104.345 77.0977 105.445 77.0977ZM108.025 70.2734C108.025 71.7034 107.095 72.7034 105.435 72.7034C103.855 72.7034 102.855 71.6234 102.855 70.2234C102.855 68.9434 103.625 68.1334 104.745 68.0234L104.745 69.0834C104.155 69.1434 103.675 69.5334 103.675 70.2334C103.675 71.0534 104.375 71.6434 105.435 71.6434C106.495 71.6434 107.215 71.0834 107.215 70.2434C107.215 69.5134 106.755 69.1034 106.125 69.0234L106.125 67.9834C107.265 68.1134 108.025 68.8934 108.025 70.2734ZM107.945 65.2827C107.945 66.1627 107.515 66.7627 106.435 66.7627L103.855 66.7627L103.855 67.7727L103.015 67.7727L103.015 66.7627L101.335 66.7627L101.335 65.7227L103.015 65.7227L103.015 64.6227L103.855 64.6227L103.855 65.7227L106.295 65.7227C106.835 65.7227 107.075 65.4827 107.075 65.0127C107.075 64.8927 107.065 64.7727 107.045 64.6427L107.875 64.6427C107.915 64.7927 107.945 65.0327 107.945 65.2827ZM108.025 61.7769C108.025 63.2069 107.025 64.2069 105.445 64.2069C103.895 64.2069 102.855 63.1969 102.855 61.7769C102.855 60.3469 103.895 59.3369 105.445 59.3369C107.025 59.3369 108.025 60.3469 108.025 61.7769ZM105.445 63.1469C106.525 63.1469 107.215 62.6169 107.215 61.7769C107.215 60.9369 106.525 60.3969 105.445 60.3969C104.345 60.3969 103.675 60.9469 103.675 61.7769C103.675 62.5969 104.345 63.1469 105.445 63.1469ZM107.865 58.4626L103.015 58.4626L103.015 57.4226L103.305 57.4226C103.495 57.4226 103.675 57.4226 103.855 57.4426C103.305 57.1926 102.855 56.7026 102.855 55.9726C102.855 55.8926 102.855 55.8126 102.875 55.7326L103.885 55.7326C103.875 55.8026 103.855 55.9026 103.855 56.0426C103.855 56.8826 104.305 57.4226 105.375 57.4226L107.865 57.4226L107.865 58.4626ZM108.025 51.8591C108.025 53.4191 107.065 54.0991 105.655 54.0991L105.655 52.9791C106.505 52.9691 107.095 52.6891 107.095 51.8591C107.095 50.9791 106.495 50.6991 105.615 50.6991L100.865 50.6991L100.865 49.5791L105.765 49.5791C107.195 49.5791 108.025 50.4891 108.025 51.8591ZM107.865 48.5959L106.535 48.5959L106.535 47.2659L107.865 47.2659L107.865 48.5959ZM108.025 44.4662C108.025 46.0262 107.065 46.7062 105.655 46.7062L105.655 45.5862C106.505 45.5762 107.095 45.2962 107.095 44.4662C107.095 43.5862 106.495 43.3062 105.615 43.3062L100.865 43.3062L100.865 42.1862L105.765 42.1862C107.195 42.1862 108.025 43.0962 108.025 44.4662ZM107.865 41.203L106.535 41.203L106.535 39.873L107.865 39.873L107.865 41.203ZM107.865 36.8705L100.865 36.8705L100.865 34.5805C100.865 32.2705 101.975 30.8505 104.365 30.8505C106.485 30.8505 107.865 32.0905 107.865 34.4605L107.865 36.8705ZM106.925 35.7605L106.925 34.5605C106.925 32.9805 106.155 31.9905 104.365 31.9905C102.735 31.9905 101.795 32.8205 101.795 34.5805L101.795 35.7605L106.925 35.7605ZM108.025 27.8054C108.025 29.2354 107.025 30.2354 105.445 30.2354C103.895 30.2354 102.855 29.2254 102.855 27.8054C102.855 26.3754 103.895 25.3654 105.445 25.3654C107.025 25.3654 108.025 26.3754 108.025 27.8054ZM100.885 29.1854L100.885 27.8954L102.265 27.2154L102.265 28.1054L100.885 29.1854ZM105.445 29.1754C106.525 29.1754 107.215 28.6454 107.215 27.8054C107.215 26.9654 106.525 26.4254 105.445 26.4254C104.345 26.4254 103.675 26.9754 103.675 27.8054C103.675 28.6254 104.345 29.1754 105.445 29.1754ZM107.865 24.4911L103.015 24.4911L103.015 23.4511L103.315 23.4511C103.435 23.4511 103.565 23.4511 103.685 23.4711C103.235 23.2011 102.855 22.7311 102.855 22.0611C102.855 21.4411 103.245 20.9211 103.785 20.6911C103.265 20.3911 102.855 19.8211 102.855 19.1211C102.855 18.1411 103.545 17.4311 104.805 17.4311L107.865 17.4311L107.865 18.4711L104.975 18.4711C104.165 18.4711 103.675 18.7511 103.675 19.3811C103.675 20.0311 104.255 20.4411 105.005 20.4411L107.865 20.4411L107.865 21.4811L104.995 21.4811C104.175 21.4811 103.675 21.7511 103.675 22.3811C103.675 23.0211 104.245 23.4511 105.025 23.4511L107.865 23.4511L107.865 24.4911ZM107.865 16.322L103.015 16.322L103.015 15.282L107.865 15.282L107.865 16.322ZM102.185 16.362L101.035 16.362L101.035 15.232L102.185 15.232L102.185 16.362ZM107.865 14.1196L103.015 14.1196L103.015 13.0796L103.285 13.0796C103.415 13.0796 103.535 13.0896 103.685 13.0996C103.235 12.8396 102.855 12.3196 102.855 11.6096C102.855 10.5096 103.585 9.85961 104.805 9.85961L107.865 9.85961L107.865 10.8996L104.945 10.8996C104.135 10.8996 103.675 11.2196 103.675 11.8896C103.675 12.6096 104.265 13.0796 104.985 13.0796L107.865 13.0796L107.865 14.1196ZM108.025 6.6332C108.025 8.0832 107.105 9.0432 105.425 9.0432C103.915 9.0432 102.855 8.0432 102.855 6.6732C102.855 5.2132 103.875 4.3832 105.445 4.3832L105.665 4.3832L105.665 7.9932C106.605 7.9732 107.215 7.4132 107.215 6.6232C107.215 6.0632 106.945 5.5732 106.325 5.4732L106.325 4.4232C107.245 4.5232 108.025 5.2832 108.025 6.6332ZM104.925 7.9832L104.925 5.4732C104.165 5.4832 103.645 5.9332 103.645 6.6832C103.645 7.4132 104.195 7.9132 104.925 7.9832Z" fill="#909090"/>
<rect width="82" height="16" transform="translate(228 271)" fill="white"/>
<g clip-path="url(#clip1_152_816)">
<path d="M251.571 277.908H250.26V280.667H251.571V277.908Z" fill="black"/>
<path d="M257.116 274.175H255.803V284.4H257.116V274.175Z" fill="black"/>
<path d="M264.07 282.421V284.401H265.646L264.07 282.421Z" fill="black"/>
<path d="M274.748 281.89V284.573C275.203 284.522 275.641 284.447 276.059 284.342V281.887H274.748V281.89Z" fill="black"/>
<path d="M293.175 274.175H291.858V284.4H293.175V274.175Z" fill="black"/>
<path d="M243.313 274.175H242.002V284.4H243.313V274.175Z" fill="black"/>
<path d="M245.38 274.175H244.068V284.4H245.38V274.175Z" fill="black"/>
<path d="M249.507 277.908H248.195V280.667H249.507V277.908Z" fill="black"/>
<path d="M255.05 274.175H253.736V284.4H255.05V274.175Z" fill="black"/>
<path d="M264.476 279.822C264.699 279.557 264.87 279.255 264.998 278.909C265.122 278.566 265.186 278.173 265.186 277.733V277.718C265.186 277.031 265.066 276.459 264.826 276.001C264.638 275.641 264.381 275.346 264.07 275.103V280.214C264.217 280.095 264.357 279.966 264.476 279.82V279.822Z" fill="black"/>
<path d="M266.736 277.002C266.389 277.667 266.215 278.424 266.215 279.279V279.294C266.215 280.148 266.389 280.906 266.736 281.571C267.005 282.084 267.365 282.528 267.803 282.917V275.655C267.365 276.045 267.005 276.491 266.736 277.002Z" fill="black"/>
<path d="M278.876 275.651V282.925C279.316 282.533 279.681 282.087 279.948 281.571C280.292 280.906 280.464 280.149 280.464 279.294V279.279C280.464 278.424 280.29 277.667 279.948 277.002C279.681 276.486 279.316 276.04 278.876 275.648V275.651Z" fill="black"/>
<path d="M297.745 274.177H296.434V276.927H297.745V274.177Z" fill="black"/>
<path d="M295.68 274.177H294.369V276.927H295.68V274.177Z" fill="black"/>
<path d="M299.807 274.177H298.496V284.403H299.807V274.177Z" fill="black"/>
<path d="M301.872 274.177H300.561V284.403H301.872V274.177Z" fill="black"/>
<path d="M303.937 274.177H302.626V276.927H303.937V274.177Z" fill="black"/>
<path d="M306.004 274.172H304.688V276.922H306.004V274.172Z" fill="black"/>
<path d="M284.911 274.175H283.6V284.4H284.911V274.175Z" fill="black"/>
<path d="M282.846 274.175H281.535V284.4H282.846V274.175Z" fill="black"/>
<path d="M286.131 274.175H285.664V279.262L286.975 281.7V275.602L286.131 274.175Z" fill="black"/>
<path d="M287.73 276.875V283.102L288.428 284.4H289.042V279.091L287.73 276.875Z" fill="black"/>
<path d="M291.105 274.175H289.794V284.4H291.105V274.175Z" fill="black"/>
<path d="M247.443 277.908H246.132V280.667H247.443V277.908Z" fill="black"/>
<path d="M251.571 274.175H250.26V276.934H251.571V274.175Z" fill="black"/>
<path d="M247.443 274.175H246.132V276.934H247.443V274.175Z" fill="black"/>
<path d="M249.507 274.175H248.195V276.934H249.507V274.175Z" fill="black"/>
<path d="M259.184 274.175H257.87V276.841H259.184V274.175Z" fill="black"/>
<path d="M262.254 274.336C262.173 274.321 262.088 274.309 262.002 274.297V284.401H263.316V274.662C262.995 274.521 262.645 274.409 262.254 274.336Z" fill="black"/>
<path d="M257.87 278.624V281.661H258.594H259.181V278.624H257.87Z" fill="black"/>
<path d="M276.057 276.768V274.228C275.641 274.124 275.204 274.048 274.746 273.997V276.766H276.057V276.768Z" fill="black"/>
<path d="M276.811 274.469V284.106C277.288 283.935 277.726 283.731 278.122 283.485V275.088C277.728 274.845 277.29 274.638 276.811 274.467V274.469Z" fill="black"/>
<path d="M268.557 275.09V283.48C268.951 283.726 269.388 283.933 269.868 284.103V274.469C269.388 274.639 268.953 274.846 268.557 275.092V275.09Z" fill="black"/>
<path d="M273.995 276.768V273.934C273.782 273.921 273.567 273.912 273.344 273.912C273.122 273.912 272.901 273.921 272.684 273.934V276.768H273.995Z" fill="black"/>
<path d="M273.344 281.89H272.684V284.639C272.899 284.652 273.119 284.661 273.344 284.661C273.569 284.661 273.782 284.652 273.995 284.639V281.89H273.344Z" fill="black"/>
<path d="M270.792 276.768H271.929V274C271.474 274.051 271.037 274.126 270.618 274.231V276.768H270.789H270.792Z" fill="black"/>
<path d="M270.791 281.89H270.62V284.342C271.036 284.447 271.474 284.522 271.931 284.574V281.89H270.794H270.791Z" fill="black"/>
<path d="M259.935 278.624V282.85L261.248 284.269V278.624H259.935Z" fill="black"/>
<path d="M261.248 276.844V274.214C261.028 274.197 260.801 274.182 260.566 274.177H259.935V276.844H261.248Z" fill="black"/>
</g>
<path d="M230.83 284.29C230.1 283.36 229.47 281.92 229.47 280C229.47 278.09 230.1 276.63 230.83 275.7H231.63C230.91 276.86 230.35 278.18 230.35 279.99C230.35 281.81 230.91 283.14 231.63 284.29H230.83ZM233.692 278.09V277.4C233.362 277.93 232.722 278.38 232.012 278.41V277.53C232.822 277.44 233.622 276.76 233.852 276H234.572V283H233.692V278.09ZM236.392 275.7C237.122 276.63 237.752 278.07 237.752 279.99C237.752 281.9 237.122 283.36 236.392 284.29H235.592C236.312 283.13 236.872 281.81 236.872 280C236.872 278.18 236.312 276.85 235.592 275.7H236.392Z" fill="black"/>
<path d="M173.329 380.31C173.219 382.347 171.778 383.61 169.442 383.484C167.235 383.364 165.907 381.82 166.012 379.873C166.104 378.175 167.178 377.032 168.704 376.964L168.64 378.143C167.663 378.24 167.009 378.855 166.95 379.944C166.878 381.272 167.837 382.245 169.504 382.336C171.202 382.428 172.32 381.557 172.391 380.249C172.45 379.16 171.83 378.406 170.88 378.194L170.941 377.066C172.489 377.33 173.425 378.542 173.329 380.31ZM173.368 376.646L172.04 376.574L172.112 375.246L173.44 375.318L173.368 376.646ZM173.858 370.551C173.789 371.829 172.839 372.729 171.161 372.638C169.564 372.552 168.629 371.51 168.697 370.252C168.739 369.473 169.175 368.996 169.608 368.769C169.458 368.781 169.318 368.773 169.178 368.765L166.791 368.636L166.848 367.598L173.837 367.976L173.781 369.015L173.542 369.002C173.382 368.993 173.252 368.986 173.113 368.959C173.5 369.21 173.902 369.743 173.858 370.551ZM171.219 371.57C172.288 371.628 173.017 371.097 173.061 370.288C173.104 369.499 172.426 368.881 171.358 368.824C170.29 368.766 169.57 369.297 169.526 370.096C169.483 370.895 170.171 371.513 171.219 371.57ZM174.175 364.711C174.096 366.159 173.126 367.067 171.448 366.977C169.94 366.895 168.936 365.839 169.01 364.471C169.089 363.013 170.153 362.24 171.72 362.324L171.94 362.336L171.745 365.941C172.684 365.972 173.324 365.446 173.366 364.657C173.397 364.098 173.154 363.594 172.54 363.46L172.597 362.412C173.51 362.562 174.248 363.363 174.175 364.711ZM171.006 365.891L171.142 363.385C170.383 363.354 169.839 363.775 169.798 364.524C169.759 365.253 170.281 365.782 171.006 365.891ZM174.294 359.544L167.305 359.165L167.361 358.127L174.351 358.506L174.294 359.544ZM174.649 355.956C174.602 356.834 174 357.593 173.071 357.543C172.052 357.487 171.686 356.666 171.608 355.711L171.525 354.835C171.496 354.453 171.363 354.316 171.093 354.301C170.664 354.278 170.336 354.6 170.307 355.14C170.271 355.799 170.611 356.188 171.158 356.247L171.101 357.306C170.155 357.204 169.447 356.405 169.514 355.167C169.587 353.829 170.37 353.23 171.609 353.297L174.624 353.461L174.572 354.429L174.352 354.417C174.202 354.409 174.063 354.392 173.914 354.374C174.389 354.65 174.691 355.177 174.649 355.956ZM173.099 356.473C173.568 356.498 173.858 356.143 173.883 355.684C173.921 354.975 173.451 354.409 172.712 354.369L172.093 354.335C172.189 354.42 172.239 354.603 172.273 354.896L172.353 355.451C172.432 356.026 172.63 356.447 173.099 356.473ZM174.872 348.878L168.811 348.549L168.683 350.926L167.754 350.876L168.071 345.024L169 345.074L168.871 347.441L174.933 347.769L174.872 348.878ZM175.039 345.814L170.196 345.551L170.252 344.513L170.542 344.528C170.731 344.539 170.911 344.548 171.09 344.578C170.554 344.299 170.131 343.785 170.171 343.056C170.175 342.976 170.179 342.896 170.204 342.817L171.212 342.872C171.198 342.942 171.173 343.04 171.165 343.18C171.12 344.019 171.54 344.582 172.608 344.64L175.095 344.775L175.039 345.814ZM175.451 341.162C175.403 342.041 174.801 342.799 173.873 342.749C172.854 342.694 172.488 341.873 172.41 340.917L172.327 340.042C172.298 339.659 172.165 339.522 171.895 339.507C171.466 339.484 171.138 339.807 171.109 340.346C171.073 341.005 171.412 341.394 171.96 341.454L171.903 342.512C170.957 342.411 170.249 341.611 170.316 340.373C170.389 339.035 171.172 338.437 172.41 338.504L175.426 338.667L175.373 339.636L175.154 339.624C175.004 339.616 174.865 339.598 174.715 339.58C175.191 339.856 175.493 340.383 175.451 341.162ZM173.901 341.679C174.37 341.705 174.66 341.35 174.684 340.89C174.723 340.181 174.253 339.615 173.514 339.575L172.895 339.542C172.99 339.627 173.041 339.81 173.075 340.102L173.155 340.657C173.234 341.232 173.431 341.654 173.901 341.679ZM175.549 336.403L170.606 337.978L170.667 336.859L174.074 335.892C174.288 335.824 174.44 335.792 174.632 335.752C174.445 335.692 174.298 335.634 174.092 335.553L170.808 334.243L170.867 333.165L175.612 335.235L175.549 336.403ZM176.01 330.838C175.932 332.286 174.961 333.195 173.284 333.104C171.776 333.022 170.772 331.966 170.846 330.598C170.925 329.14 171.988 328.367 173.556 328.452L173.776 328.463L173.58 332.068C174.52 332.099 175.159 331.573 175.202 330.784C175.232 330.225 174.989 329.721 174.376 329.588L174.432 328.539C175.346 328.689 176.083 329.49 176.01 330.838ZM172.842 332.018L172.978 329.512C172.218 329.481 171.675 329.902 171.634 330.651C171.595 331.38 172.117 331.909 172.842 332.018ZM176.278 325.896C176.206 327.234 175.453 327.994 174.362 327.985L174.419 326.947C175.039 326.95 175.45 326.572 175.489 325.863C175.522 325.254 175.264 324.839 174.835 324.816C174.485 324.797 174.271 325.056 174.131 325.599L173.966 326.251C173.734 327.2 173.233 327.754 172.454 327.712C171.626 327.667 171.049 326.844 171.111 325.696C171.178 324.468 171.838 323.742 172.839 323.747L172.783 324.785C172.251 324.806 171.931 325.17 171.899 325.769C171.871 326.288 172.081 326.66 172.46 326.68C172.8 326.699 172.982 326.468 173.124 325.895L173.29 325.233C173.519 324.334 173.981 323.748 174.81 323.793C175.709 323.842 176.346 324.648 176.278 325.896ZM176.275 322.99L171.433 322.727L171.489 321.689L176.332 321.951L176.275 322.99ZM170.685 322.657L169.347 321.853L169.413 320.625L170.732 321.788L170.685 322.657ZM176.63 319.401C176.583 320.28 175.981 321.038 175.052 320.988C174.033 320.933 173.667 320.112 173.589 319.156L173.506 318.28C173.477 317.898 173.344 317.761 173.075 317.746C172.645 317.723 172.317 318.046 172.288 318.585C172.252 319.244 172.592 319.633 173.139 319.693L173.082 320.751C172.136 320.65 171.428 319.85 171.495 318.612C171.568 317.274 172.351 316.676 173.59 316.743L176.605 316.906L176.553 317.875L176.333 317.863C176.183 317.855 176.044 317.837 175.895 317.819C176.37 318.095 176.672 318.622 176.63 319.401ZM175.08 319.918C175.549 319.943 175.839 319.589 175.864 319.129C175.902 318.42 175.432 317.854 174.693 317.814L174.074 317.78C174.17 317.866 174.22 318.049 174.254 318.341L174.334 318.896C174.413 319.471 174.611 319.893 175.08 319.918Z" fill="#909090"/>
</g>
<defs>
<clipPath id="clip0_152_816">
<rect width="320" height="458" fill="white"/>
</clipPath>
<clipPath id="clip1_152_816">
<rect width="64.0033" height="10.7494" fill="white" transform="translate(242.002 273.912)"/>
</clipPath>
</defs>
</svg>
