<svg width="2132" height="1001" viewBox="0 0 2132 1001" fill="none" xmlns="http://www.w3.org/2000/svg">
<g clip-path="url(#clip0_173_235)">
<rect width="488.662" height="51.2308" transform="matrix(-0.0226339 -0.999744 0.99963 -0.0271915 1574.43 853.777)" fill="#D9D9D9"/>
<rect width="250.075" height="51.2483" transform="matrix(0.0576859 -0.998335 0.997599 0.0692581 1640.45 849.929)" fill="#D9D9D9"/>
<rect x="1580.43" y="210.385" width="210.694" height="51.2276" transform="rotate(-87.9052 1580.43 210.385)" fill="#D9D9D9"/>
<path d="M1776.7 424.592L1950.02 425.807L1976.9 548.518L2003.79 671.229L1774.98 669.625L1776.7 424.592Z" fill="#D9D9D9"/>
<rect x="1653.54" y="424.738" width="116.161" height="245.11" transform="rotate(0.400474 1653.54 424.738)" fill="#D9D9D9"/>
<rect x="1445.18" y="338.543" width="62.3422" height="28.3084" transform="rotate(-173.251 1445.18 338.543)" fill="#D9D9D9"/>
<rect x="1645.33" y="129.372" width="62.3422" height="28.3084" transform="rotate(-87.8391 1645.33 129.372)" fill="#D9D9D9"/>
<rect x="1528.07" y="626.446" width="62.3422" height="28.3084" transform="rotate(-88.0274 1528.07 626.446)" fill="#D9D9D9"/>
<path d="M1637.16 815.62C1684.61 815.62 1723.07 854.085 1723.07 901.532C1723.07 948.98 1684.61 987.443 1637.16 987.443C1589.71 987.443 1551.25 948.98 1551.25 901.532C1551.25 854.085 1589.71 815.62 1637.16 815.62ZM1637.03 861.44C1614.96 861.44 1597.07 879.333 1597.07 901.404C1597.07 923.475 1614.96 941.367 1637.03 941.367C1659.11 941.367 1677 923.475 1677 901.404C1677 879.333 1659.11 861.441 1637.03 861.44Z" fill="#D9D9D9"/>
<rect x="1800.61" y="193.235" width="103.472" height="42.6824" transform="rotate(90 1800.61 193.235)" fill="#D9D9D9"/>
<path d="M1780.56 145.38L1813.6 202.613H1747.52L1780.56 145.38Z" fill="#D9D9D9"/>
<circle cx="1780.12" cy="230.864" r="9.78769" fill="#D9D9D9"/>
<path d="M-24.5301 69.6101L1533.06 251.896L1527.07 302.773L-15.9706 121.238L-24.5301 69.6101Z" fill="#D9D9D9"/>
<path d="M1598.05 158.113C1666.91 158.114 1722.73 213.938 1722.73 282.8C1722.73 351.662 1666.91 407.486 1598.05 407.486C1529.19 407.486 1473.36 351.662 1473.36 282.8C1473.36 213.938 1529.19 158.113 1598.05 158.113ZM1600.17 224.552C1568.09 224.552 1542.09 250.555 1542.09 282.632C1542.09 314.709 1568.09 340.713 1600.17 340.713C1632.25 340.713 1658.25 314.709 1658.25 282.632C1658.25 250.555 1632.25 224.552 1600.17 224.552Z" fill="#D9D9D9"/>
<path d="M1685.16 132.137C1683.62 130.177 1682.3 127.142 1682.3 123.095C1682.3 119.069 1683.62 115.991 1685.16 114.031H1686.85C1685.33 116.476 1684.15 119.259 1684.15 123.074C1684.15 126.91 1685.33 129.713 1686.85 132.137H1685.16ZM1690.04 129.418C1690.42 124.359 1692.21 119.891 1695.58 116.35H1687.57V114.664H1697.33V116.476C1694.42 119.701 1692.21 124.423 1692.02 129.418H1690.04ZM1699.79 114.031C1701.33 115.991 1702.66 119.027 1702.66 123.074C1702.66 127.099 1701.33 130.177 1699.79 132.137H1698.1C1699.62 129.692 1700.8 126.91 1700.8 123.095C1700.8 119.259 1699.62 116.455 1698.1 114.031H1699.79Z" fill="black"/>
<path d="M1353.51 342.907C1351.97 340.946 1350.64 337.911 1350.64 333.864C1350.64 329.838 1351.97 326.761 1353.51 324.801H1355.19C1353.67 327.246 1352.49 330.028 1352.49 333.843C1352.49 337.679 1353.67 340.483 1355.19 342.907H1353.51ZM1358.38 340.188C1358.76 335.129 1360.55 330.66 1363.92 327.119H1355.91V325.433H1365.67V327.246C1362.76 330.471 1360.55 335.192 1360.36 340.188H1358.38ZM1368.13 324.801C1369.67 326.761 1371 329.796 1371 333.843C1371 337.869 1369.67 340.946 1368.13 342.907H1366.45C1367.96 340.462 1369.14 337.679 1369.14 333.864C1369.14 330.028 1367.96 327.225 1366.45 324.801H1368.13Z" fill="black"/>
<path d="M1502.37 622.404C1500.83 620.444 1499.5 617.409 1499.5 613.362C1499.5 609.336 1500.83 606.259 1502.37 604.298H1504.05C1502.53 606.743 1501.35 609.526 1501.35 613.341C1501.35 617.177 1502.53 619.98 1504.05 622.404H1502.37ZM1507.24 619.685C1507.62 614.626 1509.41 610.158 1512.78 606.617H1504.77V604.931H1514.53V606.743C1511.62 609.968 1509.41 614.69 1509.22 619.685H1507.24ZM1516.99 604.298C1518.53 606.259 1519.86 609.294 1519.86 613.341C1519.86 617.367 1518.53 620.444 1516.99 622.404H1515.3C1516.82 619.959 1518 617.177 1518 613.362C1518 609.526 1516.82 606.722 1515.3 604.298H1516.99Z" fill="black"/>
<path d="M1793.37 416.217C1791.83 414.257 1790.5 411.222 1790.5 407.175C1790.5 403.149 1791.83 400.072 1793.37 398.111H1795.06C1793.54 400.556 1792.36 403.339 1792.36 407.154C1792.36 410.99 1793.54 413.793 1795.06 416.217H1793.37ZM1801.7 413.814C1797.84 413.814 1796.39 410.547 1796.39 406.458C1796.39 401.905 1798.29 398.406 1802.33 398.406C1804.95 398.406 1806.7 399.987 1806.72 402.306H1804.84C1804.8 400.851 1803.81 399.882 1802.29 399.882C1799.82 399.882 1798.43 401.821 1798.26 405.404C1798.24 405.615 1798.24 405.847 1798.24 406.079C1798.88 404.877 1800.35 403.823 1802.16 403.823C1804.9 403.823 1806.74 405.931 1806.74 408.734C1806.74 411.685 1804.55 413.814 1801.7 413.814ZM1798.58 408.692C1798.58 411.222 1799.95 412.402 1801.7 412.402C1803.49 412.402 1804.82 410.948 1804.82 408.756C1804.82 406.88 1803.66 405.32 1801.81 405.32C1799.95 405.32 1798.58 406.816 1798.58 408.692ZM1809.79 398.111C1811.33 400.072 1812.65 403.107 1812.65 407.154C1812.65 411.179 1811.33 414.257 1809.79 416.217H1808.1C1809.62 413.772 1810.8 410.99 1810.8 407.175C1810.8 403.339 1809.62 400.535 1808.1 398.111H1809.79Z" fill="black"/>
<path d="M1810.58 297.086C1809.04 295.126 1807.72 292.091 1807.72 288.044C1807.72 284.018 1809.04 280.941 1810.58 278.98H1812.27C1810.75 281.425 1809.57 284.208 1809.57 288.023C1809.57 291.859 1810.75 294.662 1812.27 297.086H1810.58ZM1818.41 294.683C1815.37 294.683 1813.47 292.955 1813.47 290.426H1815.37C1815.37 292.091 1816.47 293.187 1818.34 293.187C1820.47 293.187 1821.71 291.754 1821.71 289.561C1821.71 287.475 1820.58 286.02 1818.6 286.02C1817.04 286.02 1815.81 287.116 1815.48 287.981H1813.71L1814.78 279.613H1822.81V281.299H1816.17L1815.69 285.03C1815.64 285.325 1815.6 285.789 1815.56 286.126C1816.3 285.156 1817.6 284.524 1819.04 284.524C1821.76 284.524 1823.63 286.674 1823.63 289.435C1823.63 292.512 1821.57 294.683 1818.41 294.683ZM1826.44 278.98C1827.98 280.941 1829.31 283.976 1829.31 288.023C1829.31 292.049 1827.98 295.126 1826.44 297.086H1824.76C1826.27 294.641 1827.45 291.859 1827.45 288.044C1827.45 284.208 1826.27 281.404 1824.76 278.98H1826.44Z" fill="black"/>
<path d="M1670.38 555.684C1668.84 553.724 1667.52 550.689 1667.52 546.642C1667.52 542.616 1668.84 539.539 1670.38 537.579H1672.07C1670.55 540.024 1669.37 542.806 1669.37 546.621C1669.37 550.457 1670.55 553.26 1672.07 555.684H1670.38ZM1679.64 552.965V549.192H1672.87V547.401L1679.01 538.211H1681.49V547.506H1684.21V549.192H1681.49V552.965H1679.64ZM1674.62 547.506H1679.64V539.876L1679.01 540.888L1675.11 546.768C1674.96 546.979 1674.79 547.253 1674.62 547.506ZM1686.31 537.579C1687.84 539.539 1689.17 542.574 1689.17 546.621C1689.17 550.647 1687.84 553.724 1686.31 555.684H1684.62C1686.14 553.239 1687.32 550.457 1687.32 546.642C1687.32 542.806 1686.14 540.003 1684.62 537.579H1686.31Z" fill="black"/>
<path d="M1792.73 643.007C1791.19 641.046 1789.86 638.011 1789.86 633.964C1789.86 629.938 1791.19 626.861 1792.73 624.901H1794.42C1792.9 627.346 1791.72 630.128 1791.72 633.943C1791.72 637.779 1792.9 640.583 1794.42 643.007H1792.73ZM1800.7 640.604C1797.56 640.604 1795.62 638.77 1795.62 636.03H1797.5C1797.5 637.779 1798.64 639.107 1800.7 639.107C1802.64 639.107 1804.01 638.011 1804.01 636.177C1804.01 634.365 1802.56 633.395 1800.76 633.395H1799.9V631.772H1800.79C1802.35 631.772 1803.63 630.866 1803.63 629.159C1803.63 627.599 1802.51 626.714 1800.85 626.714C1798.87 626.714 1797.79 627.81 1797.75 629.664H1795.85C1795.92 627.009 1797.71 625.196 1800.87 625.196C1803.55 625.196 1805.55 626.798 1805.55 629.074C1805.55 630.592 1804.64 631.92 1802.87 632.51C1804.9 633.058 1805.93 634.428 1805.93 636.241C1805.93 638.812 1803.76 640.604 1800.7 640.604ZM1808.92 624.901C1810.46 626.861 1811.79 629.896 1811.79 633.943C1811.79 637.969 1810.46 641.046 1808.92 643.007H1807.23C1808.75 640.562 1809.93 637.779 1809.93 633.964C1809.93 630.128 1808.75 627.325 1807.23 624.901H1808.92Z" fill="black"/>
<path d="M1963.96 643.007C1962.43 641.046 1961.1 638.011 1961.1 633.964C1961.1 629.938 1962.43 626.861 1963.96 624.901H1965.65C1964.13 627.346 1962.95 630.128 1962.95 633.943C1962.95 637.779 1964.13 640.583 1965.65 643.007H1963.96ZM1966.86 640.288C1966.86 638.391 1967.64 637.147 1969.93 635.398L1971.94 633.859C1973.18 632.889 1974.72 631.54 1974.72 629.664C1974.72 627.978 1973.69 626.714 1971.91 626.714C1970.12 626.714 1968.9 627.978 1968.9 630.402V630.676H1967V630.191C1967 627.03 1969.15 625.196 1971.91 625.196C1974.65 625.196 1976.64 626.903 1976.64 629.643C1976.64 631.857 1975.31 633.437 1972.53 635.545L1971.49 636.325C1970.12 637.358 1969.3 638.053 1969.15 638.601H1976.89V640.288H1966.86ZM1979.76 624.901C1981.3 626.861 1982.63 629.896 1982.63 633.943C1982.63 637.969 1981.3 641.046 1979.76 643.007H1978.08C1979.6 640.562 1980.78 637.779 1980.78 633.964C1980.78 630.128 1979.6 627.325 1978.08 624.901H1979.76Z" fill="black"/>
<path d="M1334.26 222.103L1340.68 210.06L1343.02 210.305L1346.82 223.42L1344.59 223.186L1343.62 219.451L1338.12 218.875L1336.38 222.325L1334.26 222.103ZM1338.93 217.27L1343.17 217.714L1341.95 213.063C1341.83 212.615 1341.74 212.242 1341.64 211.814C1341.47 212.214 1341.27 212.575 1341.09 212.973L1338.93 217.27ZM1349.49 223.701L1347.1 214.639L1349.11 214.85L1350.55 221.086C1350.65 221.479 1350.7 221.756 1350.75 222.107C1350.88 221.775 1351 221.515 1351.16 221.151L1353.82 215.344L1355.76 215.548L1351.6 223.921L1349.49 223.701ZM1354.9 224.268L1355.15 221.878L1357.54 222.129L1357.29 224.519L1354.9 224.268ZM1365.86 225.708C1363.56 225.466 1362.02 223.67 1362.34 220.652C1362.64 217.777 1364.6 216.184 1366.87 216.422C1368.27 216.569 1369.09 217.4 1369.46 218.202C1369.45 217.928 1369.48 217.677 1369.5 217.425L1369.95 213.131L1371.82 213.327L1370.5 225.905L1368.64 225.709L1368.68 225.277C1368.71 224.99 1368.74 224.756 1368.8 224.508C1368.31 225.184 1367.31 225.86 1365.86 225.708ZM1364.26 220.853C1364.06 222.776 1364.95 224.141 1366.4 224.294C1367.82 224.443 1369 223.276 1369.2 221.354C1369.4 219.431 1368.51 218.084 1367.07 217.933C1365.63 217.782 1364.46 218.967 1364.26 220.853ZM1376.37 226.81C1373.76 226.537 1372.21 224.703 1372.53 221.684C1372.81 218.971 1374.81 217.255 1377.27 217.513C1379.89 217.788 1381.19 219.777 1380.9 222.598L1380.85 222.994L1374.37 222.313C1374.23 224.006 1375.12 225.208 1376.54 225.357C1377.54 225.462 1378.47 225.069 1378.77 223.974L1380.66 224.172C1380.3 225.806 1378.79 227.065 1376.37 226.81ZM1374.52 220.986L1379.03 221.459C1379.16 220.091 1378.45 219.072 1377.1 218.931C1375.79 218.793 1374.79 219.687 1374.52 220.986ZM1382.02 227.112L1383.34 214.535L1385.21 214.731L1383.89 227.308L1382.02 227.112ZM1389.92 227.941L1391.24 215.364L1396.33 215.897C1398.73 216.15 1400.68 217.317 1400.4 220.03C1400.11 222.779 1397.97 223.481 1395.56 223.228L1392.47 222.904L1391.92 228.151L1389.92 227.941ZM1392.64 221.233L1395.73 221.557C1397.44 221.736 1398.22 221.037 1398.35 219.815C1398.48 218.593 1397.88 217.749 1396.15 217.568L1393.06 217.244L1392.64 221.233ZM1403.74 229.682C1401.85 229.484 1400.74 228.15 1400.98 225.886L1401.56 220.352L1403.43 220.548L1402.88 225.758C1402.73 227.196 1403.19 228.135 1404.43 228.265C1405.69 228.397 1406.58 227.527 1406.75 225.946L1407.27 220.951L1409.14 221.147L1408.23 229.862L1406.38 229.667L1406.42 229.218C1406.45 228.967 1406.5 228.699 1406.56 228.469C1406.03 229.304 1405.05 229.819 1403.74 229.682ZM1414.08 230.767C1411.48 230.493 1409.93 228.659 1410.24 225.641C1410.53 222.928 1412.53 221.212 1414.99 221.47C1417.61 221.745 1418.91 223.734 1418.61 226.555L1418.57 226.95L1412.09 226.27C1411.94 227.963 1412.84 229.164 1414.26 229.313C1415.26 229.419 1416.19 229.026 1416.49 227.931L1418.38 228.129C1418.02 229.763 1416.51 231.021 1414.08 230.767ZM1412.24 224.942L1416.75 225.415C1416.88 224.048 1416.17 223.029 1414.82 222.887C1413.51 222.75 1412.51 223.644 1412.24 224.942ZM1419.74 231.069L1420.65 222.355L1422.52 222.551L1422.47 223.072C1422.43 223.413 1422.4 223.736 1422.33 224.056C1422.88 223.115 1423.84 222.399 1425.16 222.536C1425.3 222.551 1425.44 222.567 1425.58 222.618L1425.39 224.432C1425.27 224.401 1425.09 224.346 1424.84 224.32C1423.33 224.162 1422.28 224.868 1422.08 226.791L1421.61 231.265L1419.74 231.069ZM1429.39 232.227C1427.81 232.061 1426.82 231.176 1427.02 229.235L1427.51 224.599L1425.69 224.409L1425.85 222.9L1427.66 223.09L1427.98 220.072L1429.85 220.268L1429.53 223.286L1431.51 223.493L1431.35 225.003L1429.37 224.795L1428.91 229.18C1428.81 230.15 1429.2 230.626 1430.04 230.715C1430.26 230.738 1430.48 230.742 1430.71 230.731L1430.56 232.222C1430.28 232.266 1429.84 232.274 1429.39 232.227ZM1435.68 233.032C1433.11 232.762 1431.5 230.777 1431.8 227.938C1432.09 225.153 1434.1 223.475 1436.65 223.742C1439.22 224.012 1440.84 226.071 1440.55 228.856C1440.25 231.695 1438.25 233.301 1435.68 233.032ZM1433.7 228.138C1433.5 230.078 1434.32 231.418 1435.83 231.576C1437.34 231.735 1438.44 230.597 1438.64 228.656C1438.85 226.68 1437.99 225.372 1436.5 225.216C1435.02 225.061 1433.91 226.161 1433.7 228.138Z" fill="#909090"/>
<path d="M1567.03 148.099L1554.39 148.099L1554.39 143.962C1554.39 139.788 1556.39 137.223 1560.71 137.223C1564.54 137.223 1567.03 139.463 1567.03 143.745L1567.03 148.099ZM1565.34 146.094L1565.34 143.926C1565.34 141.071 1563.94 139.283 1560.71 139.283C1557.77 139.283 1556.07 140.782 1556.07 143.962L1556.07 146.094L1565.34 146.094ZM1567.32 131.721C1567.32 134.305 1565.52 136.112 1562.66 136.112C1559.86 136.112 1557.98 134.287 1557.98 131.721C1557.98 129.138 1559.86 127.313 1562.66 127.313C1565.52 127.313 1567.32 129.138 1567.32 131.721ZM1562.66 134.197C1564.61 134.197 1565.86 133.239 1565.86 131.721C1565.86 130.204 1564.61 129.228 1562.66 129.228C1560.67 129.228 1559.46 130.222 1559.46 131.721C1559.46 133.203 1560.67 134.197 1562.66 134.197ZM1567.32 121.867C1567.32 124.451 1565.64 126.258 1562.64 126.258C1559.79 126.258 1557.98 124.306 1557.98 121.777C1557.98 119.464 1559.37 118.001 1561.4 117.802L1561.4 119.717C1560.33 119.826 1559.46 120.53 1559.46 121.795C1559.46 123.277 1560.73 124.342 1562.64 124.342C1564.56 124.342 1565.86 123.331 1565.86 121.813C1565.86 120.494 1565.03 119.754 1563.89 119.609L1563.89 117.73C1565.95 117.965 1567.32 119.374 1567.32 121.867ZM1567.18 112.851C1567.18 114.441 1566.4 115.525 1564.45 115.525L1559.79 115.525L1559.79 117.35L1558.27 117.35L1558.27 115.525L1555.24 115.525L1555.24 113.646L1558.27 113.646L1558.27 111.659L1559.79 111.659L1559.79 113.646L1564.2 113.646C1565.17 113.646 1565.61 113.212 1565.61 112.363C1565.61 112.146 1565.59 111.93 1565.55 111.695L1567.05 111.695C1567.12 111.966 1567.18 112.399 1567.18 112.851ZM1567.32 106.517C1567.32 109.101 1565.52 110.907 1562.66 110.907C1559.86 110.907 1557.98 109.083 1557.98 106.517C1557.98 103.934 1559.86 102.109 1562.66 102.109C1565.52 102.109 1567.32 103.934 1567.32 106.517ZM1562.66 108.992C1564.61 108.992 1565.86 108.035 1565.86 106.517C1565.86 104.999 1564.61 104.024 1562.66 104.024C1560.67 104.024 1559.46 105.018 1559.46 106.517C1559.46 107.999 1560.67 108.992 1562.66 108.992ZM1567.03 100.529L1558.27 100.529L1558.27 98.6503L1558.8 98.6503C1559.14 98.6503 1559.46 98.6503 1559.79 98.6864C1558.8 98.2348 1557.98 97.3495 1557.98 96.0307C1557.98 95.8861 1557.98 95.7416 1558.02 95.5971L1559.84 95.5971C1559.83 95.7235 1559.79 95.9042 1559.79 96.1571C1559.79 97.6747 1560.6 98.6503 1562.54 98.6503L1567.03 98.6503L1567.03 100.529ZM1567.32 88.5991C1567.32 91.4175 1565.59 92.646 1563.04 92.646L1563.04 90.6225C1564.58 90.6045 1565.64 90.0986 1565.64 88.5991C1565.64 87.0092 1564.56 86.5033 1562.97 86.5033L1554.39 86.5033L1554.39 84.4799L1563.24 84.4799C1565.82 84.4799 1567.32 86.1239 1567.32 88.5991ZM1567.03 82.7036L1564.63 82.7036L1564.63 80.3007L1567.03 80.3007L1567.03 82.7036ZM1567.32 75.2425C1567.32 78.0608 1565.59 79.2894 1563.04 79.2894L1563.04 77.2659C1564.58 77.2478 1565.64 76.742 1565.64 75.2425C1565.64 73.6526 1564.56 73.1467 1562.97 73.1467L1554.39 73.1467L1554.39 71.1233L1563.24 71.1233C1565.82 71.1233 1567.32 72.7673 1567.32 75.2425ZM1567.03 69.3469L1564.63 69.3469L1564.63 66.9441L1567.03 66.9441L1567.03 69.3469ZM1567.03 61.5197L1554.39 61.5197L1554.39 57.3825C1554.39 53.2091 1556.39 50.6436 1560.71 50.6436C1564.54 50.6436 1567.03 52.8839 1567.03 57.1657L1567.03 61.5197ZM1565.34 59.5143L1565.34 57.3463C1565.34 54.4918 1563.94 52.7032 1560.71 52.7032C1557.77 52.7032 1556.07 54.2027 1556.07 57.3825L1556.07 59.5143L1565.34 59.5143ZM1567.32 45.142C1567.32 47.7256 1565.52 49.5322 1562.66 49.5322C1559.86 49.5322 1557.98 47.7075 1557.98 45.142C1557.98 42.5585 1559.86 40.7338 1562.66 40.7338C1565.52 40.7338 1567.32 42.5585 1567.32 45.142ZM1554.42 47.6352L1554.42 45.3046L1556.92 44.0761L1556.92 45.684L1554.42 47.6352ZM1562.66 47.6172C1564.61 47.6172 1565.86 46.6596 1565.86 45.142C1565.86 43.6244 1564.61 42.6488 1562.66 42.6488C1560.67 42.6488 1559.46 43.6425 1559.46 45.142C1559.46 46.6235 1560.67 47.6172 1562.66 47.6172ZM1567.03 39.1542L1558.27 39.1542L1558.27 37.2753L1558.81 37.2753C1559.03 37.2753 1559.27 37.2753 1559.48 37.3114C1558.67 36.8236 1557.98 35.9745 1557.98 34.764C1557.98 33.6439 1558.69 32.7044 1559.66 32.2889C1558.72 31.7469 1557.98 30.7171 1557.98 29.4524C1557.98 27.6819 1559.23 26.3992 1561.51 26.3992L1567.03 26.3992L1567.03 28.2781L1561.81 28.2781C1560.35 28.2781 1559.46 28.784 1559.46 29.9222C1559.46 31.0965 1560.51 31.8372 1561.87 31.8372L1567.03 31.8372L1567.03 33.7162L1561.85 33.7162C1560.37 33.7162 1559.46 34.204 1559.46 35.3422C1559.46 36.4984 1560.49 37.2753 1561.9 37.2753L1567.03 37.2753L1567.03 39.1542ZM1567.03 24.3953L1558.27 24.3953L1558.27 22.5164L1567.03 22.5164L1567.03 24.3953ZM1556.77 24.4676L1554.69 24.4676L1554.69 22.4261L1556.77 22.4261L1556.77 24.4676ZM1567.03 20.4164L1558.27 20.4164L1558.27 18.5375L1558.76 18.5375C1558.99 18.5375 1559.21 18.5556 1559.48 18.5737C1558.67 18.1039 1557.98 17.1645 1557.98 15.8817C1557.98 13.8944 1559.3 12.7201 1561.51 12.7201L1567.03 12.7201L1567.03 14.599L1561.76 14.599C1560.3 14.599 1559.46 15.1771 1559.46 16.3876C1559.46 17.6884 1560.53 18.5375 1561.83 18.5375L1567.03 18.5375L1567.03 20.4164ZM1567.32 6.89103C1567.32 9.51069 1565.66 11.2451 1562.63 11.2451C1559.9 11.2451 1557.98 9.43843 1557.98 6.9633C1557.98 4.32557 1559.83 2.82604 1562.66 2.82604L1563.06 2.82604L1563.06 9.3481C1564.76 9.31196 1565.86 8.30023 1565.86 6.87297C1565.86 5.86124 1565.37 4.97597 1564.25 4.7953L1564.25 2.89831C1565.91 3.07897 1567.32 4.45204 1567.32 6.89103ZM1561.72 9.33003L1561.72 4.7953C1560.35 4.81337 1559.41 5.62637 1559.41 6.98137C1559.41 8.30023 1560.4 9.20356 1561.72 9.33003Z" fill="#909090"/>
<rect width="187.86" height="36.6555" transform="translate(1844.5 572.78)" fill="white"/>
<g clip-path="url(#clip1_173_235)">
<path d="M1898.5 588.607H1895.5V594.928H1898.5V588.607Z" fill="black"/>
<path d="M1911.2 580.053H1908.19V603.48H1911.2V580.053Z" fill="black"/>
<path d="M1927.13 598.944V603.48H1930.74L1927.13 598.944Z" fill="black"/>
<path d="M1951.6 597.728V603.877C1952.64 603.759 1953.64 603.586 1954.6 603.346V597.723H1951.6V597.728Z" fill="black"/>
<path d="M1993.81 580.054H1990.79V603.481H1993.81V580.054Z" fill="black"/>
<path d="M1879.58 580.053H1876.58V603.48H1879.58V580.053Z" fill="black"/>
<path d="M1884.32 580.053H1881.31V603.48H1884.32V580.053Z" fill="black"/>
<path d="M1893.77 588.607H1890.76V594.928H1893.77V588.607Z" fill="black"/>
<path d="M1906.47 580.053H1903.46V603.48H1906.47V580.053Z" fill="black"/>
<path d="M1928.06 592.992C1928.57 592.384 1928.97 591.692 1929.26 590.899C1929.54 590.113 1929.69 589.215 1929.69 588.205V588.171C1929.69 586.598 1929.41 585.287 1928.87 584.238C1928.43 583.412 1927.85 582.737 1927.13 582.179V593.89C1927.47 593.617 1927.79 593.321 1928.06 592.986V592.992Z" fill="black"/>
<path d="M1933.24 586.531C1932.44 588.054 1932.05 589.789 1932.05 591.747V591.781C1932.05 593.739 1932.44 595.474 1933.24 596.997C1933.86 598.174 1934.68 599.19 1935.68 600.082V583.445C1934.68 584.338 1933.86 585.359 1933.24 586.531Z" fill="black"/>
<path d="M1961.05 583.435V600.1C1962.06 599.202 1962.9 598.181 1963.51 596.998C1964.3 595.475 1964.69 593.74 1964.69 591.782V591.748C1964.69 589.79 1964.29 588.055 1963.51 586.532C1962.9 585.349 1962.06 584.328 1961.05 583.43V583.435Z" fill="black"/>
<path d="M2004.28 580.06H2001.28V586.358H2004.28V580.06Z" fill="black"/>
<path d="M1999.55 580.06H1996.55V586.358H1999.55V580.06Z" fill="black"/>
<path d="M2009.01 580.06H2006V603.487H2009.01V580.06Z" fill="black"/>
<path d="M2013.74 580.06H2010.73V603.487H2013.74V580.06Z" fill="black"/>
<path d="M2018.47 580.06H2015.46V586.358H2018.47V580.06Z" fill="black"/>
<path d="M2023.2 580.048H2020.18V586.347H2023.2V580.048Z" fill="black"/>
<path d="M1974.88 580.054H1971.87V603.481H1974.88V580.054Z" fill="black"/>
<path d="M1970.15 580.053H1967.15V603.48H1970.15V580.053Z" fill="black"/>
<path d="M1977.67 580.053H1976.6V591.708L1979.61 597.293V583.323L1977.67 580.053Z" fill="black"/>
<path d="M1981.34 586.241V600.507L1982.94 603.48H1984.34V591.318L1981.34 586.241Z" fill="black"/>
<path d="M1989.07 580.054H1986.07V603.481H1989.07V580.054Z" fill="black"/>
<path d="M1889.04 588.607H1886.04V594.928H1889.04V588.607Z" fill="black"/>
<path d="M1898.5 580.053H1895.5V586.374H1898.5V580.053Z" fill="black"/>
<path d="M1889.04 580.053H1886.04V586.374H1889.04V580.053Z" fill="black"/>
<path d="M1893.77 580.053H1890.76V586.374H1893.77V580.053Z" fill="black"/>
<path d="M1915.94 580.053H1912.93V586.162H1915.94V580.053Z" fill="black"/>
<path d="M1922.97 580.423C1922.79 580.39 1922.59 580.362 1922.39 580.334V603.482H1925.4V581.171C1924.67 580.847 1923.87 580.591 1922.97 580.423Z" fill="black"/>
<path d="M1912.93 590.248V597.205H1914.59H1915.93V590.248H1912.93Z" fill="black"/>
<path d="M1954.6 585.996V580.177C1953.64 579.937 1952.64 579.764 1951.59 579.647V585.991H1954.6V585.996Z" fill="black"/>
<path d="M1956.32 580.73V602.807C1957.42 602.416 1958.42 601.947 1959.33 601.384V582.147C1958.43 581.589 1957.42 581.115 1956.32 580.724V580.73Z" fill="black"/>
<path d="M1937.41 582.15V601.371C1938.31 601.934 1939.32 602.408 1940.42 602.799V580.728C1939.32 581.118 1938.32 581.592 1937.41 582.156V582.15Z" fill="black"/>
<path d="M1949.87 585.996V579.501C1949.38 579.473 1948.89 579.451 1948.38 579.451C1947.87 579.451 1947.37 579.473 1946.87 579.501V585.996H1949.87Z" fill="black"/>
<path d="M1948.38 597.729H1946.87V604.028C1947.36 604.056 1947.87 604.079 1948.38 604.079C1948.9 604.079 1949.38 604.056 1949.87 604.028V597.729H1948.38Z" fill="black"/>
<path d="M1942.53 585.996H1945.14V579.653C1944.1 579.77 1943.09 579.943 1942.14 580.183V585.996H1942.53H1942.53Z" fill="black"/>
<path d="M1942.53 597.729H1942.14V603.348C1943.09 603.588 1944.1 603.761 1945.15 603.878V597.729H1942.54H1942.53Z" fill="black"/>
<path d="M1917.66 590.248V599.928L1920.67 603.181V590.248H1917.66Z" fill="black"/>
<path d="M1920.67 586.169V580.143C1920.16 580.104 1919.64 580.071 1919.11 580.06H1917.66V586.169H1920.67Z" fill="black"/>
</g>
<path d="M1855.76 601.787C1854.22 599.827 1852.9 596.792 1852.9 592.745C1852.9 588.719 1854.22 585.642 1855.76 583.682H1857.45C1855.93 586.127 1854.75 588.909 1854.75 592.724C1854.75 596.56 1855.93 599.363 1857.45 601.787H1855.76ZM1861.8 588.719V587.265C1861.1 588.382 1859.75 589.33 1858.25 589.394V587.539C1859.96 587.349 1861.65 585.916 1862.13 584.314H1863.65V599.068H1861.8V588.719ZM1867.49 583.682C1869.03 585.642 1870.35 588.677 1870.35 592.724C1870.35 596.75 1869.03 599.827 1867.49 601.787H1865.8C1867.32 599.342 1868.5 596.56 1868.5 592.745C1868.5 588.909 1867.32 586.106 1865.8 583.682H1867.49Z" fill="black"/>
<path d="M1718.01 800.147C1717.81 803.828 1715.21 806.111 1710.99 805.882C1707 805.666 1704.6 802.876 1704.79 799.359C1704.96 796.292 1706.9 794.226 1709.66 794.104L1709.54 796.232C1707.78 796.408 1706.59 797.52 1706.49 799.487C1706.36 801.886 1708.09 803.644 1711.1 803.808C1714.17 803.974 1716.19 802.401 1716.32 800.037C1716.43 798.071 1715.31 796.708 1713.59 796.325L1713.7 794.287C1716.5 794.764 1718.19 796.954 1718.01 800.147ZM1718.08 793.529L1715.68 793.399L1715.81 791L1718.21 791.13L1718.08 793.529ZM1718.97 782.518C1718.84 784.827 1717.13 786.453 1714.1 786.288C1711.21 786.132 1709.52 784.249 1709.64 781.976C1709.72 780.569 1710.51 779.707 1711.29 779.297C1711.02 779.318 1710.77 779.305 1710.51 779.291L1706.2 779.057L1706.3 777.181L1718.93 777.866L1718.83 779.742L1718.4 779.718C1718.11 779.703 1717.87 779.69 1717.62 779.64C1718.32 780.094 1719.05 781.056 1718.97 782.518ZM1714.2 784.358C1716.13 784.463 1717.45 783.503 1717.53 782.042C1717.61 780.616 1716.38 779.501 1714.45 779.396C1712.52 779.291 1711.22 780.252 1711.14 781.695C1711.06 783.139 1712.31 784.255 1714.2 784.358ZM1719.54 771.966C1719.4 774.581 1717.65 776.223 1714.61 776.059C1711.89 775.912 1710.08 774.004 1710.21 771.532C1710.35 768.899 1712.27 767.501 1715.11 767.654L1715.5 767.676L1715.15 774.188C1716.85 774.244 1718 773.294 1718.08 771.868C1718.14 770.858 1717.7 769.948 1716.59 769.707L1716.69 767.813C1718.34 768.083 1719.67 769.53 1719.54 771.966ZM1713.82 774.098L1714.06 769.57C1712.69 769.514 1711.71 770.275 1711.63 771.628C1711.56 772.945 1712.51 773.9 1713.82 774.098ZM1719.76 762.631L1707.13 761.947L1707.23 760.071L1719.86 760.755L1719.76 762.631ZM1720.4 756.148C1720.31 757.736 1719.22 759.106 1717.55 759.015C1715.71 758.916 1715.05 757.432 1714.9 755.706L1714.75 754.124C1714.7 753.433 1714.46 753.185 1713.97 753.159C1713.2 753.116 1712.61 753.7 1712.55 754.674C1712.49 755.864 1713.1 756.567 1714.09 756.675L1713.99 758.587C1712.28 758.404 1711 756.96 1711.12 754.723C1711.25 752.305 1712.67 751.224 1714.9 751.345L1720.35 751.641L1720.26 753.391L1719.86 753.369C1719.59 753.354 1719.34 753.323 1719.07 753.29C1719.93 753.789 1720.47 754.741 1720.4 756.148ZM1717.6 757.082C1718.45 757.128 1718.97 756.487 1719.01 755.657C1719.08 754.376 1718.23 753.353 1716.9 753.281L1715.78 753.22C1715.95 753.374 1716.04 753.705 1716.11 754.233L1716.25 755.236C1716.39 756.275 1716.75 757.036 1717.6 757.082ZM1720.8 743.361L1709.85 742.767L1709.62 747.061L1707.94 746.97L1708.51 736.399L1710.19 736.489L1709.96 740.765L1720.91 741.358L1720.8 743.361ZM1721.1 737.825L1712.35 737.351L1712.45 735.474L1712.98 735.503C1713.32 735.521 1713.64 735.539 1713.97 735.593C1713 735.088 1712.24 734.16 1712.31 732.843C1712.31 732.699 1712.32 732.554 1712.37 732.412L1714.19 732.511C1714.16 732.636 1714.12 732.814 1714.1 733.067C1714.02 734.582 1714.78 735.6 1716.71 735.705L1721.2 735.949L1721.1 737.825ZM1721.85 729.421C1721.76 731.009 1720.67 732.379 1719 732.288C1717.16 732.189 1716.49 730.705 1716.35 728.979L1716.2 727.397C1716.15 726.706 1715.91 726.458 1715.42 726.432C1714.65 726.39 1714.05 726.973 1714 727.947C1713.94 729.137 1714.55 729.84 1715.54 729.948L1715.44 731.86C1713.73 731.677 1712.45 730.233 1712.57 727.996C1712.7 725.578 1714.12 724.497 1716.35 724.618L1721.8 724.914L1721.71 726.664L1721.31 726.642C1721.04 726.627 1720.79 726.596 1720.52 726.563C1721.38 727.062 1721.92 728.014 1721.85 729.421ZM1719.05 730.355C1719.89 730.401 1720.42 729.76 1720.46 728.93C1720.53 727.649 1719.68 726.626 1718.35 726.554L1717.23 726.493C1717.4 726.647 1717.49 726.978 1717.55 727.506L1717.7 728.509C1717.84 729.548 1718.2 730.309 1719.05 730.355ZM1722.02 720.823L1713.09 723.668L1713.2 721.648L1719.36 719.9C1719.75 719.777 1720.02 719.719 1720.37 719.648C1720.03 719.539 1719.76 719.434 1719.39 719.287L1713.46 716.921L1713.56 714.973L1722.14 718.712L1722.02 720.823ZM1722.86 710.769C1722.72 713.384 1720.96 715.026 1717.93 714.862C1715.21 714.715 1713.39 712.807 1713.53 710.335C1713.67 707.702 1715.59 706.304 1718.42 706.457L1718.82 706.479L1718.47 712.991C1720.16 713.047 1721.32 712.097 1721.4 710.671C1721.45 709.661 1721.01 708.751 1719.9 708.51L1720.01 706.616C1721.66 706.886 1722.99 708.333 1722.86 710.769ZM1717.13 712.901L1717.38 708.373C1716.01 708.317 1715.02 709.078 1714.95 710.431C1714.88 711.748 1715.82 712.703 1717.13 712.901ZM1723.34 701.84C1723.21 704.258 1721.85 705.631 1719.88 705.615L1719.98 703.739C1721.1 703.745 1721.85 703.062 1721.92 701.781C1721.97 700.681 1721.51 699.932 1720.73 699.89C1720.1 699.855 1719.71 700.323 1719.46 701.304L1719.16 702.482C1718.74 704.196 1717.84 705.197 1716.43 705.121C1714.94 705.039 1713.89 703.554 1714.01 701.479C1714.13 699.26 1715.32 697.95 1717.13 697.957L1717.03 699.833C1716.07 699.872 1715.49 700.528 1715.43 701.61C1715.38 702.549 1715.76 703.22 1716.44 703.258C1717.06 703.291 1717.39 702.874 1717.64 701.839L1717.94 700.643C1718.36 699.019 1719.19 697.96 1720.69 698.042C1722.31 698.13 1723.46 699.585 1723.34 701.84ZM1723.34 696.59L1714.59 696.115L1714.69 694.239L1723.44 694.713L1723.34 696.59ZM1713.24 695.988L1710.82 694.536L1710.94 692.317L1713.32 694.418L1713.24 695.988ZM1723.98 690.106C1723.89 691.694 1722.8 693.064 1721.13 692.974C1719.29 692.874 1718.62 691.391 1718.48 689.664L1718.33 688.082C1718.28 687.391 1718.04 687.143 1717.55 687.117C1716.78 687.075 1716.19 687.658 1716.13 688.632C1716.07 689.823 1716.68 690.525 1717.67 690.633L1717.57 692.545C1715.86 692.362 1714.58 690.918 1714.7 688.681C1714.83 686.264 1716.25 685.182 1718.48 685.304L1723.93 685.599L1723.84 687.349L1723.44 687.327C1723.17 687.313 1722.92 687.281 1722.65 687.248C1723.51 687.747 1724.05 688.699 1723.98 690.106ZM1721.18 691.04C1722.02 691.086 1722.55 690.445 1722.59 689.615C1722.66 688.334 1721.81 687.311 1720.48 687.239L1719.36 687.178C1719.53 687.333 1719.62 687.663 1719.68 688.191L1719.83 689.194C1719.97 690.233 1720.33 690.994 1721.18 691.04Z" fill="#909090"/>
</g>
<defs>
<clipPath id="clip0_173_235">
<rect width="2132" height="1001" fill="white"/>
</clipPath>
<clipPath id="clip1_173_235">
<rect width="146.63" height="24.6266" fill="white" transform="translate(1876.58 579.451)"/>
</clipPath>
</defs>
</svg>
