<?xml version="1.0" encoding="UTF-8" standalone="no"?>
<!DOCTYPE svg PUBLIC "-//W3C//DTD SVG 1.1//EN" "http://www.w3.org/Graphics/SVG/1.1/DTD/svg11.dtd">
<svg width="100%" height="100%" viewBox="0 0 100 100" version="1.1" xmlns="http://www.w3.org/2000/svg" xmlns:xlink="http://www.w3.org/1999/xlink" xml:space="preserve" xmlns:serif="http://www.serif.com/" style="fill-rule:evenodd;clip-rule:evenodd;stroke-linejoin:round;stroke-miterlimit:2;">
    <g transform="matrix(1,0,0,1,-2248.81,-2192.23)">
        <g transform="matrix(4.16667,0,0,4.16667,0,0)">
            <g transform="matrix(-0.86648,-0.499211,-0.499211,0.86648,548.366,539.17)">
                <path d="M-0.178,-7.482C2.153,-6.139 2.759,-3.431 1.104,-0.558C0.723,0.103 0.289,0.652 -0.178,1.098L-2.629,-8.012C-1.879,-8.128 -1.029,-7.972 -0.178,-7.482" style="fill:rgb(2,4,4);fill-rule:nonzero;"/>
            </g>
        </g>
        <g transform="matrix(4.16667,0,0,4.16667,0,0)">
            <g transform="matrix(1,0,0,1,558.49,540.908)">
                <path d="M0,-5.546L-2.339,-5.546L-4.633,-3.252L0.062,-3.252L0.062,4.525L-2.44,4.525L-2.44,4.066C-2.44,3.566 -2.398,3.086 -2.294,2.606C-2.982,3.92 -4.463,4.9 -6.736,4.9C-8.521,4.9 -10.047,4.336 -11.207,3.321L-14.829,6.944L-16.495,5.279L-12.662,1.446C-13.274,0.279 -13.616,-1.142 -13.616,-2.773C-13.616,-7.276 -10.676,-10.446 -6.277,-10.446C-4.541,-10.446 -3.102,-9.975 -2.036,-9.18L1.275,-12.49L2.94,-10.825L-0.517,-7.368C-0.241,-6.812 -0.063,-6.201 0,-5.546M-18.777,9.227L5.223,9.227L5.223,-14.773L-18.777,-14.773L-18.777,9.227Z" style="fill:rgb(2,4,4);fill-rule:nonzero;"/>
            </g>
        </g>
        <g transform="matrix(4.16667,0,0,4.16667,0,0)">
            <g transform="matrix(1,0,0,1,552.089,543.493)">
                <path d="M3.962,-3.523L-0.545,-3.523L-2.897,-1.172C-2.125,-0.416 -1.096,0 0.104,0C2.272,0 3.962,-1.334 3.962,-3.419L3.962,-3.523Z" style="fill:rgb(2,4,4);fill-rule:nonzero;"/>
            </g>
        </g>
    </g>
</svg>
