<?xml version="1.0" encoding="UTF-8" standalone="no"?>
<!DOCTYPE svg PUBLIC "-//W3C//DTD SVG 1.1//EN" "http://www.w3.org/Graphics/SVG/1.1/DTD/svg11.dtd">
<svg width="100%" height="100%" viewBox="0 0 100 100" version="1.1" xmlns="http://www.w3.org/2000/svg" xmlns:xlink="http://www.w3.org/1999/xlink" xml:space="preserve" xmlns:serif="http://www.serif.com/" style="fill-rule:evenodd;clip-rule:evenodd;stroke-linejoin:round;stroke-miterlimit:2;">
    <g transform="matrix(1,0,0,1,-2248.81,-2396.28)">
        <g transform="matrix(4.16667,0,0,4.16667,0,0)">
            <g transform="matrix(1,0,0,1,552.109,585.649)">
                <path d="M0,2.918L-3.4,2.918L-3.4,8.757L-6.131,8.757L-6.131,-5.839L0,-5.839C3.043,-5.839 5.338,-4.546 5.338,-1.461C5.338,1.709 2.939,2.918 0,2.918M-12.396,13.459L11.604,13.459L11.604,-10.541L-12.396,-10.541L-12.396,13.459Z" style="fill:rgb(2,4,4);fill-rule:nonzero;"/>
            </g>
        </g>
        <g transform="matrix(4.16667,0,0,4.16667,0,0)">
            <g transform="matrix(1,0,0,1,552.109,586.254)">
                <path d="M0,-4.129L-3.4,-4.129L-3.4,0L0,0C1.751,0 2.522,-0.793 2.522,-2.065C2.522,-3.336 1.792,-4.129 0,-4.129" style="fill:rgb(2,4,4);fill-rule:nonzero;"/>
            </g>
        </g>
    </g>
</svg>
